<svg width="1520" height="181" viewBox="0 0 1520 181" fill="none" xmlns="http://www.w3.org/2000/svg">
<mask id="mask0_9_1273" style="mask-type:alpha" maskUnits="userSpaceOnUse" x="0" y="0" width="1520" height="181">
<rect y="0.570312" width="1520" height="180" rx="16" fill="#D9D9D9"/>
</mask>
<g mask="url(#mask0_9_1273)">
<g opacity="0.2">
<path d="M823.986 89.7118C768.346 -94.8972 935.974 -139.592 1026.74 -138.863C1196.6 -132.998 1124.27 -44.1242 1261.14 21.7531C1398.02 87.6304 1256.78 108.746 1228.73 193.671C1200.67 278.596 1396.34 244.35 1340.97 399.262C1285.61 554.174 983.489 548.733 1107.05 352.309C1230.62 155.886 893.536 320.473 823.986 89.7118Z" stroke="white" stroke-width="2"/>
<path d="M883.517 111.356C840.727 -30.8576 969.675 -65.2983 1039.5 -64.7419C1170.16 -60.2336 1114.51 8.23598 1219.8 58.9779C1325.08 109.72 1216.44 125.995 1194.85 191.42C1173.26 256.845 1323.78 230.452 1281.18 349.794C1238.59 469.137 1006.19 464.962 1101.25 313.637C1196.31 162.312 937.004 289.123 883.517 111.356Z" stroke="white" stroke-width="2"/>
<path d="M768.873 69.4946C701.355 -154.767 904.804 -209.072 1014.97 -208.192C1221.12 -201.077 1133.32 -93.1082 1299.44 -13.0874C1465.56 66.9333 1294.15 92.593 1260.09 195.763C1226.04 298.932 1463.52 257.319 1396.31 445.511C1329.11 633.703 962.432 627.109 1112.41 388.485C1262.39 149.861 853.272 349.822 768.873 69.4946Z" stroke="white" stroke-width="2"/>
<path d="M722.568 52.7283C645.047 -204.359 878.579 -266.595 1005.04 -265.577C1241.67 -257.406 1140.9 -133.642 1331.59 -41.8982C1522.29 49.846 1325.53 79.2476 1286.44 197.513C1247.36 315.778 1519.95 268.093 1442.82 483.821C1365.69 699.549 944.794 691.962 1116.93 418.428C1289.08 144.894 819.469 374.087 722.568 52.7283Z" stroke="white" stroke-width="2"/>
<path d="M656.439 28.3459C564.678 -276.593 841.199 -350.441 990.93 -349.247C1271.12 -339.579 1151.79 -192.765 1377.57 -83.9612C1603.35 24.8424 1370.37 59.7383 1324.08 200.025C1277.79 340.311 1600.56 283.72 1509.22 539.617C1417.87 795.514 919.499 786.559 1123.35 462.085C1327.21 137.61 771.141 409.52 656.439 28.3459Z" stroke="white" stroke-width="2"/>
<path d="M579.293 -0.198204C470.928 -361.189 797.607 -448.648 974.492 -447.254C1305.5 -435.843 1164.5 -262.022 1431.22 -133.243C1697.93 -4.46462 1422.7 36.8762 1367.99 202.96C1313.29 369.044 1694.61 302.008 1586.66 604.963C1478.71 907.918 889.964 897.38 1130.83 513.225C1371.69 129.07 714.749 451.041 579.293 -0.198204Z" stroke="white" stroke-width="2"/>
</g>
</g>
</svg>
