<svg width="350" height="236" viewBox="0 0 350 236" fill="none" xmlns="http://www.w3.org/2000/svg">
<mask id="mask0_44_4232" style="mask-type:alpha" maskUnits="userSpaceOnUse" x="0" y="0" width="350" height="236">
<rect y="0.521484" width="350" height="235" rx="16" fill="#D9D9D9"/>
</mask>
<g mask="url(#mask0_44_4232)">
<g opacity="0.2">
<path d="M26.3527 286.094C-4.23608 184.604 87.9194 160.032 137.821 160.433C231.201 163.657 191.434 212.517 266.683 248.733C341.933 284.95 264.288 296.559 248.863 343.247C233.439 389.936 341.01 371.109 310.572 456.273C280.134 541.437 114.041 538.446 181.972 430.46C249.904 322.475 64.5886 412.958 26.3527 286.094Z" stroke="white" stroke-width="2"/>
<path d="M59.0804 297.994C35.5563 219.81 106.447 200.876 144.832 201.182C216.664 203.66 186.071 241.302 243.953 269.198C301.835 297.094 242.108 306.041 230.24 342.009C218.372 377.978 301.12 363.468 277.702 429.077C254.283 494.687 126.519 492.392 178.78 409.199C231.041 326.007 88.4855 395.723 59.0804 297.994Z" stroke="white" stroke-width="2"/>
<path d="M-3.9462 274.98C-41.0653 151.689 70.7831 121.835 131.347 122.319C244.681 126.23 196.414 185.587 287.74 229.58C379.066 273.572 284.83 287.678 266.107 344.397C247.384 401.116 377.941 378.238 340.995 481.699C304.048 585.159 102.465 581.534 184.918 450.348C267.371 319.162 42.4527 429.093 -3.9462 274.98Z" stroke="white" stroke-width="2"/>
<path d="M-29.403 265.762C-72.0209 124.426 56.3657 90.211 125.886 90.7705C255.98 95.2631 200.58 163.303 305.415 213.74C410.25 264.178 302.079 280.342 280.592 345.359C259.104 410.377 408.968 384.161 366.565 502.76C324.163 621.359 92.768 617.188 187.404 466.81C282.041 316.431 23.8694 442.433 -29.403 265.762Z" stroke="white" stroke-width="2"/>
<path d="M-65.7579 252.358C-116.205 84.7144 35.8155 44.116 118.132 44.7723C272.17 50.0874 206.565 130.8 330.691 190.616C454.816 250.432 326.734 269.616 301.284 346.74C275.835 423.864 453.284 392.752 403.065 533.434C352.845 674.116 78.8619 669.194 190.932 490.81C303.003 312.427 -2.69926 461.912 -65.7579 252.358Z" stroke="white" stroke-width="2"/>
<path d="M-108.17 236.666C-167.745 38.2071 11.8503 -9.87438 109.095 -9.10778C291.067 -2.83473 213.555 92.7251 360.184 163.523C506.812 234.32 355.499 257.048 325.425 348.354C295.35 439.66 504.985 402.807 445.64 569.359C386.296 735.912 62.625 730.119 195.042 518.925C327.459 307.732 -33.7016 484.739 -108.17 236.666Z" stroke="white" stroke-width="2"/>
</g>
</g>
</svg>
