<svg width="18" height="18" viewBox="0 0 18 18" fill="none" xmlns="http://www.w3.org/2000/svg">
<path d="M0.851286 1.87178C0.784343 1.80484 0.731242 1.72537 0.695013 1.6379C0.658784 1.55044 0.640137 1.45669 0.640137 1.36202C0.640137 1.26735 0.658784 1.17361 0.695013 1.08614C0.731242 0.998678 0.784343 0.919205 0.851286 0.852263C0.918229 0.78532 0.997701 0.732218 1.08517 0.695989C1.17263 0.65976 1.26638 0.641113 1.36105 0.641113C1.45572 0.641113 1.54946 0.65976 1.63693 0.695989C1.72439 0.732218 1.80386 0.78532 1.87081 0.852263L9.28105 8.26394L16.6913 0.852263C16.7582 0.78532 16.8377 0.732218 16.9252 0.695989C17.0126 0.65976 17.1064 0.641113 17.201 0.641113C17.2957 0.641113 17.3895 0.65976 17.4769 0.695989C17.5644 0.732218 17.6439 0.78532 17.7108 0.852263C17.7778 0.919205 17.8309 0.998678 17.8671 1.08614C17.9033 1.17361 17.922 1.26735 17.922 1.36202C17.922 1.45669 17.9033 1.55044 17.8671 1.6379C17.8309 1.72537 17.7778 1.80484 17.7108 1.87178L10.2991 9.28202L17.7108 16.6923C17.7778 16.7592 17.8309 16.8387 17.8671 16.9261C17.9033 17.0136 17.922 17.1074 17.922 17.202C17.922 17.2967 17.9033 17.3904 17.8671 17.4779C17.8309 17.5654 17.7778 17.6448 17.7108 17.7118C17.6439 17.7787 17.5644 17.8318 17.4769 17.8681C17.3895 17.9043 17.2957 17.9229 17.201 17.9229C17.1064 17.9229 17.0126 17.9043 16.9252 17.8681C16.8377 17.8318 16.7582 17.7787 16.6913 17.7118L9.28105 10.3001L1.87081 17.7118C1.80386 17.7787 1.72439 17.8318 1.63693 17.8681C1.54946 17.9043 1.45572 17.9229 1.36105 17.9229C1.26638 17.9229 1.17263 17.9043 1.08517 17.8681C0.997701 17.8318 0.918229 17.7787 0.851286 17.7118C0.784343 17.6448 0.731242 17.5654 0.695013 17.4779C0.658784 17.3904 0.640137 17.2967 0.640137 17.202C0.640137 17.1074 0.658784 17.0136 0.695013 16.9261C0.731242 16.8387 0.784343 16.7592 0.851286 16.6923L8.26297 9.28202L0.851286 1.87178Z" fill="white"/>
</svg>
