<svg width="109" height="109" viewBox="0 0 109 109" fill="none" xmlns="http://www.w3.org/2000/svg">
<path d="M103.784 31.1885C99.3349 21.7574 92.2882 13.8379 83.4106 8.28144C71.063 0.574805 56.4374 -1.87344 42.2589 1.40508C28.0804 4.6623 16.0095 13.2631 8.30283 25.6107C0.574899 37.9584 -1.87334 52.5627 1.40517 66.7625C4.68369 80.941 13.2845 93.0119 25.6108 100.719C34.2968 106.147 44.2601 109.021 54.4575 109.021H55.1175C65.2724 108.894 75.1505 105.956 83.7087 100.548C86.1995 98.9728 86.9233 95.6943 85.348 93.2035C83.7726 90.7127 80.494 89.9889 78.0032 91.5643C71.1269 95.9285 63.1647 98.2916 54.9897 98.398C46.6019 98.5045 38.4056 96.184 31.2524 91.7346C21.3104 85.5182 14.3915 75.8103 11.7729 64.3994C9.1331 52.9885 11.113 41.2369 17.3294 31.2949C30.1454 10.7936 57.2677 4.53457 77.769 17.3506C84.9222 21.8213 90.5851 28.1867 94.1616 35.7656C97.653 43.1529 99.0155 51.3492 98.1001 59.4391C97.7808 62.3557 99.8671 64.9955 102.805 65.3148C105.722 65.6342 108.361 63.5478 108.681 60.61C109.809 50.5402 108.106 40.3641 103.784 31.1885Z" fill="#B89FFF"/>
<path d="M72.0851 36.0211L46.4317 61.6957L36.9155 52.1795C34.8292 50.0932 31.4655 50.0932 29.3792 52.1795C27.2929 54.2658 27.2929 57.6295 29.3792 59.7158L42.6636 73.0002C43.7067 74.0434 45.0692 74.5543 46.4317 74.5543C47.7942 74.5543 49.1567 74.0434 50.1999 73.0002L79.6214 43.5574C81.7077 41.4711 81.7077 38.1074 79.6214 36.0211C77.5351 33.9348 74.1714 33.9348 72.0851 36.0211Z" fill="#B89FFF"/>
</svg>
