<svg width="22" height="23" viewBox="0 0 22 23" fill="none" xmlns="http://www.w3.org/2000/svg">
<path d="M15.1825 0.632812H6.82629C3.09879 0.632812 0.0712891 3.66031 0.0712891 7.38781V15.7441C0.0712891 19.4716 3.09879 22.4991 6.82629 22.4991H15.1825C18.91 22.4991 21.9375 19.4716 21.9375 15.7441V7.38781C21.9375 3.66031 18.91 0.632812 15.1825 0.632812ZM19.4963 15.7528C19.4963 18.1328 17.5625 20.0753 15.1738 20.0753H6.81754C4.43754 20.0753 2.49504 18.1416 2.49504 15.7528V7.39656C2.49504 5.01656 4.42879 3.07406 6.81754 3.07406H15.1738C17.5538 3.07406 19.4963 5.00781 19.4963 7.39656V15.7528Z" fill="#B89FFF"/>
<path d="M10.9999 5.979C7.91994 5.979 5.40869 8.49025 5.40869 11.5703C5.40869 14.6503 7.91994 17.1615 10.9999 17.1615C14.0799 17.1615 16.5912 14.6503 16.5912 11.5703C16.5912 8.49025 14.0799 5.979 10.9999 5.979ZM10.9999 14.9653C9.12744 14.9653 7.60494 13.4428 7.60494 11.5703C7.60494 9.69775 9.12744 8.17525 10.9999 8.17525C12.8724 8.17525 14.3949 9.69775 14.3949 11.5703C14.3949 13.4428 12.8724 14.9653 10.9999 14.9653Z" fill="#B89FFF"/>
<path d="M17.0171 6.59216C17.5322 6.50865 17.8821 6.02337 17.7986 5.50824C17.7151 4.99312 17.2298 4.64322 16.7147 4.72673C16.1996 4.81023 15.8497 5.29552 15.9332 5.81064C16.0167 6.32577 16.502 6.67566 17.0171 6.59216Z" fill="#B89FFF"/>
</svg>
