<svg width="23" height="19" viewBox="0 0 23 19" fill="none" xmlns="http://www.w3.org/2000/svg">
<path fill-rule="evenodd" clip-rule="evenodd" d="M2.05322 8.35924C7.88361 5.81901 11.7715 4.14432 13.7167 3.33526C19.271 1.0251 20.4251 0.623772 21.1773 0.610491C21.3427 0.6076 21.7127 0.648616 21.9523 0.843069C22.3077 1.13151 22.3098 1.7576 22.2703 2.17197C21.9693 5.33447 20.667 13.0089 20.0044 16.551C19.724 18.0497 19.172 18.5523 18.6376 18.6014C17.4762 18.7083 16.5942 17.8338 15.4693 17.0965C13.7091 15.9426 12.7146 15.2243 11.0059 14.0984C9.03134 12.7971 10.3114 12.082 11.4367 10.9131C11.7313 10.6073 16.8485 5.95268 16.9476 5.53041C16.96 5.4776 16.9715 5.28073 16.8545 5.17682C16.7376 5.07291 16.565 5.10838 16.4405 5.13666C16.2639 5.17674 13.4519 7.03541 8.00439 10.7126C7.20618 11.2607 6.48322 11.5278 5.83548 11.5138C5.12134 11.4984 3.74775 11.11 2.72657 10.7781C1.47407 10.371 0.478606 10.1556 0.565325 9.46424C0.610481 9.104 1.10642 8.73572 2.05322 8.35924Z" fill="#B89FFF"/>
</svg>
