<svg width="20" height="24" viewBox="0 0 20 24" fill="none" xmlns="http://www.w3.org/2000/svg">
<path d="M19.7177 9.04605C17.6867 9.12056 15.6927 8.48908 14.0748 7.25905V15.9328C14.0551 16.265 13.7643 19.9287 10.4545 21.9454C10.2909 22.0439 10.1263 22.1356 9.96165 22.2204C6.84796 23.8092 3.80523 22.5644 3.5046 22.4352C3.20569 22.3375 2.91921 22.2052 2.65102 22.041C2.56724 21.9887 2.48543 21.9345 2.40756 21.8783L2.33758 21.8261C0.307127 20.2845 0.223346 17.1442 0.210533 16.681C0.188835 15.7546 0.322091 14.8311 0.604796 13.9487C0.93992 12.8793 1.94036 11.0765 3.94618 9.97355C5.05295 9.37124 6.29677 9.06564 7.55665 9.08646V9.09336C7.54022 10.1349 7.52379 11.1767 7.50736 12.2189C7.29545 12.1617 5.99635 11.8345 4.72682 12.6338C3.93785 13.1417 3.37944 13.9386 3.17145 14.8535C3.047 15.2976 3.0201 15.7633 3.0926 16.2187C3.20515 16.781 3.47048 17.3014 3.85944 17.7228C4.02296 17.9111 4.20563 18.0819 4.40451 18.2324C4.41197 18.2388 4.41988 18.2448 4.42816 18.2501C4.58434 18.3706 4.75168 18.4759 4.92789 18.5646L4.93381 18.5695C5.28604 19.1014 5.79411 19.5113 6.3884 19.7432C6.9827 19.975 7.63415 20.0175 8.25351 19.8646C8.54207 19.8044 8.82236 19.7098 9.08836 19.5827C9.41054 19.4295 9.70579 19.2251 9.96264 18.9775C10.9601 18.0185 11.106 16.6918 11.1129 16.612L11.0695 0.359442L11.5032 0.350571L14.1083 0.299316H14.1458C14.1556 0.324944 14.1665 0.350571 14.1773 0.376198C14.2374 0.521089 14.3094 0.681752 14.3932 0.855228L14.4494 0.968579V0.97745C14.4485 0.980001 14.4485 0.982784 14.4494 0.985335L14.4582 1.00406L14.4671 1.0218C14.4724 1.03327 14.4784 1.04445 14.4848 1.05532C14.4908 1.06813 14.4977 1.08094 14.5046 1.09376C14.5499 1.18247 14.6031 1.27413 14.6514 1.36678C14.6879 1.43282 14.7263 1.49886 14.7658 1.56392L14.8081 1.6339L14.8722 1.73936L14.9511 1.86454C15.4019 2.5697 15.9423 3.21344 16.5587 3.77968C17.4582 4.60323 18.5048 5.24993 19.6438 5.68594H19.6517C19.6645 6.41631 19.6773 7.14866 19.6891 7.87903L19.7177 9.04605Z" fill="#B89FFF"/>
</svg>
