<svg width="22" height="16" viewBox="0 0 22 16" fill="none" xmlns="http://www.w3.org/2000/svg">
<path d="M17.5447 0.0463867H4.45521C3.93212 0.0463866 3.41416 0.149461 2.93092 0.349718C2.44768 0.549976 2.00864 0.843492 1.63888 1.21349C1.26912 1.5835 0.975896 2.02273 0.775958 2.5061C0.576019 2.98948 0.473288 3.50751 0.473634 4.0306V11.1095C0.473288 11.6326 0.576019 12.1507 0.775958 12.634C0.975896 13.1174 1.26912 13.5566 1.63888 13.9267C2.00864 14.2967 2.44768 14.5902 2.93092 14.7904C3.41416 14.9907 3.93212 15.0938 4.45521 15.0938H17.5447C18.0678 15.0938 18.5857 14.9907 19.069 14.7904C19.5522 14.5902 19.9913 14.2967 20.361 13.9267C20.7308 13.5566 21.024 13.1174 21.2239 12.634C21.4239 12.1507 21.5266 11.6326 21.5263 11.1095V4.0306C21.5266 3.50751 21.4239 2.98948 21.2239 2.5061C21.024 2.02273 20.7308 1.5835 20.361 1.21349C19.9913 0.843492 19.5522 0.549976 19.069 0.349718C18.5857 0.149461 18.0678 0.0463866 17.5447 0.0463867ZM8.22627 10.7964V4.34376L13.7736 7.57007L8.22627 10.7964Z" fill="#B89FFF"/>
</svg>
