<svg width="14" height="11" viewBox="0 0 14 11" fill="none" xmlns="http://www.w3.org/2000/svg">
<path d="M3.9731 10.3443L0.500097 6.87027C0.340782 6.71109 0.214398 6.52208 0.12817 6.31403C0.0419412 6.10598 -0.00244141 5.88298 -0.00244141 5.65777C-0.00244141 5.43256 0.0419412 5.20956 0.12817 5.00151C0.214398 4.79347 0.340782 4.60445 0.500097 4.44527C0.821836 4.12401 1.25792 3.94356 1.7126 3.94356C2.16727 3.94356 2.60336 4.12401 2.9251 4.44527L5.1001 6.61827C5.14394 6.66187 5.20326 6.68635 5.2651 6.68635C5.32693 6.68635 5.38625 6.66187 5.4301 6.61827L11.0701 0.978273C11.3918 0.657008 11.8279 0.476562 12.2826 0.476562C12.7373 0.476562 13.1734 0.657008 13.4951 0.978273C13.6544 1.13745 13.7808 1.32647 13.867 1.53451C13.9533 1.74256 13.9976 1.96556 13.9976 2.19077C13.9976 2.41598 13.9533 2.63898 13.867 2.84703C13.7808 3.05508 13.6544 3.24409 13.4951 3.40327L6.5551 10.3443C6.21267 10.6866 5.7483 10.8789 5.2641 10.8789C4.7799 10.8789 4.31552 10.6866 3.9731 10.3443Z" fill="#B89FFF"/>
</svg>
