<svg width="509" height="457" viewBox="0 0 509 457" fill="none" xmlns="http://www.w3.org/2000/svg">
<rect width="509" height="457" rx="16" fill="url(#paint0_linear_9_1542)"/>
<rect width="509" height="457" rx="16" fill="#D5C7FF"/>
<path d="M376 172.275V218.66C375.999 225.893 373.114 232.829 367.978 237.943C362.843 243.057 355.879 245.93 348.617 245.93H67.6199C61.6526 245.943 55.8458 244.005 51.0899 240.415C40.9445 247.351 31 249 31 249C31 249 40.2414 240.467 40.2414 218.66V172.275C40.2414 165.042 43.1257 158.105 48.2601 152.99C53.3945 147.875 60.3583 145.001 67.6199 145H348.617C355.88 145 362.845 147.874 367.98 152.989C373.115 158.103 376 165.041 376 172.275Z" fill="white"/>
<path d="M71.4297 179H67.1719V167.727H71.4453C73.375 167.727 74.6797 168.852 74.6797 170.539C74.6797 171.711 73.8203 172.805 72.7344 173V173.062C74.2656 173.258 75.25 174.336 75.25 175.836C75.25 177.82 73.8281 179 71.4297 179ZM68.5781 168.969V172.586H70.6875C72.3516 172.586 73.2578 171.922 73.2578 170.703C73.2578 169.586 72.4922 168.969 71.125 168.969H68.5781ZM68.5781 177.758H71.2188C72.9141 177.758 73.8047 177.07 73.8047 175.766C73.8047 174.461 72.8828 173.797 71.0859 173.797H68.5781V177.758ZM78.9531 175.414C78.7891 177.656 78.25 179.07 76.5391 179.07C76.3047 179.07 76.1484 179.023 76.0547 178.984V177.758C76.125 177.781 76.2734 177.82 76.4688 177.82C77.2734 177.82 77.5781 176.875 77.6797 175.383L77.9922 170.875H83.3125V179H81.9688V171.992H79.2031L78.9531 175.414ZM87.9219 177.984C89.2031 177.984 90.1875 177.086 90.1875 175.914V175.25L88.0156 175.383C86.9219 175.453 86.2969 175.938 86.2969 176.703C86.2969 177.477 86.9453 177.984 87.9219 177.984ZM87.6172 179.141C86 179.141 84.9141 178.164 84.9141 176.703C84.9141 175.312 85.9844 174.438 87.8594 174.328L90.1875 174.195V173.516C90.1875 172.523 89.5312 171.93 88.4062 171.93C87.3594 171.93 86.7031 172.422 86.5312 173.219H85.2188C85.3125 171.812 86.5156 170.734 88.4375 170.734C90.3438 170.734 91.5469 171.766 91.5469 173.383V179H90.2578V177.602H90.2266C89.7422 178.531 88.7109 179.141 87.6172 179.141ZM98.8125 177.883V171.992H95.7656L95.5156 175.414C95.4453 176.422 95.2344 177.305 94.8516 177.82V177.883H98.8125ZM93.8828 181.148H92.6172V177.883H93.2969C93.8906 177.492 94.1797 176.477 94.2578 175.383L94.5703 170.875H100.164V177.883H101.453V181.148H100.188V179H93.8828V181.148ZM109.328 179.141C107.078 179.141 105.562 177.523 105.562 174.938C105.562 172.344 107.078 170.734 109.328 170.734C111.57 170.734 113.086 172.344 113.086 174.938C113.086 177.523 111.57 179.141 109.328 179.141ZM109.328 177.945C110.766 177.945 111.703 176.852 111.703 174.938C111.703 173.023 110.766 171.93 109.328 171.93C107.891 171.93 106.945 173.023 106.945 174.938C106.945 176.852 107.891 177.945 109.328 177.945ZM118.078 179.141C115.586 179.141 114.273 177.469 114.273 174.242C114.273 169.758 115.461 167.891 118.617 167.773L119.219 167.75C120 167.711 120.875 167.555 121.336 167.312V168.5C121.078 168.734 120.219 168.938 119.281 168.977L118.68 169C116.422 169.086 115.75 170.078 115.422 172.508H115.484C116.016 171.547 117.031 171.047 118.281 171.047C120.477 171.047 121.875 172.594 121.875 175.016C121.875 177.57 120.43 179.141 118.078 179.141ZM118.078 177.938C119.602 177.938 120.484 176.883 120.484 175.016C120.484 173.242 119.602 172.234 118.078 172.234C116.547 172.234 115.664 173.242 115.664 175.016C115.664 176.883 116.547 177.938 118.078 177.938ZM127.484 179H124.609V171.992H122.43V170.875H125.953V173.469H127.484C129.352 173.469 130.547 174.539 130.547 176.234C130.547 177.93 129.352 179 127.484 179ZM127.469 174.586H125.953V177.883H127.469C128.523 177.883 129.203 177.227 129.203 176.234C129.203 175.234 128.516 174.586 127.469 174.586ZM134.875 174.992H136.43V171.992H134.875C133.82 171.992 133.148 172.57 133.148 173.547C133.148 174.391 133.828 174.992 134.875 174.992ZM136.43 179V176.109H134.992L132.93 179H131.375L133.641 175.859C132.492 175.531 131.797 174.688 131.797 173.57C131.797 171.898 133 170.875 134.867 170.875H137.773V179H136.43ZM146.414 173.375H145.07C144.836 172.594 144.172 171.93 143.023 171.93C141.609 171.93 140.68 173.125 140.68 174.938C140.68 176.797 141.625 177.945 143.039 177.945C144.117 177.945 144.828 177.414 145.086 176.516H146.43C146.164 178.055 144.859 179.141 143.031 179.141C140.773 179.141 139.297 177.523 139.297 174.938C139.297 172.406 140.766 170.734 143.016 170.734C144.977 170.734 146.172 171.992 146.414 173.375ZM153.195 179V175.344H149.188V179H147.844V170.875H149.188V174.227H153.195V170.875H154.539V179H153.195ZM159.375 174.992H160.93V171.992H159.375C158.32 171.992 157.648 172.57 157.648 173.547C157.648 174.391 158.328 174.992 159.375 174.992ZM160.93 179V176.109H159.492L157.43 179H155.875L158.141 175.859C156.992 175.531 156.297 174.688 156.297 173.57C156.297 171.898 157.5 170.875 159.367 170.875H162.273V179H160.93ZM167.453 171.914C166.18 171.914 165.289 172.891 165.203 174.242H169.617C169.586 172.883 168.734 171.914 167.453 171.914ZM169.586 176.672H170.922C170.688 178.094 169.312 179.141 167.539 179.141C165.211 179.141 163.797 177.523 163.797 174.969C163.797 172.445 165.234 170.734 167.477 170.734C169.672 170.734 171.023 172.328 171.023 174.789V175.305H165.195V175.383C165.195 176.938 166.109 177.961 167.57 177.961C168.602 177.961 169.359 177.438 169.586 176.672ZM178.164 170.875V171.992H175.539V179H174.195V171.992H171.57V170.875H178.164ZM182.531 171.914C181.258 171.914 180.367 172.891 180.281 174.242H184.695C184.664 172.883 183.812 171.914 182.531 171.914ZM184.664 176.672H186C185.766 178.094 184.391 179.141 182.617 179.141C180.289 179.141 178.875 177.523 178.875 174.969C178.875 172.445 180.312 170.734 182.555 170.734C184.75 170.734 186.102 172.328 186.102 174.789V175.305H180.273V175.383C180.273 176.938 181.188 177.961 182.648 177.961C183.68 177.961 184.438 177.438 184.664 176.672ZM194.18 171.977H192.234V174.25H193.977C195 174.25 195.492 173.875 195.492 173.094C195.492 172.375 195.031 171.977 194.18 171.977ZM194.086 175.344H192.234V177.898H194.328C195.312 177.898 195.844 177.453 195.844 176.633C195.844 175.766 195.273 175.344 194.086 175.344ZM190.891 179V170.875H194.367C195.891 170.875 196.82 171.664 196.82 172.953C196.82 173.781 196.234 174.547 195.484 174.703V174.766C196.508 174.906 197.18 175.648 197.18 176.664C197.18 178.102 196.117 179 194.391 179H190.891ZM205.461 173.375H204.117C203.883 172.594 203.219 171.93 202.07 171.93C200.656 171.93 199.727 173.125 199.727 174.938C199.727 176.797 200.672 177.945 202.086 177.945C203.164 177.945 203.875 177.414 204.133 176.516H205.477C205.211 178.055 203.906 179.141 202.078 179.141C199.82 179.141 198.344 177.523 198.344 174.938C198.344 172.406 199.812 170.734 202.062 170.734C204.023 170.734 205.219 171.992 205.461 173.375ZM210.156 171.914C208.883 171.914 207.992 172.891 207.906 174.242H212.32C212.289 172.883 211.438 171.914 210.156 171.914ZM212.289 176.672H213.625C213.391 178.094 212.016 179.141 210.242 179.141C207.914 179.141 206.5 177.523 206.5 174.969C206.5 172.445 207.938 170.734 210.18 170.734C212.375 170.734 213.727 172.328 213.727 174.789V175.305H207.898V175.383C207.898 176.938 208.812 177.961 210.273 177.961C211.305 177.961 212.062 177.438 212.289 176.672ZM223.906 177.883V171.992H220.859L220.609 175.414C220.539 176.422 220.328 177.305 219.945 177.82V177.883H223.906ZM218.977 181.148H217.711V177.883H218.391C218.984 177.492 219.273 176.477 219.352 175.383L219.664 170.875H225.258V177.883H226.547V181.148H225.281V179H218.977V181.148ZM231.141 179.141C228.891 179.141 227.375 177.523 227.375 174.938C227.375 172.344 228.891 170.734 231.141 170.734C233.383 170.734 234.898 172.344 234.898 174.938C234.898 177.523 233.383 179.141 231.141 179.141ZM231.141 177.945C232.578 177.945 233.516 176.852 233.516 174.938C233.516 173.023 232.578 171.93 231.141 171.93C229.703 171.93 228.758 173.023 228.758 174.938C228.758 176.852 229.703 177.945 231.141 177.945ZM243.133 173.375H241.789C241.555 172.594 240.891 171.93 239.742 171.93C238.328 171.93 237.398 173.125 237.398 174.938C237.398 176.797 238.344 177.945 239.758 177.945C240.836 177.945 241.547 177.414 241.805 176.516H243.148C242.883 178.055 241.578 179.141 239.75 179.141C237.492 179.141 236.016 177.523 236.016 174.938C236.016 172.406 237.484 170.734 239.734 170.734C241.695 170.734 242.891 171.992 243.133 173.375ZM250.352 170.875V171.992H247.727V179H246.383V171.992H243.758V170.875H250.352ZM252.289 182.039C252.125 182.039 251.852 182.023 251.703 181.992V180.852C251.852 180.883 252.062 180.891 252.234 180.891C252.992 180.891 253.414 180.523 253.727 179.578L253.914 179.008L250.914 170.875H252.367L254.617 177.641H254.641L256.891 170.875H258.32L255.125 179.57C254.43 181.469 253.758 182.039 252.289 182.039ZM264.805 179V171.992H260.875V179H259.531V170.875H266.156V179H264.805ZM273.414 179V175.344H269.406V179H268.062V170.875H269.406V174.227H273.414V170.875H274.758V179H273.414ZM280.047 179.141C277.797 179.141 276.281 177.523 276.281 174.938C276.281 172.344 277.797 170.734 280.047 170.734C282.289 170.734 283.805 172.344 283.805 174.938C283.805 177.523 282.289 179.141 280.047 179.141ZM280.047 177.945C281.484 177.945 282.422 176.852 282.422 174.938C282.422 173.023 281.484 171.93 280.047 171.93C278.609 171.93 277.664 173.023 277.664 174.938C277.664 176.852 278.609 177.945 280.047 177.945ZM289.938 179H288.594V170.875H289.938V176.922H290L294.062 170.875H295.406V179H294.062V172.953H294L289.938 179ZM306.789 179H305.445V175.492H305.328C304.891 175.867 304.242 176.125 303.359 176.125C301.414 176.125 300.391 174.945 300.391 173.211V170.875H301.734V173.195C301.734 174.258 302.305 174.938 303.398 174.938C304.406 174.938 305.07 174.562 305.445 174.141V170.875H306.789V179ZM311.969 171.914C310.695 171.914 309.805 172.891 309.719 174.242H314.133C314.102 172.883 313.25 171.914 311.969 171.914ZM314.102 176.672H315.438C315.203 178.094 313.828 179.141 312.055 179.141C309.727 179.141 308.312 177.523 308.312 174.969C308.312 172.445 309.75 170.734 311.992 170.734C314.188 170.734 315.539 172.328 315.539 174.789V175.305H309.711V175.383C309.711 176.938 310.625 177.961 312.086 177.961C313.117 177.961 313.875 177.438 314.102 176.672ZM322.68 170.875V171.992H320.055V179H318.711V171.992H316.086V170.875H322.68ZM326.695 174.719L330.602 179H328.852L325.344 175.094H325.281V179H323.938V170.875H325.281V174.469H325.344L328.812 170.875H330.492L326.695 174.719ZM334.953 179.141C332.703 179.141 331.188 177.523 331.188 174.938C331.188 172.344 332.703 170.734 334.953 170.734C337.195 170.734 338.711 172.344 338.711 174.938C338.711 177.523 337.195 179.141 334.953 179.141ZM334.953 177.945C336.391 177.945 337.328 176.852 337.328 174.938C337.328 173.023 336.391 171.93 334.953 171.93C333.516 171.93 332.57 173.023 332.57 174.938C332.57 176.852 333.516 177.945 334.953 177.945ZM72.3047 203V199.344H68.2969V203H66.9531V194.875H68.2969V198.227H72.3047V194.875H73.6484V203H72.3047ZM78.8281 195.914C77.5547 195.914 76.6641 196.891 76.5781 198.242H80.9922C80.9609 196.883 80.1094 195.914 78.8281 195.914ZM80.9609 200.672H82.2969C82.0625 202.094 80.6875 203.141 78.9141 203.141C76.5859 203.141 75.1719 201.523 75.1719 198.969C75.1719 196.445 76.6094 194.734 78.8516 194.734C81.0469 194.734 82.3984 196.328 82.3984 198.789V199.305H76.5703V199.383C76.5703 200.938 77.4844 201.961 78.9453 201.961C79.9766 201.961 80.7344 201.438 80.9609 200.672ZM89.5391 194.875V195.992H86.9141V203H85.5703V195.992H82.9453V194.875H89.5391ZM96.25 199.414C96.0859 201.656 95.5469 203.07 93.8359 203.07C93.6016 203.07 93.4453 203.023 93.3516 202.984V201.758C93.4219 201.781 93.5703 201.82 93.7656 201.82C94.5703 201.82 94.875 200.875 94.9766 199.383L95.2891 194.875H100.609V203H99.2656V195.992H96.5L96.25 199.414ZM103.875 203H102.531V194.875H103.875V200.922H103.938L108 194.875H109.344V203H108V196.953H107.938L103.875 203ZM111.25 203V194.875H112.594V201.883H115.594V194.875H116.938V201.883H119.938V194.875H121.281V203H111.25ZM128.539 203V199.344H124.531V203H123.188V194.875H124.531V198.227H128.539V194.875H129.883V203H128.539ZM133.141 203H131.797V194.875H133.141V200.922H133.203L137.266 194.875H138.609V203H137.266V196.953H137.203L133.141 203ZM143.398 199.906H143.367L141.406 203H139.898L142.664 198.938L139.945 194.875H141.461L143.414 197.922H143.445L145.375 194.875H146.891L144.148 198.883L146.852 203H145.344L143.398 199.906ZM151.984 198.562C151.984 195.844 152.703 193.633 154.203 191.727H155.344C154.234 193.016 153.367 196.008 153.367 198.562C153.367 201.117 154.234 204.109 155.344 205.398H154.203C152.703 203.492 151.984 201.281 151.984 198.562ZM157.953 203H156.609V194.875H157.953V200.922H158.016L162.078 194.875H163.422V203H162.078V196.953H162.016L157.953 203ZM173.961 203V199.344H169.953V203H168.609V194.875H169.953V198.227H173.961V194.875H175.305V203H173.961ZM180.484 195.914C179.211 195.914 178.32 196.891 178.234 198.242H182.648C182.617 196.883 181.766 195.914 180.484 195.914ZM182.617 200.672H183.953C183.719 202.094 182.344 203.141 180.57 203.141C178.242 203.141 176.828 201.523 176.828 198.969C176.828 196.445 178.266 194.734 180.508 194.734C182.703 194.734 184.055 196.328 184.055 198.789V199.305H178.227V199.383C178.227 200.938 179.141 201.961 180.602 201.961C181.633 201.961 182.391 201.438 182.617 200.672ZM190.914 203V199.344H186.906V203H185.562V194.875H186.906V198.227H190.914V194.875H192.258V203H190.914ZM194.852 206.039C194.688 206.039 194.414 206.023 194.266 205.992V204.852C194.414 204.883 194.625 204.891 194.797 204.891C195.555 204.891 195.977 204.523 196.289 203.578L196.477 203.008L193.477 194.875H194.93L197.18 201.641H197.203L199.453 194.875H200.883L197.688 203.57C196.992 205.469 196.32 206.039 194.852 206.039ZM208.977 198.719L212.648 203H210.906L207.625 199.094H207.562V203H206.219V199.094H206.164L202.883 203H201.164L204.812 198.742L201.25 194.875H202.922L206.164 198.469H206.219V194.875H207.562V198.469H207.625L210.867 194.875H212.523L208.977 198.719ZM219.148 203V199.344H215.141V203H213.797V194.875H215.141V198.227H219.148V194.875H220.492V203H219.148ZM229.359 203V194.875H230.703V203H229.359ZM225.266 198.586H223.75V201.883H225.266C226.32 201.883 227 201.227 227 200.234C227 199.234 226.312 198.586 225.266 198.586ZM222.406 203V194.875H223.75V197.469H225.289C227.148 197.469 228.344 198.539 228.344 200.234C228.344 201.93 227.148 203 225.289 203H222.406ZM235.492 199.906H235.461L233.5 203H231.992L234.758 198.938L232.039 194.875H233.555L235.508 197.922H235.539L237.469 194.875H238.984L236.242 198.883L238.945 203H237.438L235.492 199.906ZM249.492 194.875V195.992H246.867V203H245.523V195.992H242.898V194.875H249.492ZM253.859 195.914C252.586 195.914 251.695 196.891 251.609 198.242H256.023C255.992 196.883 255.141 195.914 253.859 195.914ZM255.992 200.672H257.328C257.094 202.094 255.719 203.141 253.945 203.141C251.617 203.141 250.203 201.523 250.203 198.969C250.203 196.445 251.641 194.734 253.883 194.734C256.078 194.734 257.43 196.328 257.43 198.789V199.305H251.602V199.383C251.602 200.938 252.516 201.961 253.977 201.961C255.008 201.961 255.766 201.438 255.992 200.672ZM261.695 198.719L265.602 203H263.852L260.344 199.094H260.281V203H258.938V194.875H260.281V198.469H260.344L263.812 194.875H265.492L261.695 198.719ZM273.305 197.375H271.961C271.727 196.594 271.062 195.93 269.914 195.93C268.5 195.93 267.57 197.125 267.57 198.938C267.57 200.797 268.516 201.945 269.93 201.945C271.008 201.945 271.719 201.414 271.977 200.516H273.32C273.055 202.055 271.75 203.141 269.922 203.141C267.664 203.141 266.188 201.523 266.188 198.938C266.188 196.406 267.656 194.734 269.906 194.734C271.867 194.734 273.062 195.992 273.305 197.375ZM280.523 194.875V195.992H277.898V203H276.555V195.992H273.93V194.875H280.523ZM285 203.141C282.75 203.141 281.234 201.523 281.234 198.938C281.234 196.344 282.75 194.734 285 194.734C287.242 194.734 288.758 196.344 288.758 198.938C288.758 201.523 287.242 203.141 285 203.141ZM285 201.945C286.438 201.945 287.375 200.852 287.375 198.938C287.375 197.023 286.438 195.93 285 195.93C283.562 195.93 282.617 197.023 282.617 198.938C282.617 200.852 283.562 201.945 285 201.945ZM293.555 195.977H291.609V198.25H293.352C294.375 198.25 294.867 197.875 294.867 197.094C294.867 196.375 294.406 195.977 293.555 195.977ZM293.461 199.344H291.609V201.898H293.703C294.688 201.898 295.219 201.453 295.219 200.633C295.219 199.766 294.648 199.344 293.461 199.344ZM290.266 203V194.875H293.742C295.266 194.875 296.195 195.664 296.195 196.953C296.195 197.781 295.609 198.547 294.859 198.703V198.766C295.883 198.906 296.555 199.648 296.555 200.664C296.555 202.102 295.492 203 293.766 203H290.266ZM300.75 198.562C300.75 202.133 299.562 204.086 298.531 205.398H297.391C298.078 204.602 299.367 202.102 299.367 198.562C299.367 195.023 298.07 192.516 297.391 191.727H298.531C299.562 193.039 300.75 194.992 300.75 198.562ZM309.758 195.977H307.812V198.25H309.555C310.578 198.25 311.07 197.875 311.07 197.094C311.07 196.375 310.609 195.977 309.758 195.977ZM309.664 199.344H307.812V201.898H309.906C310.891 201.898 311.422 201.453 311.422 200.633C311.422 199.766 310.852 199.344 309.664 199.344ZM306.469 203V194.875H309.945C311.469 194.875 312.398 195.664 312.398 196.953C312.398 197.781 311.812 198.547 311.062 198.703V198.766C312.086 198.906 312.758 199.648 312.758 200.664C312.758 202.102 311.695 203 309.969 203H306.469ZM317 201.984C318.281 201.984 319.266 201.086 319.266 199.914V199.25L317.094 199.383C316 199.453 315.375 199.938 315.375 200.703C315.375 201.477 316.023 201.984 317 201.984ZM316.695 203.141C315.078 203.141 313.992 202.164 313.992 200.703C313.992 199.312 315.062 198.438 316.938 198.328L319.266 198.195V197.516C319.266 196.523 318.609 195.93 317.484 195.93C316.438 195.93 315.781 196.422 315.609 197.219H314.297C314.391 195.812 315.594 194.734 317.516 194.734C319.422 194.734 320.625 195.766 320.625 197.383V203H319.336V201.602H319.305C318.82 202.531 317.789 203.141 316.695 203.141ZM322.5 203V194.875H323.844V201.883H326.844V194.875H328.188V201.883H331.188V194.875H332.531V203H322.5ZM337.703 195.914C336.43 195.914 335.539 196.891 335.453 198.242H339.867C339.836 196.883 338.984 195.914 337.703 195.914ZM339.836 200.672H341.172C340.938 202.094 339.562 203.141 337.789 203.141C335.461 203.141 334.047 201.523 334.047 198.969C334.047 196.445 335.484 194.734 337.727 194.734C339.922 194.734 341.273 196.328 341.273 198.789V199.305H335.445V199.383C335.445 200.938 336.359 201.961 337.82 201.961C338.852 201.961 339.609 201.438 339.836 200.672ZM70.3281 227.141C68.0781 227.141 66.5625 225.523 66.5625 222.938C66.5625 220.344 68.0781 218.734 70.3281 218.734C72.5703 218.734 74.0859 220.344 74.0859 222.938C74.0859 225.523 72.5703 227.141 70.3281 227.141ZM70.3281 225.945C71.7656 225.945 72.7031 224.852 72.7031 222.938C72.7031 221.023 71.7656 219.93 70.3281 219.93C68.8906 219.93 67.9453 221.023 67.9453 222.938C67.9453 224.852 68.8906 225.945 70.3281 225.945ZM79.0781 227.141C76.5859 227.141 75.2734 225.469 75.2734 222.242C75.2734 217.758 76.4609 215.891 79.6172 215.773L80.2188 215.75C81 215.711 81.875 215.555 82.3359 215.312V216.5C82.0781 216.734 81.2188 216.938 80.2812 216.977L79.6797 217C77.4219 217.086 76.75 218.078 76.4219 220.508H76.4844C77.0156 219.547 78.0312 219.047 79.2812 219.047C81.4766 219.047 82.875 220.594 82.875 223.016C82.875 225.57 81.4297 227.141 79.0781 227.141ZM79.0781 225.938C80.6016 225.938 81.4844 224.883 81.4844 223.016C81.4844 221.242 80.6016 220.234 79.0781 220.234C77.5469 220.234 76.6641 221.242 76.6641 223.016C76.6641 224.883 77.5469 225.938 79.0781 225.938ZM84.8359 230.039C84.6719 230.039 84.3984 230.023 84.25 229.992V228.852C84.3984 228.883 84.6094 228.891 84.7812 228.891C85.5391 228.891 85.9609 228.523 86.2734 227.578L86.4609 227.008L83.4609 218.875H84.9141L87.1641 225.641H87.1875L89.4375 218.875H90.8672L87.6719 227.57C86.9766 229.469 86.3047 230.039 84.8359 230.039ZM98.2734 227H96.9297V223.492H96.8125C96.375 223.867 95.7266 224.125 94.8438 224.125C92.8984 224.125 91.875 222.945 91.875 221.211V218.875H93.2188V221.195C93.2188 222.258 93.7891 222.938 94.8828 222.938C95.8906 222.938 96.5547 222.562 96.9297 222.141V218.875H98.2734V227ZM103.453 219.914C102.18 219.914 101.289 220.891 101.203 222.242H105.617C105.586 220.883 104.734 219.914 103.453 219.914ZM105.586 224.672H106.922C106.688 226.094 105.312 227.141 103.539 227.141C101.211 227.141 99.7969 225.523 99.7969 222.969C99.7969 220.445 101.234 218.734 103.477 218.734C105.672 218.734 107.023 220.328 107.023 222.789V223.305H101.195V223.383C101.195 224.938 102.109 225.961 103.57 225.961C104.602 225.961 105.359 225.438 105.586 224.672ZM113.883 227V223.344H109.875V227H108.531V218.875H109.875V222.227H113.883V218.875H115.227V227H113.883ZM118.484 227H117.141V218.875H118.484V224.922H118.547L122.609 218.875H123.953V227H122.609V220.953H122.547L118.484 227ZM129.125 219.914C127.852 219.914 126.961 220.891 126.875 222.242H131.289C131.258 220.883 130.406 219.914 129.125 219.914ZM131.258 224.672H132.594C132.359 226.094 130.984 227.141 129.211 227.141C126.883 227.141 125.469 225.523 125.469 222.969C125.469 220.445 126.906 218.734 129.148 218.734C131.344 218.734 132.695 220.328 132.695 222.789V223.305H126.867V223.383C126.867 224.938 127.781 225.961 129.242 225.961C130.273 225.961 131.031 225.438 131.258 224.672ZM138.828 227H137.484V218.875H139.133L142.023 225.203H142.086L144.992 218.875H146.578V227H145.227V221.234H145.172L142.547 226.766H141.508L138.883 221.234H138.828V227ZM151.75 219.914C150.477 219.914 149.586 220.891 149.5 222.242H153.914C153.883 220.883 153.031 219.914 151.75 219.914ZM153.883 224.672H155.219C154.984 226.094 153.609 227.141 151.836 227.141C149.508 227.141 148.094 225.523 148.094 222.969C148.094 220.445 149.531 218.734 151.773 218.734C153.969 218.734 155.32 220.328 155.32 222.789V223.305H149.492V223.383C149.492 224.938 150.406 225.961 151.867 225.961C152.898 225.961 153.656 225.438 153.883 224.672ZM162.18 227V223.344H158.172V227H156.828V218.875H158.172V222.227H162.18V218.875H163.523V227H162.18ZM168.359 222.992H169.914V219.992H168.359C167.305 219.992 166.633 220.57 166.633 221.547C166.633 222.391 167.312 222.992 168.359 222.992ZM169.914 227V224.109H168.477L166.414 227H164.859L167.125 223.859C165.977 223.531 165.281 222.688 165.281 221.57C165.281 219.898 166.484 218.875 168.352 218.875H171.258V227H169.914ZM179.164 227.141C177.383 227.141 176.094 226.266 175.953 224.891H177.328C177.484 225.602 178.156 226.016 179.164 226.016C180.344 226.016 181 225.453 181 224.664C181 223.75 180.391 223.336 179.164 223.336H177.945V222.227H179.164C180.195 222.227 180.727 221.836 180.727 221.039C180.727 220.359 180.242 219.867 179.195 219.867C178.234 219.867 177.562 220.281 177.453 220.93H176.133C176.305 219.586 177.477 218.734 179.195 218.734C181.047 218.734 182.055 219.625 182.055 220.93C182.055 221.758 181.523 222.492 180.711 222.68V222.742C181.781 222.977 182.336 223.664 182.336 224.602C182.336 226.117 181.07 227.141 179.164 227.141ZM186.578 225.984C187.859 225.984 188.844 225.086 188.844 223.914V223.25L186.672 223.383C185.578 223.453 184.953 223.938 184.953 224.703C184.953 225.477 185.602 225.984 186.578 225.984ZM186.273 227.141C184.656 227.141 183.57 226.164 183.57 224.703C183.57 223.312 184.641 222.438 186.516 222.328L188.844 222.195V221.516C188.844 220.523 188.188 219.93 187.062 219.93C186.016 219.93 185.359 220.422 185.188 221.219H183.875C183.969 219.812 185.172 218.734 187.094 218.734C189 218.734 190.203 219.766 190.203 221.383V227H188.914V225.602H188.883C188.398 226.531 187.367 227.141 186.273 227.141ZM193.422 227H192.078V218.875H193.422V224.922H193.484L197.547 218.875H198.891V227H197.547V220.953H197.484L193.422 227ZM206.148 227V223.344H202.141V227H200.797V218.875H202.141V222.227H206.148V218.875H207.492V227H206.148ZM215.352 218.875V219.992H212.727V227H211.383V219.992H208.758V218.875H215.352ZM219.719 219.914C218.445 219.914 217.555 220.891 217.469 222.242H221.883C221.852 220.883 221 219.914 219.719 219.914ZM221.852 224.672H223.188C222.953 226.094 221.578 227.141 219.805 227.141C217.477 227.141 216.062 225.523 216.062 222.969C216.062 220.445 217.5 218.734 219.742 218.734C221.938 218.734 223.289 220.328 223.289 222.789V223.305H217.461V223.383C217.461 224.938 218.375 225.961 219.836 225.961C220.867 225.961 221.625 225.438 221.852 224.672ZM228.75 218.734C230.82 218.734 232.227 220.391 232.227 222.938C232.227 225.484 230.828 227.141 228.781 227.141C227.617 227.141 226.68 226.57 226.195 225.68H226.164V229.711H224.805V218.875H226.094V220.25H226.125C226.625 219.336 227.57 218.734 228.75 218.734ZM228.484 225.945C229.93 225.945 230.836 224.781 230.836 222.938C230.836 221.102 229.93 219.93 228.484 219.93C227.094 219.93 226.156 221.133 226.156 222.938C226.156 224.75 227.094 225.945 228.484 225.945ZM237 219.914C235.727 219.914 234.836 220.891 234.75 222.242H239.164C239.133 220.883 238.281 219.914 237 219.914ZM239.133 224.672H240.469C240.234 226.094 238.859 227.141 237.086 227.141C234.758 227.141 233.344 225.523 233.344 222.969C233.344 220.445 234.781 218.734 237.023 218.734C239.219 218.734 240.57 220.328 240.57 222.789V223.305H234.742V223.383C234.742 224.938 235.656 225.961 237.117 225.961C238.148 225.961 238.906 225.438 239.133 224.672ZM248.805 221.375H247.461C247.227 220.594 246.562 219.93 245.414 219.93C244 219.93 243.07 221.125 243.07 222.938C243.07 224.797 244.016 225.945 245.43 225.945C246.508 225.945 247.219 225.414 247.477 224.516H248.82C248.555 226.055 247.25 227.141 245.422 227.141C243.164 227.141 241.688 225.523 241.688 222.938C241.688 220.406 243.156 218.734 245.406 218.734C247.367 218.734 248.562 219.992 248.805 221.375ZM253.609 227.141C251.359 227.141 249.844 225.523 249.844 222.938C249.844 220.344 251.359 218.734 253.609 218.734C255.852 218.734 257.367 220.344 257.367 222.938C257.367 225.523 255.852 227.141 253.609 227.141ZM253.609 225.945C255.047 225.945 255.984 224.852 255.984 222.938C255.984 221.023 255.047 219.93 253.609 219.93C252.172 219.93 251.227 221.023 251.227 222.938C251.227 224.852 252.172 225.945 253.609 225.945ZM262.164 219.977H260.219V222.25H261.961C262.984 222.25 263.477 221.875 263.477 221.094C263.477 220.375 263.016 219.977 262.164 219.977ZM262.07 223.344H260.219V225.898H262.312C263.297 225.898 263.828 225.453 263.828 224.633C263.828 223.766 263.258 223.344 262.07 223.344ZM258.875 227V218.875H262.352C263.875 218.875 264.805 219.664 264.805 220.953C264.805 221.781 264.219 222.547 263.469 222.703V222.766C264.492 222.906 265.164 223.648 265.164 224.664C265.164 226.102 264.102 227 262.375 227H258.875ZM269.406 225.984C270.688 225.984 271.672 225.086 271.672 223.914V223.25L269.5 223.383C268.406 223.453 267.781 223.938 267.781 224.703C267.781 225.477 268.43 225.984 269.406 225.984ZM269.102 227.141C267.484 227.141 266.398 226.164 266.398 224.703C266.398 223.312 267.469 222.438 269.344 222.328L271.672 222.195V221.516C271.672 220.523 271.016 219.93 269.891 219.93C268.844 219.93 268.188 220.422 268.016 221.219H266.703C266.797 219.812 268 218.734 269.922 218.734C271.828 218.734 273.031 219.766 273.031 221.383V227H271.742V225.602H271.711C271.227 226.531 270.195 227.141 269.102 227.141ZM277.078 223.414C276.914 225.656 276.375 227.07 274.664 227.07C274.43 227.07 274.273 227.023 274.18 226.984V225.758C274.25 225.781 274.398 225.82 274.594 225.82C275.398 225.82 275.703 224.875 275.805 223.383L276.117 218.875H281.438V227H280.094V219.992H277.328L277.078 223.414ZM286.734 227.141C284.484 227.141 282.969 225.523 282.969 222.938C282.969 220.344 284.484 218.734 286.734 218.734C288.977 218.734 290.492 220.344 290.492 222.938C290.492 225.523 288.977 227.141 286.734 227.141ZM286.734 225.945C288.172 225.945 289.109 224.852 289.109 222.938C289.109 221.023 288.172 219.93 286.734 219.93C285.297 219.93 284.352 221.023 284.352 222.938C284.352 224.852 285.297 225.945 286.734 225.945Z" fill="#282828"/>
<g clip-path="url(#clip0_9_1542)">
<path d="M163 283.591C163 290.643 165.796 297.407 170.774 302.394C175.751 307.381 182.502 310.184 189.542 310.185L442.994 310.218C448.638 310.224 454.137 308.421 458.685 305.072C464.516 309.006 471.089 311.7 478 312.989C478 312.989 469.562 304.775 469.562 283.587C469.556 276.534 466.755 269.771 461.775 264.786C456.795 259.8 450.042 257 443.002 257H189.542C182.503 257 175.752 259.801 170.774 264.788C165.796 269.775 163 276.538 163 283.591Z" fill="#B89FFF"/>
<path d="M205.812 290.188C202.703 290.188 200.734 287.93 200.734 284.359C200.734 280.82 202.727 278.539 205.812 278.539C208.211 278.539 210.047 279.961 210.461 282.125H209.023C208.617 280.734 207.359 279.836 205.812 279.836C203.609 279.836 202.18 281.617 202.18 284.359C202.18 287.125 203.594 288.891 205.82 288.891C207.422 288.891 208.578 288.148 209.023 286.859H210.461C209.906 289 208.25 290.188 205.812 290.188ZM217.336 290V282.992H213.406V290H212.062V281.875H218.688V290H217.336ZM223.281 288.984C224.562 288.984 225.547 288.086 225.547 286.914V286.25L223.375 286.383C222.281 286.453 221.656 286.938 221.656 287.703C221.656 288.477 222.305 288.984 223.281 288.984ZM222.977 290.141C221.359 290.141 220.273 289.164 220.273 287.703C220.273 286.312 221.344 285.438 223.219 285.328L225.547 285.195V284.516C225.547 283.523 224.891 282.93 223.766 282.93C222.719 282.93 222.062 283.422 221.891 284.219H220.578C220.672 282.812 221.875 281.734 223.797 281.734C225.703 281.734 226.906 282.766 226.906 284.383V290H225.617V288.602H225.586C225.102 289.531 224.07 290.141 222.977 290.141ZM235.508 284.375H234.164C233.93 283.594 233.266 282.93 232.117 282.93C230.703 282.93 229.773 284.125 229.773 285.938C229.773 287.797 230.719 288.945 232.133 288.945C233.211 288.945 233.922 288.414 234.18 287.516H235.523C235.258 289.055 233.953 290.141 232.125 290.141C229.867 290.141 228.391 288.523 228.391 285.938C228.391 283.406 229.859 281.734 232.109 281.734C234.07 281.734 235.266 282.992 235.508 284.375ZM238.281 290H236.938V281.875H238.281V287.922H238.344L242.406 281.875H243.75V290H242.406V283.953H242.344L238.281 290ZM249.141 290.141C246.648 290.141 245.336 288.469 245.336 285.242C245.336 280.758 246.523 278.891 249.68 278.773L250.281 278.75C251.062 278.711 251.938 278.555 252.398 278.312V279.5C252.141 279.734 251.281 279.938 250.344 279.977L249.742 280C247.484 280.086 246.812 281.078 246.484 283.508H246.547C247.078 282.547 248.094 282.047 249.344 282.047C251.539 282.047 252.938 283.594 252.938 286.016C252.938 288.57 251.492 290.141 249.141 290.141ZM249.141 288.938C250.664 288.938 251.547 287.883 251.547 286.016C251.547 284.242 250.664 283.234 249.141 283.234C247.609 283.234 246.727 284.242 246.727 286.016C246.727 287.883 247.609 288.938 249.141 288.938ZM257.828 290.141C255.578 290.141 254.062 288.523 254.062 285.938C254.062 283.344 255.578 281.734 257.828 281.734C260.07 281.734 261.586 283.344 261.586 285.938C261.586 288.523 260.07 290.141 257.828 290.141ZM257.828 288.945C259.266 288.945 260.203 287.852 260.203 285.938C260.203 284.023 259.266 282.93 257.828 282.93C256.391 282.93 255.445 284.023 255.445 285.938C255.445 287.852 256.391 288.945 257.828 288.945ZM269.086 290.141C267.305 290.141 266.016 289.266 265.875 287.891H267.25C267.406 288.602 268.078 289.016 269.086 289.016C270.266 289.016 270.922 288.453 270.922 287.664C270.922 286.75 270.312 286.336 269.086 286.336H267.867V285.227H269.086C270.117 285.227 270.648 284.836 270.648 284.039C270.648 283.359 270.164 282.867 269.117 282.867C268.156 282.867 267.484 283.281 267.375 283.93H266.055C266.227 282.586 267.398 281.734 269.117 281.734C270.969 281.734 271.977 282.625 271.977 283.93C271.977 284.758 271.445 285.492 270.633 285.68V285.742C271.703 285.977 272.258 286.664 272.258 287.602C272.258 289.117 270.992 290.141 269.086 290.141ZM276.5 288.984C277.781 288.984 278.766 288.086 278.766 286.914V286.25L276.594 286.383C275.5 286.453 274.875 286.938 274.875 287.703C274.875 288.477 275.523 288.984 276.5 288.984ZM276.195 290.141C274.578 290.141 273.492 289.164 273.492 287.703C273.492 286.312 274.562 285.438 276.438 285.328L278.766 285.195V284.516C278.766 283.523 278.109 282.93 276.984 282.93C275.938 282.93 275.281 283.422 275.109 284.219H273.797C273.891 282.812 275.094 281.734 277.016 281.734C278.922 281.734 280.125 282.766 280.125 284.383V290H278.836V288.602H278.805C278.32 289.531 277.289 290.141 276.195 290.141ZM288.656 290.141C286.406 290.141 284.891 288.523 284.891 285.938C284.891 283.344 286.406 281.734 288.656 281.734C290.898 281.734 292.414 283.344 292.414 285.938C292.414 288.523 290.898 290.141 288.656 290.141ZM288.656 288.945C290.094 288.945 291.031 287.852 291.031 285.938C291.031 284.023 290.094 282.93 288.656 282.93C287.219 282.93 286.273 284.023 286.273 285.938C286.273 287.852 287.219 288.945 288.656 288.945ZM297.406 290.141C294.914 290.141 293.602 288.469 293.602 285.242C293.602 280.758 294.789 278.891 297.945 278.773L298.547 278.75C299.328 278.711 300.203 278.555 300.664 278.312V279.5C300.406 279.734 299.547 279.938 298.609 279.977L298.008 280C295.75 280.086 295.078 281.078 294.75 283.508H294.812C295.344 282.547 296.359 282.047 297.609 282.047C299.805 282.047 301.203 283.594 301.203 286.016C301.203 288.57 299.758 290.141 297.406 290.141ZM297.406 288.938C298.93 288.938 299.812 287.883 299.812 286.016C299.812 284.242 298.93 283.234 297.406 283.234C295.875 283.234 294.992 284.242 294.992 286.016C294.992 287.883 295.875 288.938 297.406 288.938ZM306.672 281.734C308.742 281.734 310.148 283.391 310.148 285.938C310.148 288.484 308.75 290.141 306.703 290.141C305.539 290.141 304.602 289.57 304.117 288.68H304.086V292.711H302.727V281.875H304.016V283.25H304.047C304.547 282.336 305.492 281.734 306.672 281.734ZM306.406 288.945C307.852 288.945 308.758 287.781 308.758 285.938C308.758 284.102 307.852 282.93 306.406 282.93C305.016 282.93 304.078 284.133 304.078 285.938C304.078 287.75 305.016 288.945 306.406 288.945ZM314.344 288.984C315.625 288.984 316.609 288.086 316.609 286.914V286.25L314.438 286.383C313.344 286.453 312.719 286.938 312.719 287.703C312.719 288.477 313.367 288.984 314.344 288.984ZM314.039 290.141C312.422 290.141 311.336 289.164 311.336 287.703C311.336 286.312 312.406 285.438 314.281 285.328L316.609 285.195V284.516C316.609 283.523 315.953 282.93 314.828 282.93C313.781 282.93 313.125 283.422 312.953 284.219H311.641C311.734 282.812 312.938 281.734 314.859 281.734C316.766 281.734 317.969 282.766 317.969 284.383V290H316.68V288.602H316.648C316.164 289.531 315.133 290.141 314.039 290.141ZM325.633 281.875V282.992H323.008V290H321.664V282.992H319.039V281.875H325.633ZM332.242 290V286.344H328.234V290H326.891V281.875H328.234V285.227H332.242V281.875H333.586V290H332.242ZM336.18 293.039C336.016 293.039 335.742 293.023 335.594 292.992V291.852C335.742 291.883 335.953 291.891 336.125 291.891C336.883 291.891 337.305 291.523 337.617 290.578L337.805 290.008L334.805 281.875H336.258L338.508 288.641H338.531L340.781 281.875H342.211L339.016 290.57C338.32 292.469 337.648 293.039 336.18 293.039ZM349.906 290.141C347.75 290.141 346.375 288.711 346.227 286.344H344.766V290H343.422V281.875H344.766V285.227H346.258C346.5 283.039 347.844 281.734 349.906 281.734C352.188 281.734 353.594 283.32 353.594 285.938C353.594 288.547 352.188 290.141 349.906 290.141ZM349.906 288.938C351.375 288.938 352.203 287.844 352.203 285.938C352.203 284.023 351.375 282.938 349.906 282.938C348.438 282.938 347.609 284.023 347.609 285.938C347.609 287.844 348.438 288.938 349.906 288.938ZM365.117 284.375H363.773C363.539 283.594 362.875 282.93 361.727 282.93C360.312 282.93 359.383 284.125 359.383 285.938C359.383 287.797 360.328 288.945 361.742 288.945C362.82 288.945 363.531 288.414 363.789 287.516H365.133C364.867 289.055 363.562 290.141 361.734 290.141C359.477 290.141 358 288.523 358 285.938C358 283.406 359.469 281.734 361.719 281.734C363.68 281.734 364.875 282.992 365.117 284.375ZM369.836 282.977H367.891V285.25H369.633C370.656 285.25 371.148 284.875 371.148 284.094C371.148 283.375 370.688 282.977 369.836 282.977ZM369.742 286.344H367.891V288.898H369.984C370.969 288.898 371.5 288.453 371.5 287.633C371.5 286.766 370.93 286.344 369.742 286.344ZM366.547 290V281.875H370.023C371.547 281.875 372.477 282.664 372.477 283.953C372.477 284.781 371.891 285.547 371.141 285.703V285.766C372.164 285.906 372.836 286.648 372.836 287.664C372.836 289.102 371.773 290 370.047 290H366.547ZM377.312 285.992H378.867V282.992H377.312C376.258 282.992 375.586 283.57 375.586 284.547C375.586 285.391 376.266 285.992 377.312 285.992ZM378.867 290V287.109H377.43L375.367 290H373.812L376.078 286.859C374.93 286.531 374.234 285.688 374.234 284.57C374.234 282.898 375.438 281.875 377.305 281.875H380.211V290H378.867ZM384.836 290.141C383.055 290.141 381.766 289.266 381.625 287.891H383C383.156 288.602 383.828 289.016 384.836 289.016C386.016 289.016 386.672 288.453 386.672 287.664C386.672 286.75 386.062 286.336 384.836 286.336H383.617V285.227H384.836C385.867 285.227 386.398 284.836 386.398 284.039C386.398 283.359 385.914 282.867 384.867 282.867C383.906 282.867 383.234 283.281 383.125 283.93H381.805C381.977 282.586 383.148 281.734 384.867 281.734C386.719 281.734 387.727 282.625 387.727 283.93C387.727 284.758 387.195 285.492 386.383 285.68V285.742C387.453 285.977 388.008 286.664 388.008 287.602C388.008 289.117 386.742 290.141 384.836 290.141ZM392.422 285.586H390.906V288.883H392.422C393.477 288.883 394.156 288.227 394.156 287.234C394.156 286.234 393.469 285.586 392.422 285.586ZM389.562 290V281.875H390.906V284.469H392.445C394.305 284.469 395.5 285.539 395.5 287.234C395.5 288.93 394.305 290 392.445 290H389.562ZM397.461 278.727H398.867L398.773 286.258H397.555L397.461 278.727ZM398.164 290.078C397.664 290.078 397.273 289.688 397.273 289.188C397.273 288.68 397.664 288.297 398.164 288.297C398.672 288.297 399.055 288.68 399.055 289.188C399.055 289.688 398.672 290.078 398.164 290.078Z" fill="white"/>
</g>
<g clip-path="url(#clip1_9_1542)">
<path d="M38 57.6875C48.8731 57.6875 57.6875 48.8731 57.6875 38C57.6875 27.1269 48.8731 18.3125 38 18.3125C27.1269 18.3125 18.3125 27.1269 18.3125 38C18.3125 48.8731 27.1269 57.6875 38 57.6875Z" fill="white"/>
<path d="M42.1825 27.0625H33.8263C30.0988 27.0625 27.0713 30.09 27.0713 33.8175V42.1738C27.0713 45.9013 30.0988 48.9288 33.8263 48.9288H42.1825C45.91 48.9288 48.9375 45.9013 48.9375 42.1738V33.8175C48.9375 30.09 45.91 27.0625 42.1825 27.0625ZM46.4963 42.1825C46.4963 44.5625 44.5625 46.505 42.1738 46.505H33.8175C31.4375 46.505 29.495 44.5713 29.495 42.1825V33.8263C29.495 31.4463 31.4288 29.5037 33.8175 29.5037H42.1738C44.5538 29.5037 46.4963 31.4375 46.4963 33.8263V42.1825Z" fill="#B89FFF"/>
<path d="M37.9999 32.4087C34.9199 32.4087 32.4087 34.9199 32.4087 37.9999C32.4087 41.0799 34.9199 43.5912 37.9999 43.5912C41.0799 43.5912 43.5912 41.0799 43.5912 37.9999C43.5912 34.9199 41.0799 32.4087 37.9999 32.4087ZM37.9999 41.3949C36.1274 41.3949 34.6049 39.8724 34.6049 37.9999C34.6049 36.1274 36.1274 34.6049 37.9999 34.6049C39.8724 34.6049 41.3949 36.1274 41.3949 37.9999C41.3949 39.8724 39.8724 41.3949 37.9999 41.3949Z" fill="#B89FFF"/>
<path d="M44.0173 33.0216C44.5325 32.9381 44.8824 32.4528 44.7989 31.9377C44.7154 31.4226 44.2301 31.0727 43.7149 31.1562C43.1998 31.2397 42.8499 31.725 42.9334 32.2401C43.0169 32.7552 43.5022 33.1051 44.0173 33.0216Z" fill="#B89FFF"/>
</g>
<path d="M76.7568 42.5H75.54V33.7568H70.2627V42.5H69.0254V32.6357H76.7568V42.5ZM81.5762 42.623C79.6074 42.623 78.2812 41.208 78.2812 38.9453C78.2812 36.6758 79.6074 35.2676 81.5762 35.2676C83.5381 35.2676 84.8643 36.6758 84.8643 38.9453C84.8643 41.208 83.5381 42.623 81.5762 42.623ZM81.5762 41.5771C82.834 41.5771 83.6543 40.6201 83.6543 38.9453C83.6543 37.2705 82.834 36.3135 81.5762 36.3135C80.3184 36.3135 79.4912 37.2705 79.4912 38.9453C79.4912 40.6201 80.3184 41.5771 81.5762 41.5771ZM92.0693 37.5781H90.8936C90.6885 36.8945 90.1074 36.3135 89.1025 36.3135C87.8652 36.3135 87.0518 37.3594 87.0518 38.9453C87.0518 40.5723 87.8789 41.5771 89.1162 41.5771C90.0596 41.5771 90.6816 41.1123 90.9072 40.3262H92.083C91.8506 41.6729 90.709 42.623 89.1094 42.623C87.1338 42.623 85.8418 41.208 85.8418 38.9453C85.8418 36.7305 87.127 35.2676 89.0957 35.2676C90.8115 35.2676 91.8574 36.3682 92.0693 37.5781ZM94.4961 42.5H93.3203V35.3906H94.7627L97.292 40.9277H97.3467L99.8896 35.3906H101.277V42.5H100.095V37.4551H100.047L97.75 42.2949H96.8408L94.5439 37.4551H94.4961V42.5ZM105.898 42.623C103.93 42.623 102.604 41.208 102.604 38.9453C102.604 36.6758 103.93 35.2676 105.898 35.2676C107.86 35.2676 109.187 36.6758 109.187 38.9453C109.187 41.208 107.86 42.623 105.898 42.623ZM105.898 41.5771C107.156 41.5771 107.977 40.6201 107.977 38.9453C107.977 37.2705 107.156 36.3135 105.898 36.3135C104.641 36.3135 103.813 37.2705 103.813 38.9453C103.813 40.6201 104.641 41.5771 105.898 41.5771ZM115.435 35.3906V36.3682H113.138V42.5H111.962V36.3682H109.665V35.3906H115.435ZM119.994 35.2676C121.806 35.2676 123.036 36.7168 123.036 38.9453C123.036 41.1738 121.812 42.623 120.021 42.623C119.003 42.623 118.183 42.124 117.759 41.3447H117.731V44.8721H116.542V35.3906H117.67V36.5938H117.697C118.135 35.7939 118.962 35.2676 119.994 35.2676ZM119.762 41.5771C121.026 41.5771 121.819 40.5586 121.819 38.9453C121.819 37.3389 121.026 36.3135 119.762 36.3135C118.545 36.3135 117.725 37.3662 117.725 38.9453C117.725 40.5312 118.545 41.5771 119.762 41.5771ZM127.213 36.2998C126.099 36.2998 125.319 37.1543 125.244 38.3369H129.106C129.079 37.1475 128.334 36.2998 127.213 36.2998ZM129.079 40.4629H130.248C130.043 41.707 128.84 42.623 127.288 42.623C125.251 42.623 124.014 41.208 124.014 38.9727C124.014 36.7646 125.271 35.2676 127.233 35.2676C129.154 35.2676 130.337 36.6621 130.337 38.8154V39.2666H125.237V39.335C125.237 40.6953 126.037 41.5908 127.315 41.5908C128.218 41.5908 128.881 41.1328 129.079 40.4629ZM136.585 35.3906V36.3682H134.288V42.5H133.112V36.3682H130.815V35.3906H136.585ZM140.188 38.6377H138.861V41.5225H140.188C141.11 41.5225 141.705 40.9482 141.705 40.0801C141.705 39.2051 141.104 38.6377 140.188 38.6377ZM137.686 42.5V35.3906H138.861V37.6602H140.208C141.835 37.6602 142.881 38.5967 142.881 40.0801C142.881 41.5635 141.835 42.5 140.208 42.5H137.686ZM149.929 36.3545H148.227V38.3438H149.751C150.646 38.3438 151.077 38.0156 151.077 37.332C151.077 36.7031 150.674 36.3545 149.929 36.3545ZM149.847 39.3008H148.227V41.5361H150.059C150.92 41.5361 151.385 41.1465 151.385 40.4287C151.385 39.6699 150.886 39.3008 149.847 39.3008ZM147.051 42.5V35.3906H150.093C151.426 35.3906 152.239 36.0811 152.239 37.209C152.239 37.9336 151.727 38.6035 151.07 38.7402V38.7949C151.966 38.918 152.554 39.5674 152.554 40.4561C152.554 41.7139 151.624 42.5 150.113 42.5H147.051ZM158.139 42.5H156.908V32.6357H158.139V42.5ZM159.868 42.5V35.3906H160.989V36.5254H161.017C161.413 35.7598 162.172 35.2676 163.272 35.2676C164.831 35.2676 165.733 36.2725 165.733 37.8857V42.5H164.544V38.0977C164.544 36.9492 164.004 36.3203 162.91 36.3203C161.789 36.3203 161.058 37.1133 161.058 38.3164V42.5H159.868ZM167.128 37.3525C167.128 36.1357 168.215 35.2676 169.78 35.2676C171.25 35.2676 172.33 36.1426 172.385 37.3457H171.25C171.168 36.6621 170.614 36.2383 169.739 36.2383C168.871 36.2383 168.297 36.6689 168.297 37.291C168.297 37.7832 168.673 38.1113 169.479 38.3164L170.58 38.583C172.016 38.9453 172.535 39.4648 172.535 40.5107C172.535 41.748 171.366 42.623 169.705 42.623C168.146 42.623 167.06 41.7754 166.937 40.5176H168.126C168.256 41.2559 168.816 41.6523 169.78 41.6523C170.744 41.6523 171.339 41.2422 171.339 40.5996C171.339 40.0938 171.045 39.8203 170.245 39.6084L168.994 39.2871C167.743 38.9658 167.128 38.3232 167.128 37.3525ZM174.155 33.6748H175.345V35.3906H176.726V36.3682H175.345V40.5928C175.345 41.2422 175.618 41.5361 176.227 41.5361C176.363 41.5361 176.637 41.5156 176.719 41.502V42.5C176.575 42.5342 176.247 42.5547 175.967 42.5547C174.661 42.5547 174.155 42.0215 174.155 40.6543V36.3682H173.096V35.3906H174.155V33.6748ZM180.205 41.6113C181.326 41.6113 182.188 40.8252 182.188 39.7998V39.2188L180.287 39.335C179.33 39.3965 178.783 39.8203 178.783 40.4902C178.783 41.167 179.351 41.6113 180.205 41.6113ZM179.938 42.623C178.523 42.623 177.573 41.7686 177.573 40.4902C177.573 39.2734 178.51 38.5078 180.15 38.4121L182.188 38.2959V37.7012C182.188 36.833 181.613 36.3135 180.629 36.3135C179.713 36.3135 179.139 36.7441 178.988 37.4414H177.84C177.922 36.2109 178.975 35.2676 180.656 35.2676C182.324 35.2676 183.377 36.1699 183.377 37.585V42.5H182.249V41.2764H182.222C181.798 42.0898 180.896 42.623 179.938 42.623ZM187.779 41.5088C189.017 41.5088 189.844 40.4834 189.844 38.918C189.844 37.3525 189.017 36.3135 187.779 36.3135C186.556 36.3135 185.756 37.3252 185.756 38.918C185.756 40.5107 186.556 41.5088 187.779 41.5088ZM187.82 45.1797C186.255 45.1797 185.018 44.2979 184.819 43.0879H186.043C186.275 43.7373 186.979 44.168 187.868 44.168C189.099 44.168 189.844 43.457 189.844 42.3975V41.2764H189.816C189.379 42.0488 188.538 42.5547 187.54 42.5547C185.729 42.5547 184.539 41.126 184.539 38.918C184.539 36.6895 185.729 35.2676 187.567 35.2676C188.572 35.2676 189.406 35.7598 189.878 36.5869H189.898V35.3906H191.033V42.3564C191.033 44.0518 189.782 45.1797 187.82 45.1797ZM192.585 42.5V35.3906H193.706V36.5527H193.733C193.966 35.7666 194.622 35.2676 195.456 35.2676C195.661 35.2676 195.839 35.3018 195.935 35.3154V36.4707C195.839 36.4365 195.586 36.4023 195.299 36.4023C194.376 36.4023 193.774 37.0654 193.774 38.0703V42.5H192.585ZM199.113 41.6113C200.234 41.6113 201.096 40.8252 201.096 39.7998V39.2188L199.195 39.335C198.238 39.3965 197.691 39.8203 197.691 40.4902C197.691 41.167 198.259 41.6113 199.113 41.6113ZM198.847 42.623C197.432 42.623 196.481 41.7686 196.481 40.4902C196.481 39.2734 197.418 38.5078 199.059 38.4121L201.096 38.2959V37.7012C201.096 36.833 200.521 36.3135 199.537 36.3135C198.621 36.3135 198.047 36.7441 197.896 37.4414H196.748C196.83 36.2109 197.883 35.2676 199.564 35.2676C201.232 35.2676 202.285 36.1699 202.285 37.585V42.5H201.157V41.2764H201.13C200.706 42.0898 199.804 42.623 198.847 42.623ZM203.796 42.5V35.3906H204.917V36.5254H204.944C205.279 35.7734 206.004 35.2676 206.961 35.2676C207.932 35.2676 208.649 35.7598 208.957 36.6211H208.984C209.381 35.7734 210.215 35.2676 211.213 35.2676C212.621 35.2676 213.53 36.1836 213.53 37.5918V42.5H212.341V37.8652C212.341 36.8945 211.801 36.3203 210.864 36.3203C209.921 36.3203 209.258 37.0176 209.258 37.9814V42.5H208.068V37.7354C208.068 36.8809 207.494 36.3203 206.612 36.3203C205.669 36.3203 204.985 37.0586 204.985 38.043V42.5H203.796Z" fill="white"/>
<defs>
<linearGradient id="paint0_linear_9_1542" x1="254.5" y1="0" x2="254.5" y2="457" gradientUnits="userSpaceOnUse">
<stop stop-color="#D7C4FF"/>
<stop offset="1" stop-color="#EDE4FF"/>
</linearGradient>
<clipPath id="clip0_9_1542">
<rect width="315" height="56" fill="white" transform="translate(163 257)"/>
</clipPath>
<clipPath id="clip1_9_1542">
<rect width="40" height="40" fill="white" transform="translate(18 18)"/>
</clipPath>
</defs>
</svg>
