<svg width="509" height="457" viewBox="0 0 509 457" fill="none" xmlns="http://www.w3.org/2000/svg">
<rect width="509" height="457" rx="16" fill="url(#paint0_linear_9_1563)"/>
<rect width="509" height="457" rx="16" fill="#D5C7FF"/>
<g clip-path="url(#clip0_9_1563)">
<path d="M38 57.6875C48.8731 57.6875 57.6875 48.8731 57.6875 38C57.6875 27.1269 48.8731 18.3125 38 18.3125C27.1269 18.3125 18.3125 27.1269 18.3125 38C18.3125 48.8731 27.1269 57.6875 38 57.6875Z" fill="white"/>
<path d="M42.1825 27.0625H33.8263C30.0988 27.0625 27.0713 30.09 27.0713 33.8175V42.1738C27.0713 45.9013 30.0988 48.9288 33.8263 48.9288H42.1825C45.91 48.9288 48.9375 45.9013 48.9375 42.1738V33.8175C48.9375 30.09 45.91 27.0625 42.1825 27.0625ZM46.4963 42.1825C46.4963 44.5625 44.5625 46.505 42.1738 46.505H33.8175C31.4375 46.505 29.495 44.5713 29.495 42.1825V33.8263C29.495 31.4463 31.4288 29.5037 33.8175 29.5037H42.1738C44.5538 29.5037 46.4963 31.4375 46.4963 33.8263V42.1825Z" fill="#B89FFF"/>
<path d="M37.9999 32.4087C34.9199 32.4087 32.4087 34.9199 32.4087 37.9999C32.4087 41.0799 34.9199 43.5912 37.9999 43.5912C41.0799 43.5912 43.5912 41.0799 43.5912 37.9999C43.5912 34.9199 41.0799 32.4087 37.9999 32.4087ZM37.9999 41.3949C36.1274 41.3949 34.6049 39.8724 34.6049 37.9999C34.6049 36.1274 36.1274 34.6049 37.9999 34.6049C39.8724 34.6049 41.3949 36.1274 41.3949 37.9999C41.3949 39.8724 39.8724 41.3949 37.9999 41.3949Z" fill="#B89FFF"/>
<path d="M44.0173 33.0216C44.5325 32.9381 44.8824 32.4528 44.7989 31.9377C44.7154 31.4226 44.2301 31.0727 43.7149 31.1562C43.1998 31.2397 42.8499 31.725 42.9334 32.2401C43.0169 32.7552 43.5022 33.1051 44.0173 33.0216Z" fill="#B89FFF"/>
</g>
<path d="M76.7568 42.5H75.54V33.7568H70.2627V42.5H69.0254V32.6357H76.7568V42.5ZM81.5762 42.623C79.6074 42.623 78.2812 41.208 78.2812 38.9453C78.2812 36.6758 79.6074 35.2676 81.5762 35.2676C83.5381 35.2676 84.8643 36.6758 84.8643 38.9453C84.8643 41.208 83.5381 42.623 81.5762 42.623ZM81.5762 41.5771C82.834 41.5771 83.6543 40.6201 83.6543 38.9453C83.6543 37.2705 82.834 36.3135 81.5762 36.3135C80.3184 36.3135 79.4912 37.2705 79.4912 38.9453C79.4912 40.6201 80.3184 41.5771 81.5762 41.5771ZM92.0693 37.5781H90.8936C90.6885 36.8945 90.1074 36.3135 89.1025 36.3135C87.8652 36.3135 87.0518 37.3594 87.0518 38.9453C87.0518 40.5723 87.8789 41.5771 89.1162 41.5771C90.0596 41.5771 90.6816 41.1123 90.9072 40.3262H92.083C91.8506 41.6729 90.709 42.623 89.1094 42.623C87.1338 42.623 85.8418 41.208 85.8418 38.9453C85.8418 36.7305 87.127 35.2676 89.0957 35.2676C90.8115 35.2676 91.8574 36.3682 92.0693 37.5781ZM94.4961 42.5H93.3203V35.3906H94.7627L97.292 40.9277H97.3467L99.8896 35.3906H101.277V42.5H100.095V37.4551H100.047L97.75 42.2949H96.8408L94.5439 37.4551H94.4961V42.5ZM105.898 42.623C103.93 42.623 102.604 41.208 102.604 38.9453C102.604 36.6758 103.93 35.2676 105.898 35.2676C107.86 35.2676 109.187 36.6758 109.187 38.9453C109.187 41.208 107.86 42.623 105.898 42.623ZM105.898 41.5771C107.156 41.5771 107.977 40.6201 107.977 38.9453C107.977 37.2705 107.156 36.3135 105.898 36.3135C104.641 36.3135 103.813 37.2705 103.813 38.9453C103.813 40.6201 104.641 41.5771 105.898 41.5771ZM115.435 35.3906V36.3682H113.138V42.5H111.962V36.3682H109.665V35.3906H115.435ZM119.994 35.2676C121.806 35.2676 123.036 36.7168 123.036 38.9453C123.036 41.1738 121.812 42.623 120.021 42.623C119.003 42.623 118.183 42.124 117.759 41.3447H117.731V44.8721H116.542V35.3906H117.67V36.5938H117.697C118.135 35.7939 118.962 35.2676 119.994 35.2676ZM119.762 41.5771C121.026 41.5771 121.819 40.5586 121.819 38.9453C121.819 37.3389 121.026 36.3135 119.762 36.3135C118.545 36.3135 117.725 37.3662 117.725 38.9453C117.725 40.5312 118.545 41.5771 119.762 41.5771ZM127.213 36.2998C126.099 36.2998 125.319 37.1543 125.244 38.3369H129.106C129.079 37.1475 128.334 36.2998 127.213 36.2998ZM129.079 40.4629H130.248C130.043 41.707 128.84 42.623 127.288 42.623C125.251 42.623 124.014 41.208 124.014 38.9727C124.014 36.7646 125.271 35.2676 127.233 35.2676C129.154 35.2676 130.337 36.6621 130.337 38.8154V39.2666H125.237V39.335C125.237 40.6953 126.037 41.5908 127.315 41.5908C128.218 41.5908 128.881 41.1328 129.079 40.4629ZM136.585 35.3906V36.3682H134.288V42.5H133.112V36.3682H130.815V35.3906H136.585ZM140.188 38.6377H138.861V41.5225H140.188C141.11 41.5225 141.705 40.9482 141.705 40.0801C141.705 39.2051 141.104 38.6377 140.188 38.6377ZM137.686 42.5V35.3906H138.861V37.6602H140.208C141.835 37.6602 142.881 38.5967 142.881 40.0801C142.881 41.5635 141.835 42.5 140.208 42.5H137.686ZM149.929 36.3545H148.227V38.3438H149.751C150.646 38.3438 151.077 38.0156 151.077 37.332C151.077 36.7031 150.674 36.3545 149.929 36.3545ZM149.847 39.3008H148.227V41.5361H150.059C150.92 41.5361 151.385 41.1465 151.385 40.4287C151.385 39.6699 150.886 39.3008 149.847 39.3008ZM147.051 42.5V35.3906H150.093C151.426 35.3906 152.239 36.0811 152.239 37.209C152.239 37.9336 151.727 38.6035 151.07 38.7402V38.7949C151.966 38.918 152.554 39.5674 152.554 40.4561C152.554 41.7139 151.624 42.5 150.113 42.5H147.051ZM158.139 42.5H156.908V32.6357H158.139V42.5ZM159.868 42.5V35.3906H160.989V36.5254H161.017C161.413 35.7598 162.172 35.2676 163.272 35.2676C164.831 35.2676 165.733 36.2725 165.733 37.8857V42.5H164.544V38.0977C164.544 36.9492 164.004 36.3203 162.91 36.3203C161.789 36.3203 161.058 37.1133 161.058 38.3164V42.5H159.868ZM167.128 37.3525C167.128 36.1357 168.215 35.2676 169.78 35.2676C171.25 35.2676 172.33 36.1426 172.385 37.3457H171.25C171.168 36.6621 170.614 36.2383 169.739 36.2383C168.871 36.2383 168.297 36.6689 168.297 37.291C168.297 37.7832 168.673 38.1113 169.479 38.3164L170.58 38.583C172.016 38.9453 172.535 39.4648 172.535 40.5107C172.535 41.748 171.366 42.623 169.705 42.623C168.146 42.623 167.06 41.7754 166.937 40.5176H168.126C168.256 41.2559 168.816 41.6523 169.78 41.6523C170.744 41.6523 171.339 41.2422 171.339 40.5996C171.339 40.0938 171.045 39.8203 170.245 39.6084L168.994 39.2871C167.743 38.9658 167.128 38.3232 167.128 37.3525ZM174.155 33.6748H175.345V35.3906H176.726V36.3682H175.345V40.5928C175.345 41.2422 175.618 41.5361 176.227 41.5361C176.363 41.5361 176.637 41.5156 176.719 41.502V42.5C176.575 42.5342 176.247 42.5547 175.967 42.5547C174.661 42.5547 174.155 42.0215 174.155 40.6543V36.3682H173.096V35.3906H174.155V33.6748ZM180.205 41.6113C181.326 41.6113 182.188 40.8252 182.188 39.7998V39.2188L180.287 39.335C179.33 39.3965 178.783 39.8203 178.783 40.4902C178.783 41.167 179.351 41.6113 180.205 41.6113ZM179.938 42.623C178.523 42.623 177.573 41.7686 177.573 40.4902C177.573 39.2734 178.51 38.5078 180.15 38.4121L182.188 38.2959V37.7012C182.188 36.833 181.613 36.3135 180.629 36.3135C179.713 36.3135 179.139 36.7441 178.988 37.4414H177.84C177.922 36.2109 178.975 35.2676 180.656 35.2676C182.324 35.2676 183.377 36.1699 183.377 37.585V42.5H182.249V41.2764H182.222C181.798 42.0898 180.896 42.623 179.938 42.623ZM187.779 41.5088C189.017 41.5088 189.844 40.4834 189.844 38.918C189.844 37.3525 189.017 36.3135 187.779 36.3135C186.556 36.3135 185.756 37.3252 185.756 38.918C185.756 40.5107 186.556 41.5088 187.779 41.5088ZM187.82 45.1797C186.255 45.1797 185.018 44.2979 184.819 43.0879H186.043C186.275 43.7373 186.979 44.168 187.868 44.168C189.099 44.168 189.844 43.457 189.844 42.3975V41.2764H189.816C189.379 42.0488 188.538 42.5547 187.54 42.5547C185.729 42.5547 184.539 41.126 184.539 38.918C184.539 36.6895 185.729 35.2676 187.567 35.2676C188.572 35.2676 189.406 35.7598 189.878 36.5869H189.898V35.3906H191.033V42.3564C191.033 44.0518 189.782 45.1797 187.82 45.1797ZM192.585 42.5V35.3906H193.706V36.5527H193.733C193.966 35.7666 194.622 35.2676 195.456 35.2676C195.661 35.2676 195.839 35.3018 195.935 35.3154V36.4707C195.839 36.4365 195.586 36.4023 195.299 36.4023C194.376 36.4023 193.774 37.0654 193.774 38.0703V42.5H192.585ZM199.113 41.6113C200.234 41.6113 201.096 40.8252 201.096 39.7998V39.2188L199.195 39.335C198.238 39.3965 197.691 39.8203 197.691 40.4902C197.691 41.167 198.259 41.6113 199.113 41.6113ZM198.847 42.623C197.432 42.623 196.481 41.7686 196.481 40.4902C196.481 39.2734 197.418 38.5078 199.059 38.4121L201.096 38.2959V37.7012C201.096 36.833 200.521 36.3135 199.537 36.3135C198.621 36.3135 198.047 36.7441 197.896 37.4414H196.748C196.83 36.2109 197.883 35.2676 199.564 35.2676C201.232 35.2676 202.285 36.1699 202.285 37.585V42.5H201.157V41.2764H201.13C200.706 42.0898 199.804 42.623 198.847 42.623ZM203.796 42.5V35.3906H204.917V36.5254H204.944C205.279 35.7734 206.004 35.2676 206.961 35.2676C207.932 35.2676 208.649 35.7598 208.957 36.6211H208.984C209.381 35.7734 210.215 35.2676 211.213 35.2676C212.621 35.2676 213.53 36.1836 213.53 37.5918V42.5H212.341V37.8652C212.341 36.8945 211.801 36.3203 210.864 36.3203C209.921 36.3203 209.258 37.0176 209.258 37.9814V42.5H208.068V37.7354C208.068 36.8809 207.494 36.3203 206.612 36.3203C205.669 36.3203 204.985 37.0586 204.985 38.043V42.5H203.796Z" fill="white"/>
<path d="M376 172.275V218.66C375.999 225.893 373.114 232.829 367.978 237.943C362.843 243.057 355.879 245.93 348.617 245.93H67.6199C61.6526 245.943 55.8458 244.005 51.0899 240.415C40.9445 247.351 31 249 31 249C31 249 40.2414 240.467 40.2414 218.66V172.275C40.2414 165.042 43.1257 158.105 48.2601 152.99C53.3945 147.875 60.3583 145.001 67.6199 145H348.617C355.88 145 362.845 147.874 367.98 152.989C373.115 158.103 376 165.041 376 172.275Z" fill="white"/>
<path d="M71.4297 179H67.1719V167.727H71.4453C73.375 167.727 74.6797 168.852 74.6797 170.539C74.6797 171.711 73.8203 172.805 72.7344 173V173.062C74.2656 173.258 75.25 174.336 75.25 175.836C75.25 177.82 73.8281 179 71.4297 179ZM68.5781 168.969V172.586H70.6875C72.3516 172.586 73.2578 171.922 73.2578 170.703C73.2578 169.586 72.4922 168.969 71.125 168.969H68.5781ZM68.5781 177.758H71.2188C72.9141 177.758 73.8047 177.07 73.8047 175.766C73.8047 174.461 72.8828 173.797 71.0859 173.797H68.5781V177.758ZM78.9531 175.414C78.7891 177.656 78.25 179.07 76.5391 179.07C76.3047 179.07 76.1484 179.023 76.0547 178.984V177.758C76.125 177.781 76.2734 177.82 76.4688 177.82C77.2734 177.82 77.5781 176.875 77.6797 175.383L77.9922 170.875H83.3125V179H81.9688V171.992H79.2031L78.9531 175.414ZM87.9219 177.984C89.2031 177.984 90.1875 177.086 90.1875 175.914V175.25L88.0156 175.383C86.9219 175.453 86.2969 175.938 86.2969 176.703C86.2969 177.477 86.9453 177.984 87.9219 177.984ZM87.6172 179.141C86 179.141 84.9141 178.164 84.9141 176.703C84.9141 175.312 85.9844 174.438 87.8594 174.328L90.1875 174.195V173.516C90.1875 172.523 89.5312 171.93 88.4062 171.93C87.3594 171.93 86.7031 172.422 86.5312 173.219H85.2188C85.3125 171.812 86.5156 170.734 88.4375 170.734C90.3438 170.734 91.5469 171.766 91.5469 173.383V179H90.2578V177.602H90.2266C89.7422 178.531 88.7109 179.141 87.6172 179.141ZM98.8125 177.883V171.992H95.7656L95.5156 175.414C95.4453 176.422 95.2344 177.305 94.8516 177.82V177.883H98.8125ZM93.8828 181.148H92.6172V177.883H93.2969C93.8906 177.492 94.1797 176.477 94.2578 175.383L94.5703 170.875H100.164V177.883H101.453V181.148H100.188V179H93.8828V181.148ZM104.297 179.078C103.797 179.078 103.406 178.688 103.406 178.188C103.406 177.688 103.797 177.297 104.297 177.297C104.797 177.297 105.188 177.688 105.188 178.188C105.188 178.688 104.797 179.078 104.297 179.078ZM114.641 179.188C111.531 179.188 109.562 176.93 109.562 173.359C109.562 169.82 111.555 167.539 114.641 167.539C117.039 167.539 118.875 168.961 119.289 171.125H117.852C117.445 169.734 116.188 168.836 114.641 168.836C112.438 168.836 111.008 170.617 111.008 173.359C111.008 176.125 112.422 177.891 114.648 177.891C116.25 177.891 117.406 177.148 117.852 175.859H119.289C118.734 178 117.078 179.188 114.641 179.188ZM126.164 179V171.992H122.234V179H120.891V170.875H127.516V179H126.164ZM132.109 177.984C133.391 177.984 134.375 177.086 134.375 175.914V175.25L132.203 175.383C131.109 175.453 130.484 175.938 130.484 176.703C130.484 177.477 131.133 177.984 132.109 177.984ZM131.805 179.141C130.188 179.141 129.102 178.164 129.102 176.703C129.102 175.312 130.172 174.438 132.047 174.328L134.375 174.195V173.516C134.375 172.523 133.719 171.93 132.594 171.93C131.547 171.93 130.891 172.422 130.719 173.219H129.406C129.5 171.812 130.703 170.734 132.625 170.734C134.531 170.734 135.734 171.766 135.734 173.383V179H134.445V177.602H134.414C133.93 178.531 132.898 179.141 131.805 179.141ZM144.336 173.375H142.992C142.758 172.594 142.094 171.93 140.945 171.93C139.531 171.93 138.602 173.125 138.602 174.938C138.602 176.797 139.547 177.945 140.961 177.945C142.039 177.945 142.75 177.414 143.008 176.516H144.352C144.086 178.055 142.781 179.141 140.953 179.141C138.695 179.141 137.219 177.523 137.219 174.938C137.219 172.406 138.688 170.734 140.938 170.734C142.898 170.734 144.094 171.992 144.336 173.375ZM147.109 179H145.766V170.875H147.109V176.922H147.172L151.234 170.875H152.578V179H151.234V172.953H151.172L147.109 179ZM157.969 179.141C155.477 179.141 154.164 177.469 154.164 174.242C154.164 169.758 155.352 167.891 158.508 167.773L159.109 167.75C159.891 167.711 160.766 167.555 161.227 167.312V168.5C160.969 168.734 160.109 168.938 159.172 168.977L158.57 169C156.312 169.086 155.641 170.078 155.312 172.508H155.375C155.906 171.547 156.922 171.047 158.172 171.047C160.367 171.047 161.766 172.594 161.766 175.016C161.766 177.57 160.32 179.141 157.969 179.141ZM157.969 177.938C159.492 177.938 160.375 176.883 160.375 175.016C160.375 173.242 159.492 172.234 157.969 172.234C156.438 172.234 155.555 173.242 155.555 175.016C155.555 176.883 156.438 177.938 157.969 177.938ZM166.656 179.141C164.406 179.141 162.891 177.523 162.891 174.938C162.891 172.344 164.406 170.734 166.656 170.734C168.898 170.734 170.414 172.344 170.414 174.938C170.414 177.523 168.898 179.141 166.656 179.141ZM166.656 177.945C168.094 177.945 169.031 176.852 169.031 174.938C169.031 173.023 168.094 171.93 166.656 171.93C165.219 171.93 164.273 173.023 164.273 174.938C164.273 176.852 165.219 177.945 166.656 177.945ZM177.914 179.141C176.133 179.141 174.844 178.266 174.703 176.891H176.078C176.234 177.602 176.906 178.016 177.914 178.016C179.094 178.016 179.75 177.453 179.75 176.664C179.75 175.75 179.141 175.336 177.914 175.336H176.695V174.227H177.914C178.945 174.227 179.477 173.836 179.477 173.039C179.477 172.359 178.992 171.867 177.945 171.867C176.984 171.867 176.312 172.281 176.203 172.93H174.883C175.055 171.586 176.227 170.734 177.945 170.734C179.797 170.734 180.805 171.625 180.805 172.93C180.805 173.758 180.273 174.492 179.461 174.68V174.742C180.531 174.977 181.086 175.664 181.086 176.602C181.086 178.117 179.82 179.141 177.914 179.141ZM185.328 177.984C186.609 177.984 187.594 177.086 187.594 175.914V175.25L185.422 175.383C184.328 175.453 183.703 175.938 183.703 176.703C183.703 177.477 184.352 177.984 185.328 177.984ZM185.023 179.141C183.406 179.141 182.32 178.164 182.32 176.703C182.32 175.312 183.391 174.438 185.266 174.328L187.594 174.195V173.516C187.594 172.523 186.938 171.93 185.812 171.93C184.766 171.93 184.109 172.422 183.938 173.219H182.625C182.719 171.812 183.922 170.734 185.844 170.734C187.75 170.734 188.953 171.766 188.953 173.383V179H187.664V177.602H187.633C187.148 178.531 186.117 179.141 185.023 179.141ZM194.789 182.039C194.625 182.039 194.352 182.023 194.203 181.992V180.852C194.352 180.883 194.562 180.891 194.734 180.891C195.492 180.891 195.914 180.523 196.227 179.578L196.414 179.008L193.414 170.875H194.867L197.117 177.641H197.141L199.391 170.875H200.82L197.625 179.57C196.93 181.469 196.258 182.039 194.789 182.039ZM205.984 170.734C208.055 170.734 209.461 172.391 209.461 174.938C209.461 177.484 208.062 179.141 206.016 179.141C204.852 179.141 203.914 178.57 203.43 177.68H203.398V181.711H202.039V170.875H203.328V172.25H203.359C203.859 171.336 204.805 170.734 205.984 170.734ZM205.719 177.945C207.164 177.945 208.07 176.781 208.07 174.938C208.07 173.102 207.164 171.93 205.719 171.93C204.328 171.93 203.391 173.133 203.391 174.938C203.391 176.75 204.328 177.945 205.719 177.945ZM214.344 179.141C212.094 179.141 210.578 177.523 210.578 174.938C210.578 172.344 212.094 170.734 214.344 170.734C216.586 170.734 218.102 172.344 218.102 174.938C218.102 177.523 216.586 179.141 214.344 179.141ZM214.344 177.945C215.781 177.945 216.719 176.852 216.719 174.938C216.719 173.023 215.781 171.93 214.344 171.93C212.906 171.93 211.961 173.023 211.961 174.938C211.961 176.852 212.906 177.945 214.344 177.945ZM222.367 174.719L226.273 179H224.523L221.016 175.094H220.953V179H219.609V170.875H220.953V174.469H221.016L224.484 170.875H226.164L222.367 174.719ZM228.75 179H227.406V170.875H228.75V176.922H228.812L232.875 170.875H234.219V179H232.875V172.953H232.812L228.75 179ZM236.984 181.242H235.852L236.609 177.266H238.055L236.984 181.242ZM246.172 179.141C243.68 179.141 242.367 177.469 242.367 174.242C242.367 169.758 243.555 167.891 246.711 167.773L247.312 167.75C248.094 167.711 248.969 167.555 249.43 167.312V168.5C249.172 168.734 248.312 168.938 247.375 168.977L246.773 169C244.516 169.086 243.844 170.078 243.516 172.508H243.578C244.109 171.547 245.125 171.047 246.375 171.047C248.57 171.047 249.969 172.594 249.969 175.016C249.969 177.57 248.523 179.141 246.172 179.141ZM246.172 177.938C247.695 177.938 248.578 176.883 248.578 175.016C248.578 173.242 247.695 172.234 246.172 172.234C244.641 172.234 243.758 173.242 243.758 175.016C243.758 176.883 244.641 177.938 246.172 177.938ZM258.438 179V170.875H259.781V179H258.438ZM254.344 174.586H252.828V177.883H254.344C255.398 177.883 256.078 177.227 256.078 176.234C256.078 175.234 255.391 174.586 254.344 174.586ZM251.484 179V170.875H252.828V173.469H254.367C256.227 173.469 257.422 174.539 257.422 176.234C257.422 177.93 256.227 179 254.367 179H251.484ZM263.859 175.414C263.695 177.656 263.156 179.07 261.445 179.07C261.211 179.07 261.055 179.023 260.961 178.984V177.758C261.031 177.781 261.18 177.82 261.375 177.82C262.18 177.82 262.484 176.875 262.586 175.383L262.898 170.875H268.219V179H266.875V171.992H264.109L263.859 175.414ZM273.516 179.141C271.266 179.141 269.75 177.523 269.75 174.938C269.75 172.344 271.266 170.734 273.516 170.734C275.758 170.734 277.273 172.344 277.273 174.938C277.273 177.523 275.758 179.141 273.516 179.141ZM273.516 177.945C274.953 177.945 275.891 176.852 275.891 174.938C275.891 173.023 274.953 171.93 273.516 171.93C272.078 171.93 271.133 173.023 271.133 174.938C271.133 176.852 272.078 177.945 273.516 177.945ZM283.406 179H282.062V170.875H283.406V176.922H283.469L287.531 170.875H288.875V179H287.531V172.953H287.469L283.406 179ZM296.133 179V175.344H292.125V179H290.781V170.875H292.125V174.227H296.133V170.875H297.477V179H296.133ZM305.336 170.875V171.992H302.711V179H301.367V171.992H298.742V170.875H305.336ZM309.703 171.914C308.43 171.914 307.539 172.891 307.453 174.242H311.867C311.836 172.883 310.984 171.914 309.703 171.914ZM311.836 176.672H313.172C312.938 178.094 311.562 179.141 309.789 179.141C307.461 179.141 306.047 177.523 306.047 174.969C306.047 172.445 307.484 170.734 309.727 170.734C311.922 170.734 313.273 172.328 313.273 174.789V175.305H307.445V175.383C307.445 176.938 308.359 177.961 309.82 177.961C310.852 177.961 311.609 177.438 311.836 176.672ZM318.734 170.734C320.805 170.734 322.211 172.391 322.211 174.938C322.211 177.484 320.812 179.141 318.766 179.141C317.602 179.141 316.664 178.57 316.18 177.68H316.148V181.711H314.789V170.875H316.078V172.25H316.109C316.609 171.336 317.555 170.734 318.734 170.734ZM318.469 177.945C319.914 177.945 320.82 176.781 320.82 174.938C320.82 173.102 319.914 171.93 318.469 171.93C317.078 171.93 316.141 173.133 316.141 174.938C316.141 176.75 317.078 177.945 318.469 177.945ZM326.984 171.914C325.711 171.914 324.82 172.891 324.734 174.242H329.148C329.117 172.883 328.266 171.914 326.984 171.914ZM329.117 176.672H330.453C330.219 178.094 328.844 179.141 327.07 179.141C324.742 179.141 323.328 177.523 323.328 174.969C323.328 172.445 324.766 170.734 327.008 170.734C329.203 170.734 330.555 172.328 330.555 174.789V175.305H324.727V175.383C324.727 176.938 325.641 177.961 327.102 177.961C328.133 177.961 328.891 177.438 329.117 176.672ZM338.789 173.375H337.445C337.211 172.594 336.547 171.93 335.398 171.93C333.984 171.93 333.055 173.125 333.055 174.938C333.055 176.797 334 177.945 335.414 177.945C336.492 177.945 337.203 177.414 337.461 176.516H338.805C338.539 178.055 337.234 179.141 335.406 179.141C333.148 179.141 331.672 177.523 331.672 174.938C331.672 172.406 333.141 170.734 335.391 170.734C337.352 170.734 338.547 171.992 338.789 173.375ZM345.57 179V175.344H341.562V179H340.219V170.875H341.562V174.227H345.57V170.875H346.914V179H345.57ZM352.203 179.141C349.953 179.141 348.438 177.523 348.438 174.938C348.438 172.344 349.953 170.734 352.203 170.734C354.445 170.734 355.961 172.344 355.961 174.938C355.961 177.523 354.445 179.141 352.203 179.141ZM352.203 177.945C353.641 177.945 354.578 176.852 354.578 174.938C354.578 173.023 353.641 171.93 352.203 171.93C350.766 171.93 349.82 173.023 349.82 174.938C349.82 176.852 350.766 177.945 352.203 177.945ZM357.859 181.242H356.727L357.484 177.266H358.93L357.859 181.242ZM72.2266 203V195.992H68.2969V203H66.9531V194.875H73.5781V203H72.2266ZM78.8594 203.141C76.6094 203.141 75.0938 201.523 75.0938 198.938C75.0938 196.344 76.6094 194.734 78.8594 194.734C81.1016 194.734 82.6172 196.344 82.6172 198.938C82.6172 201.523 81.1016 203.141 78.8594 203.141ZM78.8594 201.945C80.2969 201.945 81.2344 200.852 81.2344 198.938C81.2344 197.023 80.2969 195.93 78.8594 195.93C77.4219 195.93 76.4766 197.023 76.4766 198.938C76.4766 200.852 77.4219 201.945 78.8594 201.945ZM84.5703 206.039C84.4062 206.039 84.1328 206.023 83.9844 205.992V204.852C84.1328 204.883 84.3438 204.891 84.5156 204.891C85.2734 204.891 85.6953 204.523 86.0078 203.578L86.1953 203.008L83.1953 194.875H84.6484L86.8984 201.641H86.9219L89.1719 194.875H90.6016L87.4062 203.57C86.7109 205.469 86.0391 206.039 84.5703 206.039ZM98.0078 203H96.6641V199.492H96.5469C96.1094 199.867 95.4609 200.125 94.5781 200.125C92.6328 200.125 91.6094 198.945 91.6094 197.211V194.875H92.9531V197.195C92.9531 198.258 93.5234 198.938 94.6172 198.938C95.625 198.938 96.2891 198.562 96.6641 198.141V194.875H98.0078V203ZM101.266 203H99.9219V194.875H101.266V200.922H101.328L105.391 194.875H106.734V203H105.391V196.953H105.328L101.266 203ZM114.586 194.875V195.992H111.961V203H110.617V195.992H107.992V194.875H114.586ZM118.953 195.914C117.68 195.914 116.789 196.891 116.703 198.242H121.117C121.086 196.883 120.234 195.914 118.953 195.914ZM121.086 200.672H122.422C122.188 202.094 120.812 203.141 119.039 203.141C116.711 203.141 115.297 201.523 115.297 198.969C115.297 196.445 116.734 194.734 118.977 194.734C121.172 194.734 122.523 196.328 122.523 198.789V199.305H116.695V199.383C116.695 200.938 117.609 201.961 119.07 201.961C120.102 201.961 120.859 201.438 121.086 200.672ZM125.891 199.414C125.727 201.656 125.188 203.07 123.477 203.07C123.242 203.07 123.086 203.023 122.992 202.984V201.758C123.062 201.781 123.211 201.82 123.406 201.82C124.211 201.82 124.516 200.875 124.617 199.383L124.93 194.875H130.25V203H128.906V195.992H126.141L125.891 199.414ZM135.031 198.586H133.516V201.883H135.031C136.086 201.883 136.766 201.227 136.766 200.234C136.766 199.234 136.078 198.586 135.031 198.586ZM132.172 203V194.875H133.516V197.469H135.055C136.914 197.469 138.109 198.539 138.109 200.234C138.109 201.93 136.914 203 135.055 203H132.172ZM144.945 203V199.344H140.938V203H139.594V194.875H140.938V198.227H144.945V194.875H146.289V203H144.945ZM151.578 203.141C149.328 203.141 147.812 201.523 147.812 198.938C147.812 196.344 149.328 194.734 151.578 194.734C153.82 194.734 155.336 196.344 155.336 198.938C155.336 201.523 153.82 203.141 151.578 203.141ZM151.578 201.945C153.016 201.945 153.953 200.852 153.953 198.938C153.953 197.023 153.016 195.93 151.578 195.93C150.141 195.93 149.195 197.023 149.195 198.938C149.195 200.852 150.141 201.945 151.578 201.945ZM161.469 203H160.125V194.875H161.469V200.922H161.531L165.594 194.875H166.938V203H165.594V196.953H165.531L161.469 203ZM174.836 203.141C173.055 203.141 171.766 202.266 171.625 200.891H173C173.156 201.602 173.828 202.016 174.836 202.016C176.016 202.016 176.672 201.453 176.672 200.664C176.672 199.75 176.062 199.336 174.836 199.336H173.617V198.227H174.836C175.867 198.227 176.398 197.836 176.398 197.039C176.398 196.359 175.914 195.867 174.867 195.867C173.906 195.867 173.234 196.281 173.125 196.93H171.805C171.977 195.586 173.148 194.734 174.867 194.734C176.719 194.734 177.727 195.625 177.727 196.93C177.727 197.758 177.195 198.492 176.383 198.68V198.742C177.453 198.977 178.008 199.664 178.008 200.602C178.008 202.117 176.742 203.141 174.836 203.141ZM182.25 201.984C183.531 201.984 184.516 201.086 184.516 199.914V199.25L182.344 199.383C181.25 199.453 180.625 199.938 180.625 200.703C180.625 201.477 181.273 201.984 182.25 201.984ZM181.945 203.141C180.328 203.141 179.242 202.164 179.242 200.703C179.242 199.312 180.312 198.438 182.188 198.328L184.516 198.195V197.516C184.516 196.523 183.859 195.93 182.734 195.93C181.688 195.93 181.031 196.422 180.859 197.219H179.547C179.641 195.812 180.844 194.734 182.766 194.734C184.672 194.734 185.875 195.766 185.875 197.383V203H184.586V201.602H184.555C184.07 202.531 183.039 203.141 181.945 203.141ZM196.305 203V195.992H192.375V203H191.031V194.875H197.656V203H196.305ZM202.938 203.141C200.688 203.141 199.172 201.523 199.172 198.938C199.172 196.344 200.688 194.734 202.938 194.734C205.18 194.734 206.695 196.344 206.695 198.938C206.695 201.523 205.18 203.141 202.938 203.141ZM202.938 201.945C204.375 201.945 205.312 200.852 205.312 198.938C205.312 197.023 204.375 195.93 202.938 195.93C201.5 195.93 200.555 197.023 200.555 198.938C200.555 200.852 201.5 201.945 202.938 201.945ZM213.555 203V199.344H209.547V203H208.203V194.875H209.547V198.227H213.555V194.875H214.898V203H213.555ZM218.156 203H216.812V194.875H218.156V200.922H218.219L222.281 194.875H223.625V203H222.281V196.953H222.219L218.156 203ZM226.875 203H225.531V194.875H227.18L230.07 201.203H230.133L233.039 194.875H234.625V203H233.273V197.234H233.219L230.594 202.766H229.555L226.93 197.234H226.875V203ZM239.219 201.984C240.5 201.984 241.484 201.086 241.484 199.914V199.25L239.312 199.383C238.219 199.453 237.594 199.938 237.594 200.703C237.594 201.477 238.242 201.984 239.219 201.984ZM238.914 203.141C237.297 203.141 236.211 202.164 236.211 200.703C236.211 199.312 237.281 198.438 239.156 198.328L241.484 198.195V197.516C241.484 196.523 240.828 195.93 239.703 195.93C238.656 195.93 238 196.422 237.828 197.219H236.516C236.609 195.812 237.812 194.734 239.734 194.734C241.641 194.734 242.844 195.766 242.844 197.383V203H241.555V201.602H241.523C241.039 202.531 240.008 203.141 238.914 203.141ZM250.07 203V199.344H246.062V203H244.719V194.875H246.062V198.227H250.07V194.875H251.414V203H250.07ZM254.672 203H253.328V194.875H254.672V200.922H254.734L258.797 194.875H260.141V203H258.797V196.953H258.734L254.672 203ZM265.312 195.914C264.039 195.914 263.148 196.891 263.062 198.242H267.477C267.445 196.883 266.594 195.914 265.312 195.914ZM267.445 200.672H268.781C268.547 202.094 267.172 203.141 265.398 203.141C263.07 203.141 261.656 201.523 261.656 198.969C261.656 196.445 263.094 194.734 265.336 194.734C267.531 194.734 268.883 196.328 268.883 198.789V199.305H263.055V199.383C263.055 200.938 263.969 201.961 265.43 201.961C266.461 201.961 267.219 201.438 267.445 200.672ZM271.469 203.078C270.969 203.078 270.578 202.688 270.578 202.188C270.578 201.688 270.969 201.297 271.469 201.297C271.969 201.297 272.359 201.688 272.359 202.188C272.359 202.688 271.969 203.078 271.469 203.078ZM285.891 197.125L291.211 203H289.32L284.43 197.523H284.367V203H282.961V197.523H282.898L277.969 203H276.156L281.43 197.141L276.602 191.727H278.383L282.898 196.922H282.961V191.727H284.367V196.922H284.43L288.961 191.727H290.703L285.891 197.125ZM295.125 195.914C293.852 195.914 292.961 196.891 292.875 198.242H297.289C297.258 196.883 296.406 195.914 295.125 195.914ZM297.258 200.672H298.594C298.359 202.094 296.984 203.141 295.211 203.141C292.883 203.141 291.469 201.523 291.469 198.969C291.469 196.445 292.906 194.734 295.148 194.734C297.344 194.734 298.695 196.328 298.695 198.789V199.305H292.867V199.383C292.867 200.938 293.781 201.961 295.242 201.961C296.273 201.961 297.031 201.438 297.258 200.672ZM302.062 199.414C301.898 201.656 301.359 203.07 299.648 203.07C299.414 203.07 299.258 203.023 299.164 202.984V201.758C299.234 201.781 299.383 201.82 299.578 201.82C300.383 201.82 300.688 200.875 300.789 199.383L301.102 194.875H306.422V203H305.078V195.992H302.312L302.062 199.414ZM311.031 201.984C312.312 201.984 313.297 201.086 313.297 199.914V199.25L311.125 199.383C310.031 199.453 309.406 199.938 309.406 200.703C309.406 201.477 310.055 201.984 311.031 201.984ZM310.727 203.141C309.109 203.141 308.023 202.164 308.023 200.703C308.023 199.312 309.094 198.438 310.969 198.328L313.297 198.195V197.516C313.297 196.523 312.641 195.93 311.516 195.93C310.469 195.93 309.812 196.422 309.641 197.219H308.328C308.422 195.812 309.625 194.734 311.547 194.734C313.453 194.734 314.656 195.766 314.656 197.383V203H313.367V201.602H313.336C312.852 202.531 311.82 203.141 310.727 203.141ZM323.016 203.141C320.859 203.141 319.484 201.711 319.336 199.344H317.875V203H316.531V194.875H317.875V198.227H319.367C319.609 196.039 320.953 194.734 323.016 194.734C325.297 194.734 326.703 196.32 326.703 198.938C326.703 201.547 325.297 203.141 323.016 203.141ZM323.016 201.938C324.484 201.938 325.312 200.844 325.312 198.938C325.312 197.023 324.484 195.938 323.016 195.938C321.547 195.938 320.719 197.023 320.719 198.938C320.719 200.844 321.547 201.938 323.016 201.938ZM67.6328 230.039C67.4688 230.039 67.1953 230.023 67.0469 229.992V228.852C67.1953 228.883 67.4062 228.891 67.5781 228.891C68.3359 228.891 68.7578 228.523 69.0703 227.578L69.2578 227.008L66.2578 218.875H67.7109L69.9609 225.641H69.9844L72.2344 218.875H73.6641L70.4688 227.57C69.7734 229.469 69.1016 230.039 67.6328 230.039ZM79.9531 225.883V219.992H76.9062L76.6562 223.414C76.5859 224.422 76.375 225.305 75.9922 225.82V225.883H79.9531ZM75.0234 229.148H73.7578V225.883H74.4375C75.0312 225.492 75.3203 224.477 75.3984 223.383L75.7109 218.875H81.3047V225.883H82.5938V229.148H81.3281V227H75.0234V229.148ZM86.5 225.984C87.7812 225.984 88.7656 225.086 88.7656 223.914V223.25L86.5938 223.383C85.5 223.453 84.875 223.938 84.875 224.703C84.875 225.477 85.5234 225.984 86.5 225.984ZM86.1953 227.141C84.5781 227.141 83.4922 226.164 83.4922 224.703C83.4922 223.312 84.5625 222.438 86.4375 222.328L88.7656 222.195V221.516C88.7656 220.523 88.1094 219.93 86.9844 219.93C85.9375 219.93 85.2812 220.422 85.1094 221.219H83.7969C83.8906 219.812 85.0938 218.734 87.0156 218.734C88.9219 218.734 90.125 219.766 90.125 221.383V227H88.8359V225.602H88.8047C88.3203 226.531 87.2891 227.141 86.1953 227.141ZM98.1953 227H96.8516V223.492H96.7344C96.2969 223.867 95.6484 224.125 94.7656 224.125C92.8203 224.125 91.7969 222.945 91.7969 221.211V218.875H93.1406V221.195C93.1406 222.258 93.7109 222.938 94.8047 222.938C95.8125 222.938 96.4766 222.562 96.8516 222.141V218.875H98.1953V227ZM101.453 227H100.109V218.875H101.453V224.922H101.516L105.578 218.875H106.922V227H105.578V220.953H105.516L101.453 227ZM109.305 215.727H110.711L110.617 223.258H109.398L109.305 215.727ZM110.008 227.078C109.508 227.078 109.117 226.688 109.117 226.188C109.117 225.68 109.508 225.297 110.008 225.297C110.516 225.297 110.898 225.68 110.898 226.188C110.898 226.688 110.516 227.078 110.008 227.078Z" fill="#282828"/>
<g clip-path="url(#clip1_9_1563)">
<path d="M163 283.591C163 290.643 165.796 297.407 170.774 302.394C175.751 307.381 182.502 310.184 189.542 310.185L442.994 310.218C448.638 310.224 454.137 308.421 458.685 305.072C464.516 309.006 471.089 311.7 478 312.989C478 312.989 469.562 304.775 469.562 283.587C469.556 276.534 466.755 269.771 461.775 264.786C456.795 259.8 450.042 257 443.002 257H189.542C182.503 257 175.752 259.801 170.774 264.788C165.796 269.775 163 276.538 163 283.591Z" fill="#B89FFF"/>
<path d="M205.812 290.188C202.703 290.188 200.734 287.93 200.734 284.359C200.734 280.82 202.727 278.539 205.812 278.539C208.211 278.539 210.047 279.961 210.461 282.125H209.023C208.617 280.734 207.359 279.836 205.812 279.836C203.609 279.836 202.18 281.617 202.18 284.359C202.18 287.125 203.594 288.891 205.82 288.891C207.422 288.891 208.578 288.148 209.023 286.859H210.461C209.906 289 208.25 290.188 205.812 290.188ZM217.336 290V282.992H213.406V290H212.062V281.875H218.688V290H217.336ZM223.281 288.984C224.562 288.984 225.547 288.086 225.547 286.914V286.25L223.375 286.383C222.281 286.453 221.656 286.938 221.656 287.703C221.656 288.477 222.305 288.984 223.281 288.984ZM222.977 290.141C221.359 290.141 220.273 289.164 220.273 287.703C220.273 286.312 221.344 285.438 223.219 285.328L225.547 285.195V284.516C225.547 283.523 224.891 282.93 223.766 282.93C222.719 282.93 222.062 283.422 221.891 284.219H220.578C220.672 282.812 221.875 281.734 223.797 281.734C225.703 281.734 226.906 282.766 226.906 284.383V290H225.617V288.602H225.586C225.102 289.531 224.07 290.141 222.977 290.141ZM235.508 284.375H234.164C233.93 283.594 233.266 282.93 232.117 282.93C230.703 282.93 229.773 284.125 229.773 285.938C229.773 287.797 230.719 288.945 232.133 288.945C233.211 288.945 233.922 288.414 234.18 287.516H235.523C235.258 289.055 233.953 290.141 232.125 290.141C229.867 290.141 228.391 288.523 228.391 285.938C228.391 283.406 229.859 281.734 232.109 281.734C234.07 281.734 235.266 282.992 235.508 284.375ZM238.281 290H236.938V281.875H238.281V287.922H238.344L242.406 281.875H243.75V290H242.406V283.953H242.344L238.281 290ZM249.141 290.141C246.648 290.141 245.336 288.469 245.336 285.242C245.336 280.758 246.523 278.891 249.68 278.773L250.281 278.75C251.062 278.711 251.938 278.555 252.398 278.312V279.5C252.141 279.734 251.281 279.938 250.344 279.977L249.742 280C247.484 280.086 246.812 281.078 246.484 283.508H246.547C247.078 282.547 248.094 282.047 249.344 282.047C251.539 282.047 252.938 283.594 252.938 286.016C252.938 288.57 251.492 290.141 249.141 290.141ZM249.141 288.938C250.664 288.938 251.547 287.883 251.547 286.016C251.547 284.242 250.664 283.234 249.141 283.234C247.609 283.234 246.727 284.242 246.727 286.016C246.727 287.883 247.609 288.938 249.141 288.938ZM257.828 290.141C255.578 290.141 254.062 288.523 254.062 285.938C254.062 283.344 255.578 281.734 257.828 281.734C260.07 281.734 261.586 283.344 261.586 285.938C261.586 288.523 260.07 290.141 257.828 290.141ZM257.828 288.945C259.266 288.945 260.203 287.852 260.203 285.938C260.203 284.023 259.266 282.93 257.828 282.93C256.391 282.93 255.445 284.023 255.445 285.938C255.445 287.852 256.391 288.945 257.828 288.945ZM269.086 290.141C267.305 290.141 266.016 289.266 265.875 287.891H267.25C267.406 288.602 268.078 289.016 269.086 289.016C270.266 289.016 270.922 288.453 270.922 287.664C270.922 286.75 270.312 286.336 269.086 286.336H267.867V285.227H269.086C270.117 285.227 270.648 284.836 270.648 284.039C270.648 283.359 270.164 282.867 269.117 282.867C268.156 282.867 267.484 283.281 267.375 283.93H266.055C266.227 282.586 267.398 281.734 269.117 281.734C270.969 281.734 271.977 282.625 271.977 283.93C271.977 284.758 271.445 285.492 270.633 285.68V285.742C271.703 285.977 272.258 286.664 272.258 287.602C272.258 289.117 270.992 290.141 269.086 290.141ZM276.5 288.984C277.781 288.984 278.766 288.086 278.766 286.914V286.25L276.594 286.383C275.5 286.453 274.875 286.938 274.875 287.703C274.875 288.477 275.523 288.984 276.5 288.984ZM276.195 290.141C274.578 290.141 273.492 289.164 273.492 287.703C273.492 286.312 274.562 285.438 276.438 285.328L278.766 285.195V284.516C278.766 283.523 278.109 282.93 276.984 282.93C275.938 282.93 275.281 283.422 275.109 284.219H273.797C273.891 282.812 275.094 281.734 277.016 281.734C278.922 281.734 280.125 282.766 280.125 284.383V290H278.836V288.602H278.805C278.32 289.531 277.289 290.141 276.195 290.141ZM288.656 290.141C286.406 290.141 284.891 288.523 284.891 285.938C284.891 283.344 286.406 281.734 288.656 281.734C290.898 281.734 292.414 283.344 292.414 285.938C292.414 288.523 290.898 290.141 288.656 290.141ZM288.656 288.945C290.094 288.945 291.031 287.852 291.031 285.938C291.031 284.023 290.094 282.93 288.656 282.93C287.219 282.93 286.273 284.023 286.273 285.938C286.273 287.852 287.219 288.945 288.656 288.945ZM297.406 290.141C294.914 290.141 293.602 288.469 293.602 285.242C293.602 280.758 294.789 278.891 297.945 278.773L298.547 278.75C299.328 278.711 300.203 278.555 300.664 278.312V279.5C300.406 279.734 299.547 279.938 298.609 279.977L298.008 280C295.75 280.086 295.078 281.078 294.75 283.508H294.812C295.344 282.547 296.359 282.047 297.609 282.047C299.805 282.047 301.203 283.594 301.203 286.016C301.203 288.57 299.758 290.141 297.406 290.141ZM297.406 288.938C298.93 288.938 299.812 287.883 299.812 286.016C299.812 284.242 298.93 283.234 297.406 283.234C295.875 283.234 294.992 284.242 294.992 286.016C294.992 287.883 295.875 288.938 297.406 288.938ZM306.672 281.734C308.742 281.734 310.148 283.391 310.148 285.938C310.148 288.484 308.75 290.141 306.703 290.141C305.539 290.141 304.602 289.57 304.117 288.68H304.086V292.711H302.727V281.875H304.016V283.25H304.047C304.547 282.336 305.492 281.734 306.672 281.734ZM306.406 288.945C307.852 288.945 308.758 287.781 308.758 285.938C308.758 284.102 307.852 282.93 306.406 282.93C305.016 282.93 304.078 284.133 304.078 285.938C304.078 287.75 305.016 288.945 306.406 288.945ZM314.344 288.984C315.625 288.984 316.609 288.086 316.609 286.914V286.25L314.438 286.383C313.344 286.453 312.719 286.938 312.719 287.703C312.719 288.477 313.367 288.984 314.344 288.984ZM314.039 290.141C312.422 290.141 311.336 289.164 311.336 287.703C311.336 286.312 312.406 285.438 314.281 285.328L316.609 285.195V284.516C316.609 283.523 315.953 282.93 314.828 282.93C313.781 282.93 313.125 283.422 312.953 284.219H311.641C311.734 282.812 312.938 281.734 314.859 281.734C316.766 281.734 317.969 282.766 317.969 284.383V290H316.68V288.602H316.648C316.164 289.531 315.133 290.141 314.039 290.141ZM325.633 281.875V282.992H323.008V290H321.664V282.992H319.039V281.875H325.633ZM332.242 290V286.344H328.234V290H326.891V281.875H328.234V285.227H332.242V281.875H333.586V290H332.242ZM336.18 293.039C336.016 293.039 335.742 293.023 335.594 292.992V291.852C335.742 291.883 335.953 291.891 336.125 291.891C336.883 291.891 337.305 291.523 337.617 290.578L337.805 290.008L334.805 281.875H336.258L338.508 288.641H338.531L340.781 281.875H342.211L339.016 290.57C338.32 292.469 337.648 293.039 336.18 293.039ZM349.906 290.141C347.75 290.141 346.375 288.711 346.227 286.344H344.766V290H343.422V281.875H344.766V285.227H346.258C346.5 283.039 347.844 281.734 349.906 281.734C352.188 281.734 353.594 283.32 353.594 285.938C353.594 288.547 352.188 290.141 349.906 290.141ZM349.906 288.938C351.375 288.938 352.203 287.844 352.203 285.938C352.203 284.023 351.375 282.938 349.906 282.938C348.438 282.938 347.609 284.023 347.609 285.938C347.609 287.844 348.438 288.938 349.906 288.938ZM365.117 284.375H363.773C363.539 283.594 362.875 282.93 361.727 282.93C360.312 282.93 359.383 284.125 359.383 285.938C359.383 287.797 360.328 288.945 361.742 288.945C362.82 288.945 363.531 288.414 363.789 287.516H365.133C364.867 289.055 363.562 290.141 361.734 290.141C359.477 290.141 358 288.523 358 285.938C358 283.406 359.469 281.734 361.719 281.734C363.68 281.734 364.875 282.992 365.117 284.375ZM369.836 282.977H367.891V285.25H369.633C370.656 285.25 371.148 284.875 371.148 284.094C371.148 283.375 370.688 282.977 369.836 282.977ZM369.742 286.344H367.891V288.898H369.984C370.969 288.898 371.5 288.453 371.5 287.633C371.5 286.766 370.93 286.344 369.742 286.344ZM366.547 290V281.875H370.023C371.547 281.875 372.477 282.664 372.477 283.953C372.477 284.781 371.891 285.547 371.141 285.703V285.766C372.164 285.906 372.836 286.648 372.836 287.664C372.836 289.102 371.773 290 370.047 290H366.547ZM377.312 285.992H378.867V282.992H377.312C376.258 282.992 375.586 283.57 375.586 284.547C375.586 285.391 376.266 285.992 377.312 285.992ZM378.867 290V287.109H377.43L375.367 290H373.812L376.078 286.859C374.93 286.531 374.234 285.688 374.234 284.57C374.234 282.898 375.438 281.875 377.305 281.875H380.211V290H378.867ZM384.836 290.141C383.055 290.141 381.766 289.266 381.625 287.891H383C383.156 288.602 383.828 289.016 384.836 289.016C386.016 289.016 386.672 288.453 386.672 287.664C386.672 286.75 386.062 286.336 384.836 286.336H383.617V285.227H384.836C385.867 285.227 386.398 284.836 386.398 284.039C386.398 283.359 385.914 282.867 384.867 282.867C383.906 282.867 383.234 283.281 383.125 283.93H381.805C381.977 282.586 383.148 281.734 384.867 281.734C386.719 281.734 387.727 282.625 387.727 283.93C387.727 284.758 387.195 285.492 386.383 285.68V285.742C387.453 285.977 388.008 286.664 388.008 287.602C388.008 289.117 386.742 290.141 384.836 290.141ZM392.422 285.586H390.906V288.883H392.422C393.477 288.883 394.156 288.227 394.156 287.234C394.156 286.234 393.469 285.586 392.422 285.586ZM389.562 290V281.875H390.906V284.469H392.445C394.305 284.469 395.5 285.539 395.5 287.234C395.5 288.93 394.305 290 392.445 290H389.562ZM397.461 278.727H398.867L398.773 286.258H397.555L397.461 278.727ZM398.164 290.078C397.664 290.078 397.273 289.688 397.273 289.188C397.273 288.68 397.664 288.297 398.164 288.297C398.672 288.297 399.055 288.68 399.055 289.188C399.055 289.688 398.672 290.078 398.164 290.078Z" fill="white"/>
</g>
<defs>
<linearGradient id="paint0_linear_9_1563" x1="254.5" y1="0" x2="254.5" y2="457" gradientUnits="userSpaceOnUse">
<stop stop-color="#D7C4FF"/>
<stop offset="1" stop-color="#EDE4FF"/>
</linearGradient>
<clipPath id="clip0_9_1563">
<rect width="40" height="40" fill="white" transform="translate(18 18)"/>
</clipPath>
<clipPath id="clip1_9_1563">
<rect width="315" height="56" fill="white" transform="translate(163 257)"/>
</clipPath>
</defs>
</svg>
