<svg width="30" height="20" viewBox="0 0 30 20" fill="none" xmlns="http://www.w3.org/2000/svg">
<path d="M19.8333 17.9167C19.8333 18.7911 19.1245 19.5 18.25 19.5H2.08334C1.20888 19.5 0.5 18.7911 0.5 17.9167C0.5 17.0422 1.20888 16.3333 2.08333 16.3333H18.25C19.1244 16.3333 19.8333 17.0422 19.8333 17.9167ZM29.5 10C29.5 10.8745 28.7911 11.5833 27.9167 11.5833H2.08333C1.20888 11.5833 0.5 10.8745 0.5 10C0.5 9.12555 1.20888 8.41667 2.08333 8.41667H27.9167C28.7911 8.41667 29.5 9.12555 29.5 10ZM19.8333 2.08333C19.8333 2.95778 19.1245 3.66667 18.25 3.66667H2.08334C1.20888 3.66667 0.5 2.95778 0.5 2.08333C0.5 1.20888 1.20888 0.5 2.08333 0.5H18.25C19.1244 0.5 19.8333 1.20888 19.8333 2.08333Z" fill="#292825"/>
</svg>
