<svg width="17" height="17" viewBox="0 0 17 17" fill="none" xmlns="http://www.w3.org/2000/svg">
<path d="M0.867681 1.77484C0.808176 1.71533 0.760975 1.64469 0.728771 1.56694C0.696568 1.4892 0.679993 1.40587 0.679993 1.32172C0.679993 1.23756 0.696568 1.15424 0.728771 1.07649C0.760975 0.998743 0.808176 0.928101 0.867681 0.868596C0.927186 0.809092 0.997828 0.761891 1.07557 0.729687C1.15332 0.697483 1.23665 0.680908 1.3208 0.680908C1.40495 0.680908 1.48828 0.697483 1.56603 0.729687C1.64377 0.761891 1.71442 0.809092 1.77392 0.868596L8.3608 7.45676L14.9477 0.868596C15.0072 0.809092 15.0778 0.761891 15.1556 0.729687C15.2333 0.697483 15.3166 0.680908 15.4008 0.680908C15.485 0.680908 15.5683 0.697483 15.646 0.729687C15.7238 0.761891 15.7944 0.809092 15.8539 0.868596C15.9134 0.928101 15.9606 0.998743 15.9928 1.07649C16.025 1.15424 16.0416 1.23756 16.0416 1.32172C16.0416 1.40587 16.025 1.4892 15.9928 1.56694C15.9606 1.64469 15.9134 1.71533 15.8539 1.77484L9.26576 8.36172L15.8539 14.9486C15.9134 15.0081 15.9606 15.0787 15.9928 15.1565C16.025 15.2342 16.0416 15.3176 16.0416 15.4017C16.0416 15.4859 16.025 15.5692 15.9928 15.6469C15.9606 15.7247 15.9134 15.7953 15.8539 15.8548C15.7944 15.9143 15.7238 15.9615 15.646 15.9937C15.5683 16.0259 15.485 16.0425 15.4008 16.0425C15.3166 16.0425 15.2333 16.0259 15.1556 15.9937C15.0778 15.9615 15.0072 15.9143 14.9477 15.8548L8.3608 9.26668L1.77392 15.8548C1.71442 15.9143 1.64377 15.9615 1.56603 15.9937C1.48828 16.0259 1.40495 16.0425 1.3208 16.0425C1.23665 16.0425 1.15332 16.0259 1.07557 15.9937C0.997828 15.9615 0.927186 15.9143 0.867681 15.8548C0.808176 15.7953 0.760975 15.7247 0.728771 15.6469C0.696568 15.5692 0.679993 15.4859 0.679993 15.4017C0.679993 15.3176 0.696568 15.2342 0.728771 15.1565C0.760975 15.0787 0.808176 15.0081 0.867681 14.9486L7.45584 8.36172L0.867681 1.77484Z" fill="#232323" fill-opacity="0.6"/>
</svg>
