<svg width="320" height="125" viewBox="0 0 320 125" fill="none" xmlns="http://www.w3.org/2000/svg">
<path d="M106.446 58.0326C103.518 58.0326 100.937 57.6281 98.7017 56.8189C96.5055 56.0098 94.6367 54.8924 93.0955 53.4667C91.5928 52.0026 90.4176 50.3072 89.5699 48.3807C88.7608 46.4541 88.2791 44.3735 88.125 42.1387H94.367C94.4826 43.9111 95.0028 45.6257 95.9275 47.2825C96.8522 48.9008 98.2008 50.2301 99.9732 51.2705C101.784 52.3108 104.038 52.831 106.735 52.831C109.664 52.831 111.956 52.1952 113.613 50.9237C115.27 49.6137 116.098 47.8412 116.098 45.6064C116.098 43.3716 115.289 41.657 113.671 40.4626C112.091 39.2681 110.088 38.2663 107.66 37.4572L103.325 36.0123C101.129 35.2802 99.0292 34.4325 97.0256 33.4692C95.022 32.4674 93.3845 31.1574 92.1129 29.5391C90.8414 27.9208 90.2057 25.8016 90.2057 23.1815C90.2057 20.6384 90.8222 18.4807 92.0552 16.7083C93.2881 14.9359 95.0028 13.5873 97.199 12.6625C99.3953 11.6993 101.938 11.2176 104.828 11.2176C108.334 11.2176 111.224 11.8534 113.498 13.1249C115.771 14.3579 117.486 15.9955 118.641 18.0376C119.797 20.0797 120.452 22.3338 120.607 24.7998H114.365C114.249 23.3741 113.844 22.0255 113.151 20.754C112.496 19.4825 111.475 18.4422 110.088 17.633C108.7 16.8239 106.87 16.4193 104.597 16.4193C102.131 16.4193 100.147 16.978 98.6439 18.0954C97.1798 19.1743 96.4477 20.677 96.4477 22.6035C96.4477 24.7612 97.2954 26.4181 98.9907 27.574C100.725 28.7299 102.786 29.6932 105.175 30.4638L109.567 31.9087C111.764 32.6023 113.825 33.4499 115.752 34.4517C117.717 35.4536 119.296 36.7829 120.491 38.4397C121.724 40.058 122.34 42.235 122.34 44.9707C122.34 49.132 120.896 52.3493 118.006 54.6227C115.116 56.896 111.263 58.0326 106.446 58.0326Z" fill="black"/>
<path d="M129.836 57.1657V10.9286H135.962V36.648H138.737L150.065 22.4879H157V22.8347L143.823 38.7865L158.387 56.8189V57.1657H150.758L138.737 41.8497H135.962V57.1657H129.836Z" fill="black"/>
<path d="M164.051 57.1657V22.4879H170.293V57.1657H164.051ZM167.172 17.633C165.978 17.633 165.034 17.2862 164.34 16.5927C163.685 15.8991 163.358 14.9744 163.358 13.8185C163.358 12.6625 163.685 11.7378 164.34 11.0442C165.034 10.3507 165.978 10.0039 167.172 10.0039C168.405 10.0039 169.349 10.3507 170.004 11.0442C170.659 11.7378 170.987 12.6625 170.987 13.8185C170.987 14.9744 170.659 15.8991 170.004 16.5927C169.349 17.2862 168.405 17.633 167.172 17.633Z" fill="black"/>
<path d="M182.435 57.1657C181.587 56.1254 180.894 54.8731 180.354 53.4089C179.853 51.9448 179.603 49.7485 179.603 46.8202V10.9286H185.845V46.011C185.845 49.0935 186.173 51.4053 186.828 52.9466C187.521 54.4878 188.35 55.7786 189.313 56.8189V57.1657H182.435Z" fill="black"/>
<path d="M198.276 57.1657C197.428 56.1254 196.735 54.8731 196.195 53.4089C195.694 51.9448 195.444 49.7485 195.444 46.8202V10.9286H201.686V46.011C201.686 49.0935 202.013 51.4053 202.668 52.9466C203.362 54.4878 204.19 55.7786 205.154 56.8189V57.1657H198.276Z" fill="black"/>
<path d="M91.0148 114.937V69.8555H105.753C113.536 69.8555 119.162 71.8398 122.629 75.8085C126.136 79.7387 127.889 85.2678 127.889 92.3961C127.889 99.5243 126.136 105.073 122.629 109.041C119.162 112.972 113.536 114.937 105.753 114.937H91.0148ZM97.5458 109.504H105.175C109.067 109.504 112.188 108.887 114.538 107.654C116.927 106.383 118.641 104.475 119.682 101.932C120.761 99.3894 121.3 96.2106 121.3 92.3961C121.3 88.543 120.761 85.3642 119.682 82.8597C118.641 80.3166 116.927 78.4286 114.538 77.1956C112.188 75.9241 109.067 75.2883 105.175 75.2883H97.5458V109.504Z" fill="black"/>
<path d="M148.113 115.804C143.027 115.804 139.155 114.147 136.496 110.833C133.876 107.481 132.566 103.069 132.566 97.5977C132.566 93.9758 133.144 90.8163 134.3 88.1191C135.494 85.3834 137.228 83.245 139.501 81.7037C141.813 80.1625 144.665 79.3919 148.055 79.3919C152.795 79.3919 156.397 80.9331 158.863 84.0156C161.368 87.0981 162.62 91.5676 162.62 97.4243V99.216H138.634C138.827 102.607 139.694 105.4 141.235 107.596C142.815 109.754 145.127 110.833 148.171 110.833C150.367 110.833 152.14 110.217 153.488 108.984C154.837 107.751 155.8 106.036 156.378 103.84H162.273C161.772 106.19 160.944 108.271 159.788 110.082C158.632 111.854 157.091 113.261 155.164 114.301C153.238 115.303 150.887 115.804 148.113 115.804ZM138.692 94.7079H156.551C156.436 91.3557 155.627 88.7934 154.124 87.021C152.621 85.2486 150.579 84.3624 147.997 84.3624C145.262 84.3624 143.104 85.2678 141.524 87.0788C139.983 88.8897 139.039 91.4328 138.692 94.7079Z" fill="black"/>
<path d="M180.973 115.804C176.927 115.804 173.98 114.551 172.13 112.047C170.319 109.542 169.414 106.364 169.414 102.51V80.2588H175.656V101.181C175.656 104.187 176.195 106.498 177.274 108.117C178.353 109.696 180.029 110.486 182.302 110.486C185.154 110.486 187.35 109.388 188.891 107.192C190.471 104.957 191.261 102.202 191.261 98.927V80.2588H197.503V114.937H191.954V109.735H190.567C189.951 111.662 188.814 113.164 187.157 114.243C185.539 115.283 183.478 115.804 180.973 115.804Z" fill="black"/>
<path d="M211.454 114.937C210.607 113.896 209.913 112.644 209.374 111.18C208.873 109.716 208.622 107.519 208.622 104.591V85.1137H203.883V80.2588H208.738V71.5894H214.749V80.2588H220.644V85.1137H214.864V103.609C214.864 106.768 215.192 109.138 215.847 110.717C216.54 112.259 217.369 113.55 218.332 114.59V114.937H211.454Z" fill="black"/>
<path d="M238.352 115.804C235.154 115.804 232.515 115.245 230.434 114.127C228.353 112.972 226.793 111.488 225.753 109.677C224.712 107.828 224.134 105.882 224.019 103.84H230.145C230.261 104.996 230.627 106.132 231.243 107.25C231.86 108.329 232.765 109.215 233.96 109.908C235.154 110.602 236.676 110.949 238.525 110.949C240.568 110.949 242.147 110.525 243.265 109.677C244.382 108.791 244.941 107.635 244.941 106.209C244.941 104.976 244.498 103.936 243.612 103.088C242.764 102.202 241.435 101.432 239.624 100.777L235.52 99.3316C233.671 98.6381 231.995 97.8867 230.492 97.0776C229.028 96.2299 227.852 95.1896 226.966 93.9566C226.08 92.685 225.637 91.086 225.637 89.1595C225.637 86.1926 226.697 83.8229 228.816 82.0505C230.935 80.2781 233.844 79.3919 237.543 79.3919C240.202 79.3919 242.398 79.8543 244.132 80.779C245.904 81.7037 247.253 82.9753 248.177 84.5936C249.102 86.1733 249.642 87.965 249.796 89.9686H243.901C243.746 88.5044 243.168 87.1944 242.167 86.0385C241.165 84.844 239.527 84.2468 237.254 84.2468C235.443 84.2468 234.056 84.6514 233.093 85.4605C232.129 86.2311 231.648 87.2907 231.648 88.6393C231.648 89.9494 232.11 91.0282 233.035 91.8759C233.96 92.7236 235.347 93.4942 237.196 94.1877L241.3 95.5749C243.149 96.2684 244.806 97.039 246.27 97.8867C247.734 98.6959 248.871 99.7169 249.68 100.95C250.528 102.183 250.952 103.763 250.952 105.689C250.952 108.656 249.873 111.084 247.715 112.972C245.557 114.86 242.436 115.804 238.352 115.804Z" fill="black"/>
<path d="M270.616 115.804C265.607 115.804 261.831 114.147 259.288 110.833C256.783 107.481 255.531 103.069 255.531 97.5977C255.531 92.0493 256.803 87.6375 259.346 84.3624C261.927 81.0487 265.684 79.3919 270.616 79.3919C274.662 79.3919 277.918 80.5285 280.384 82.8019C282.888 85.0367 284.41 88.2347 284.95 92.3961H278.881C278.534 89.9301 277.686 88.0035 276.338 86.6164C274.989 85.1908 273.14 84.478 270.789 84.478C267.745 84.478 265.491 85.6532 264.027 88.0035C262.602 90.3539 261.889 93.552 261.889 97.5977C261.889 101.643 262.602 104.842 264.027 107.192C265.491 109.542 267.745 110.717 270.789 110.717C273.14 110.717 274.989 110.024 276.338 108.637C277.686 107.211 278.534 105.265 278.881 102.799H284.95C284.333 106.999 282.792 110.217 280.326 112.451C277.86 114.686 274.623 115.804 270.616 115.804Z" fill="black"/>
<path d="M291.622 114.937V68.6996H297.864V84.7669H299.251C300.099 83.0331 301.255 81.7037 302.719 80.779C304.183 79.8543 306.033 79.3919 308.268 79.3919C312.236 79.3919 315.126 80.6441 316.937 83.1486C318.787 85.6146 319.711 88.7934 319.711 92.685V114.937H313.469V94.0144C313.469 91.0089 312.93 88.7164 311.851 87.1366C310.772 85.5183 309.096 84.7092 306.823 84.7092C304.01 84.7092 301.814 85.8265 300.234 88.0613C298.654 90.2576 297.864 92.9933 297.864 96.2684V114.937H291.622Z" fill="black"/>
<path fill-rule="evenodd" clip-rule="evenodd" d="M5.49497 40.9785L46.0496 0.464844L61.0532 15.4411L24.8861 51.5717H47.7796C64.2301 51.5717 72.6177 71.2978 61.1927 83.1169L20.7063 125L5.44308 110.288L41.7236 72.7556H18.68C2.07298 72.7556 -6.24549 52.7071 5.49497 40.9785Z" fill="black"/>
</svg>
