<svg width="32" height="33" viewBox="0 0 32 33" fill="none" xmlns="http://www.w3.org/2000/svg">
<g clip-path="url(#clip0_9_2037)">
<path d="M30.0033 23.5768C33.0955 19.2383 32.6228 13.2942 28.3992 9.42227C26.4694 7.65321 24.0092 6.55189 21.3516 6.24433C21.3351 6.22395 21.3181 6.20377 21.2996 6.18445C18.9876 3.78289 15.6661 2.40552 12.1868 2.40552C5.56556 2.40552 0 7.33883 0 13.6555C0 15.8702 0.687937 17.9933 1.99475 19.8268L0.169188 25.5585C0.0544375 25.9187 0.167312 26.3125 0.455375 26.5573C0.743937 26.8026 1.151 26.8497 1.48731 26.6786L7.039 23.8557C8.17912 24.3466 9.38813 24.6688 10.6401 24.8153C13.0553 27.3551 16.3947 28.6555 19.8113 28.6555C21.5872 28.6555 23.3568 28.2936 24.9587 27.6056L30.5107 30.4287C30.6451 30.4971 30.7907 30.5305 30.9354 30.5305C31.5681 30.5305 32.0216 29.914 31.8288 29.3085L30.0033 23.5768ZM7.41738 21.9693C7.15481 21.8446 6.84937 21.8488 6.59031 21.9805L2.63613 23.9911L3.92738 19.937C4.02138 19.6418 3.96356 19.3193 3.77281 19.0753C2.53119 17.4859 1.87487 15.6118 1.87487 13.6555C1.87487 8.48614 6.50075 4.28052 12.1868 4.28052C14.4765 4.28052 16.6808 4.97421 18.4689 6.22339C12.4471 6.82889 7.6245 11.5323 7.6245 17.4055C7.6245 19.2323 8.09275 20.9909 8.97556 22.5665C8.44106 22.4073 7.9205 22.2083 7.41738 21.9693ZM25.4077 25.7305C25.1524 25.6006 24.8467 25.5928 24.5806 25.7193C23.1191 26.4136 21.4699 26.7805 19.8113 26.7805C14.1253 26.7805 9.49938 22.5749 9.49938 17.4055C9.49938 12.2361 14.1253 8.03052 19.8113 8.03052C25.4972 8.03052 30.1231 12.2361 30.1231 17.4055C30.1231 19.3618 29.4668 21.2359 28.2251 22.8252C28.0344 23.0693 27.9766 23.3918 28.0706 23.687L29.3618 27.7411L25.4077 25.7305Z" fill="white"/>
<path d="M15.999 18.343C16.5168 18.343 16.9365 17.9233 16.9365 17.4055C16.9365 16.8878 16.5168 16.468 15.999 16.468C15.4813 16.468 15.0615 16.8878 15.0615 17.4055C15.0615 17.9233 15.4813 18.343 15.999 18.343Z" fill="white"/>
<path d="M19.749 18.343C20.2668 18.343 20.6865 17.9233 20.6865 17.4055C20.6865 16.8878 20.2668 16.468 19.749 16.468C19.2313 16.468 18.8115 16.8878 18.8115 17.4055C18.8115 17.9233 19.2313 18.343 19.749 18.343Z" fill="white"/>
<path d="M23.4985 18.343C24.0163 18.343 24.436 17.9233 24.436 17.4055C24.436 16.8878 24.0163 16.468 23.4985 16.468C22.9808 16.468 22.561 16.8878 22.561 17.4055C22.561 17.9233 22.9808 18.343 23.4985 18.343Z" fill="white"/>
</g>
<defs>
<clipPath id="clip0_9_2037">
<rect width="32" height="32" fill="white" transform="translate(0 0.468018)"/>
</clipPath>
</defs>
</svg>
