<svg width="32" height="33" viewBox="0 0 32 33" fill="none" xmlns="http://www.w3.org/2000/svg">
<g clip-path="url(#clip0_9_2028)">
<path d="M6.3999 11.668V14.068C6.3999 14.3863 6.52633 14.6915 6.75137 14.9165C6.97642 15.1416 7.28164 15.268 7.5999 15.268C7.91816 15.268 8.22339 15.1416 8.44843 14.9165C8.67347 14.6915 8.7999 14.3863 8.7999 14.068V8.66802C8.7999 7.55411 8.3574 6.48582 7.56975 5.69817C6.7821 4.91052 5.71381 4.46802 4.5999 4.46802C3.48599 4.46802 2.41771 4.91052 1.63005 5.69817C0.842401 6.48582 0.399902 7.55411 0.399902 8.66802V14.068C0.399902 14.3863 0.52633 14.6915 0.751374 14.9165C0.976418 15.1416 1.28164 15.268 1.5999 15.268C1.91816 15.268 2.22339 15.1416 2.44843 14.9165C2.67347 14.6915 2.7999 14.3863 2.7999 14.068V11.668H6.3999ZM4.5999 6.86802C5.07729 6.86802 5.53513 7.05766 5.87269 7.39523C6.21026 7.73279 6.3999 8.19063 6.3999 8.66802V9.26802H2.7999V8.66802C2.7999 8.19063 2.98954 7.73279 3.32711 7.39523C3.66468 7.05766 4.12251 6.86802 4.5999 6.86802Z" fill="white"/>
<path d="M12.4002 15.268H16.0002C16.955 15.268 17.8706 14.8888 18.5458 14.2136C19.2209 13.5385 19.6002 12.6228 19.6002 11.668V8.06804C19.6002 7.11326 19.2209 6.19759 18.5458 5.52246C17.8706 4.84733 16.955 4.46804 16.0002 4.46804H13.6002V2.06804C13.6002 1.74978 13.4738 1.44456 13.2487 1.21951C13.0237 0.99447 12.7185 0.868042 12.4002 0.868042C12.0819 0.868042 11.7767 0.99447 11.5517 1.21951C11.3266 1.44456 11.2002 1.74978 11.2002 2.06804V14.068C11.2002 14.3863 11.3266 14.6915 11.5517 14.9166C11.7767 15.1416 12.0819 15.268 12.4002 15.268ZM16.0002 6.86804C16.3185 6.86804 16.6237 6.99447 16.8487 7.21951C17.0738 7.44456 17.2002 7.74978 17.2002 8.06804V11.668C17.2002 11.9863 17.0738 12.2915 16.8487 12.5166C16.6237 12.7416 16.3185 12.868 16.0002 12.868H13.6002V6.86804H16.0002Z" fill="white"/>
<path d="M26.8 15.268H28C28.3183 15.268 28.6235 15.1416 28.8485 14.9165C29.0736 14.6915 29.2 14.3863 29.2 14.068C29.2 13.7498 29.0736 13.4445 28.8485 13.2195C28.6235 12.9944 28.3183 12.868 28 12.868H26.8C26.1635 12.868 25.553 12.6152 25.1029 12.1651C24.6529 11.715 24.4 11.1045 24.4 10.468V9.26802C24.4 8.6315 24.6529 8.02105 25.1029 7.57096C25.553 7.12087 26.1635 6.86802 26.8 6.86802H28C28.3183 6.86802 28.6235 6.74159 28.8485 6.51655C29.0736 6.2915 29.2 5.98628 29.2 5.66802C29.2 5.34976 29.0736 5.04453 28.8485 4.81949C28.6235 4.59445 28.3183 4.46802 28 4.46802H26.8C25.527 4.46802 24.3061 4.97373 23.4059 5.8739C22.5057 6.77408 22 7.99498 22 9.26802V10.468C22 11.7411 22.5057 12.962 23.4059 13.8621C24.3061 14.7623 25.527 15.268 26.8 15.268Z" fill="white"/>
<path d="M31.252 18.016C31.1405 17.9035 31.0078 17.8142 30.8615 17.7533C30.7153 17.6924 30.5584 17.661 30.4 17.661C30.2416 17.661 30.0848 17.6924 29.9385 17.7533C29.7923 17.8142 29.6596 17.9035 29.548 18.016L18.4 29.176L15.892 26.668L22.852 19.72C23.078 19.494 23.2049 19.1875 23.2049 18.868C23.2049 18.5484 23.078 18.2419 22.852 18.016C22.6261 17.79 22.3196 17.6631 22 17.6631C21.6805 17.6631 21.374 17.79 21.148 18.016L10 29.176L6.05203 25.216C5.82606 24.99 5.51959 24.8631 5.20003 24.8631C4.88047 24.8631 4.57399 24.99 4.34803 25.216C4.12206 25.4419 3.99512 25.7484 3.99512 26.068C3.99512 26.3875 4.12206 26.694 4.34803 26.92L9.14803 31.72C9.25958 31.8324 9.3923 31.9217 9.53854 31.9826C9.68477 32.0436 9.84161 32.0749 10 32.0749C10.1584 32.0749 10.3153 32.0436 10.4615 31.9826C10.6078 31.9217 10.7405 31.8324 10.852 31.72L14.2 28.36L17.548 31.72C17.6596 31.8324 17.7923 31.9217 17.9385 31.9826C18.0848 32.0436 18.2416 32.0749 18.4 32.0749C18.5584 32.0749 18.7153 32.0436 18.8615 31.9826C19.0078 31.9217 19.1405 31.8324 19.252 31.72L31.252 19.72C31.3645 19.6084 31.4538 19.4757 31.5147 19.3295C31.5756 19.1832 31.607 19.0264 31.607 18.868C31.607 18.7096 31.5756 18.5527 31.5147 18.4065C31.4538 18.2602 31.3645 18.1275 31.252 18.016Z" fill="white"/>
</g>
<defs>
<clipPath id="clip0_9_2028">
<rect width="32" height="32" fill="white" transform="translate(0 0.468018)"/>
</clipPath>
</defs>
</svg>
