<svg width="32" height="33" viewBox="0 0 32 33" fill="none" xmlns="http://www.w3.org/2000/svg">
<g clip-path="url(#clip0_9_2033)">
<path d="M16 32.468C12.8355 32.468 9.74207 31.5296 7.11088 29.7715C4.4797 28.0134 2.42894 25.5146 1.21793 22.591C0.00693253 19.6673 -0.309921 16.4503 0.307443 13.3466C0.924806 10.2429 2.44866 7.39195 4.6863 5.15431C6.92394 2.91668 9.77487 1.39282 12.8786 0.77546C15.9823 0.158097 19.1993 0.47495 22.1229 1.68595C25.0466 2.89695 27.5454 4.94771 29.3035 7.5789C31.0616 10.2101 32 13.3035 32 16.468C32 20.7115 30.3143 24.7811 27.3137 27.7817C24.3131 30.7823 20.2435 32.468 16 32.468ZM16 2.75374C13.2876 2.75374 10.6361 3.55807 8.38076 5.06501C6.12545 6.57196 4.36766 8.71384 3.32966 11.2198C2.29166 13.7258 2.02007 16.4832 2.54924 19.1435C3.07841 21.8039 4.38456 24.2475 6.30254 26.1655C8.22052 28.0835 10.6642 29.3896 13.3245 29.9188C15.9848 30.448 18.7423 30.1764 21.2482 29.1384C23.7542 28.1004 25.8961 26.3426 27.403 24.0873C28.91 21.832 29.7143 19.1805 29.7143 16.468C29.7143 12.8308 28.2694 9.34249 25.6975 6.77056C23.1255 4.19863 19.6373 2.75374 16 2.75374Z" fill="white"/>
<path d="M21.7141 22.1822C21.4563 22.1808 21.2066 22.0921 21.0055 21.9308L15.2912 17.3594C15.1565 17.253 15.0475 17.1176 14.9724 16.9632C14.8972 16.8089 14.8577 16.6396 14.8569 16.468V7.32511C14.8569 7.022 14.9773 6.73131 15.1917 6.51699C15.406 6.30266 15.6967 6.18225 15.9998 6.18225C16.3029 6.18225 16.5936 6.30266 16.8079 6.51699C17.0222 6.73131 17.1426 7.022 17.1426 7.32511V15.9194L22.4226 20.148C22.6581 20.3365 22.8095 20.6106 22.8438 20.9103C22.878 21.21 22.7924 21.5111 22.6055 21.748C22.4991 21.8827 22.3637 21.9916 22.2093 22.0668C22.055 22.142 21.8857 22.1815 21.7141 22.1822Z" fill="white"/>
</g>
<defs>
<clipPath id="clip0_9_2033">
<rect width="32" height="32" fill="white" transform="translate(0 0.468018)"/>
</clipPath>
</defs>
</svg>
