<svg width="32" height="23" viewBox="0 0 32 23" fill="none" xmlns="http://www.w3.org/2000/svg">
<g clip-path="url(#clip0_9_2042)">
<path d="M30.5566 8.2256L30.5648 8.22173C30.6903 8.21809 30.8095 8.16593 30.8973 8.07623C30.9851 7.98653 31.0347 7.86627 31.0356 7.74076C31.0363 7.67734 31.0245 7.61441 31.0007 7.55562C30.9769 7.49682 30.9417 7.44333 30.8971 7.39823C30.8525 7.35314 30.7994 7.31734 30.7409 7.29291C30.6823 7.26848 30.6195 7.2559 30.5561 7.25591C30.4194 7.21227 30.0606 6.62221 30.0606 5.55894C30.0606 4.49566 30.4199 3.9056 30.5566 3.86197L30.5634 3.85857C30.6824 3.8501 30.794 3.79808 30.877 3.71246C30.9601 3.62684 31.0086 3.51363 31.0134 3.39447C31.0182 3.2753 30.9789 3.15855 30.9031 3.06653C30.8272 2.97451 30.7201 2.91368 30.6022 2.89566L14.976 1.05809C14.3677 0.985846 13.753 0.985846 13.1447 1.05809L1.8817 2.41082H1.87442C0.962424 2.47385 0.484848 3.78003 0.484848 5.07409C0.453126 5.84353 0.656034 6.60443 1.06667 7.25591C0.655892 7.90732 0.452972 8.66827 0.484848 9.43773C0.458807 10.1784 0.643768 10.9111 1.01818 11.5507C0.348606 12.2246 0 13.6229 0 15.0135C0 16.9248 0.65503 18.8598 1.90739 18.8923L18.3675 20.8288C18.3863 20.8309 18.4053 20.8319 18.4242 20.8317C18.4435 20.8318 18.4628 20.8306 18.4819 20.8283L22.303 20.3696V22.2862C22.303 22.3923 22.3377 22.4954 22.4019 22.5798C22.4661 22.6642 22.5562 22.7253 22.6584 22.7536C22.7006 22.7651 22.7441 22.771 22.7879 22.7711C22.8715 22.771 22.9538 22.7494 23.0266 22.7082C23.0994 22.667 23.1603 22.6076 23.2034 22.5359L24.287 20.7298L25.3091 22.0923C25.3701 22.1737 25.4553 22.2338 25.5524 22.2642C25.6495 22.2945 25.7538 22.2935 25.8503 22.2613C25.9468 22.2292 26.0308 22.1674 26.0903 22.0849C26.1498 22.0023 26.1818 21.9031 26.1818 21.8014V19.9046L30.6032 19.3737C30.7259 19.3591 30.8385 19.2981 30.9178 19.2033C30.9972 19.1084 31.0372 18.9868 31.0299 18.8634C31.0225 18.7399 30.9682 18.624 30.8782 18.5392C30.7881 18.4545 30.6691 18.4073 30.5455 18.4074C30.2061 18.4074 29.5758 17.3029 29.5758 15.4983C29.5758 13.7092 30.1712 12.6736 30.5455 12.5892C30.6747 12.5896 30.7988 12.5388 30.8906 12.448C30.9825 12.3571 31.0346 12.2336 31.0356 12.1044C31.0367 11.9859 30.9938 11.8712 30.9153 11.7824C30.8368 11.6936 30.7282 11.6369 30.6104 11.6234C30.5913 11.6211 30.572 11.6199 30.5527 11.6195C30.4136 11.5662 30.0606 10.9776 30.0606 9.92257C30.0606 8.85591 30.4199 8.26924 30.5566 8.2256ZM15.6543 19.5328C15.1966 18.6146 14.9818 17.5946 15.0303 16.5698C14.9948 15.5861 15.1861 14.6073 15.5893 13.7092L17.1859 13.8969C16.6912 14.8375 16.4496 15.8906 16.4848 16.9529C16.4684 17.8936 16.6501 18.8273 17.0182 19.6932L15.6543 19.5328ZM13.6975 19.3025C13.2549 18.3892 13.0464 17.3801 13.0909 16.3662C13.052 15.3741 13.2491 14.3869 13.6659 13.4857L14.5726 13.5924C14.2117 14.5426 14.0379 15.5536 14.0606 16.5698C14.0454 17.5327 14.2009 18.4907 14.5198 19.3994L13.6975 19.3025ZM5.86036 18.3812C5.49111 17.508 5.31465 16.5653 5.34303 15.6176C5.28635 14.5654 5.51981 13.5178 6.01794 12.5892L12.5939 13.3616C12.6085 13.3616 12.6216 13.3703 12.6361 13.3703C12.6398 13.3706 12.6436 13.3706 12.6473 13.3703C12.2795 14.3255 12.1008 15.3429 12.1212 16.3662C12.1072 17.3198 12.2591 18.2686 12.5702 19.1701L5.86036 18.3812ZM3.92436 18.1538C3.55142 17.2787 3.37372 16.3328 3.40364 15.382C3.34622 14.3319 3.57763 13.2862 4.07273 12.3585L4.97552 12.4646C4.55002 13.4595 4.34397 14.5344 4.37139 15.6161C4.36006 16.51 4.49098 17.4 4.75927 18.2528L3.92436 18.1538ZM1.95006 11.1347C1.81333 11.0911 1.45455 10.501 1.45455 9.43773C1.45455 8.38366 1.80655 7.79603 1.93552 7.74367L4.23224 8.0113C4.24049 8.0113 4.24679 8.01761 4.25455 8.01857L14.0068 9.16282C13.7898 9.79713 13.685 10.4644 13.697 11.1347C13.6957 11.6044 13.746 12.0728 13.8468 12.5315L12.9193 12.4229C12.6917 11.8604 12.5849 11.2563 12.6061 10.6498C12.6056 10.3602 12.6381 10.0715 12.703 9.78924C12.7174 9.72719 12.7193 9.66293 12.7088 9.60012C12.6983 9.53732 12.6755 9.4772 12.6418 9.42319C12.608 9.36919 12.564 9.32236 12.5121 9.28538C12.4603 9.2484 12.4017 9.22199 12.3396 9.20766C12.2776 9.19334 12.2133 9.19137 12.1505 9.20188C12.0877 9.21239 12.0276 9.23517 11.9736 9.26891C11.9196 9.30266 11.8728 9.34671 11.8358 9.39855C11.7988 9.45039 11.7724 9.50901 11.7581 9.57106C11.6769 9.92492 11.6361 10.2868 11.6364 10.6498C11.6311 11.2064 11.7021 11.761 11.8473 12.2983L5.84097 11.5924H5.83079L3.89818 11.3645C3.89382 11.3645 3.88994 11.3645 3.88558 11.3645L1.95006 11.1347ZM4.67394 3.701L6.55661 3.9216H6.56145L17.3348 5.19142C17.0829 5.76527 16.9583 6.38689 16.9697 7.01348C16.9657 7.54136 17.0518 8.06605 17.2242 8.565L6.73067 7.333C6.60166 6.83285 6.53939 6.31784 6.54545 5.80136C6.54477 5.49794 6.56339 5.19478 6.60121 4.89373C6.60936 4.83056 6.60499 4.76641 6.58835 4.70494C6.57171 4.64347 6.54312 4.58588 6.50422 4.53545C6.46532 4.48503 6.41687 4.44276 6.36164 4.41106C6.3064 4.37936 6.24547 4.35884 6.1823 4.35069C6.11914 4.34254 6.05499 4.34692 5.99352 4.36356C5.93205 4.3802 5.87445 4.40878 5.82403 4.44768C5.7736 4.48658 5.73133 4.53503 5.69963 4.59027C5.66793 4.6455 5.64742 4.70644 5.63927 4.7696C5.59621 5.11183 5.575 5.45644 5.57576 5.80136C5.57431 6.27515 5.61864 6.74797 5.70812 7.21324L4.62594 7.08621C4.43385 6.51663 4.34502 5.91732 4.36364 5.31651C4.36311 4.76315 4.46843 4.21479 4.67394 3.701ZM18.4242 5.31651C18.4434 5.31658 18.4625 5.31544 18.4815 5.31312L29.3421 4.0113C29.1712 4.5092 29.0862 5.03255 29.0909 5.55894C29.0793 6.18685 29.2046 6.80976 29.4579 7.38439L18.4296 8.70609C18.289 8.65033 17.9394 8.06706 17.9394 7.01348C17.9394 5.95021 18.2982 5.36015 18.4242 5.31651ZM14.8848 12.6532C14.7342 12.1614 14.6606 11.6491 14.6667 11.1347C14.6325 10.4975 14.7543 9.86154 15.0216 9.28209L17.3362 9.5536C17.0833 10.1277 16.9583 10.7499 16.9697 11.3771C16.9657 11.905 17.0518 12.4297 17.2242 12.9286L14.8848 12.6532ZM18.431 13.0702C18.2895 13.0145 17.9394 12.4312 17.9394 11.3771C17.9394 10.3138 18.2982 9.72379 18.4242 9.68015C18.4435 9.68024 18.4628 9.67911 18.4819 9.67675L29.3425 8.37494C29.1715 8.87281 29.0864 9.39616 29.0909 9.92257C29.0814 10.551 29.2105 11.1737 29.4691 11.7466L18.431 13.0702ZM13.2596 2.01954C13.7919 1.95652 14.3298 1.95652 14.8621 2.01954L26.4402 3.381L18.4242 4.34342L6.67491 2.95869H6.67006L6.05479 2.88645L13.2596 2.01954ZM1.93309 3.37712L3.68242 3.58221C3.49177 4.14057 3.39431 4.7265 3.39394 5.31651C3.38939 5.86944 3.4501 6.42097 3.57479 6.95966L1.95006 6.77106C1.81333 6.72742 1.45455 6.13736 1.45455 5.07409C1.45455 4.02779 1.8017 3.44015 1.93309 3.37954V3.37712ZM1.93939 17.9226C1.6 17.9226 0.969697 16.8181 0.969697 15.0135C0.969697 13.2195 1.58933 12.1209 1.93212 12.1068L3.03467 12.2363C2.6117 13.2298 2.40684 14.3025 2.43394 15.382C2.42301 16.2777 2.55543 17.1695 2.82618 18.0234L1.99612 17.9265C1.97732 17.9239 1.95837 17.9226 1.93939 17.9226ZM24.6303 19.5711C24.5831 19.5068 24.5206 19.4554 24.4484 19.4216C24.3763 19.3877 24.2968 19.3724 24.2172 19.3771C24.1383 19.3817 24.0618 19.4054 23.9942 19.4463C23.9266 19.4872 23.87 19.544 23.8293 19.6118L23.2727 20.5359V16.3769L25.2121 16.1432V20.3468L24.6303 19.5711ZM26.1818 18.9277V16.0263L26.4863 15.9895C26.6141 15.9742 26.7305 15.9089 26.8101 15.8078C26.8896 15.7067 26.9258 15.5781 26.9105 15.4503C26.8953 15.3226 26.8299 15.2061 26.7288 15.1265C26.6277 15.047 26.4991 15.0109 26.3714 15.0261L25.6441 15.1143H25.6407L22.7316 15.4634C22.7263 15.4634 22.7219 15.4673 22.7166 15.4678L22.1125 15.541C21.9899 15.5556 21.8774 15.6164 21.7981 15.7111C21.7188 15.8057 21.6786 15.9271 21.6857 16.0504C21.6928 16.1737 21.7467 16.2896 21.8364 16.3745C21.9261 16.4594 22.0447 16.5069 22.1682 16.5073C22.1874 16.5074 22.2065 16.5062 22.2255 16.5039L22.303 16.4942V19.3931L18.4242 19.8586L18.3816 19.8537C18.047 19.7728 17.4545 18.7386 17.4545 16.9529C17.4545 15.1483 18.0848 14.0438 18.4242 14.0438C18.4435 14.0439 18.4628 14.0427 18.4819 14.0404L29.1394 12.7628C28.7718 13.6272 28.5901 14.5592 28.6061 15.4983C28.571 16.5597 28.8113 17.612 29.3038 18.5529L26.1818 18.9277Z" fill="white"/>
</g>
<defs>
<clipPath id="clip0_9_2042">
<rect width="32" height="22.303" fill="white" transform="translate(0 0.468018)"/>
</clipPath>
</defs>
</svg>
