<svg width="196" height="44" viewBox="0 0 196 44" fill="none" xmlns="http://www.w3.org/2000/svg">
<path fill-rule="evenodd" clip-rule="evenodd" d="M159.266 13.2149C160.012 14.4984 160.255 15.9588 160.336 17.6006L160.442 19.7889V35.0909L160.55 37.2815C160.766 40.859 163.409 43.5042 167.021 43.7293L169.205 43.8372V19.7889L169.313 17.6006C169.402 15.9772 169.644 14.4893 170.401 13.1965C171.172 11.8705 172.279 10.7704 173.611 10.0066C174.943 9.24273 176.453 8.84211 177.989 8.8449C179.525 8.84769 181.034 9.2538 182.363 10.0225C183.692 10.7911 184.795 11.8953 185.562 13.224C186.307 14.5076 186.539 15.9956 186.629 17.6006L186.737 19.782V35.0909L186.845 37.2815C187.071 40.8774 189.693 43.5226 193.317 43.7293L195.5 43.8372V17.6006C195.5 12.9613 193.654 8.51186 190.368 5.23071C187.082 1.94955 182.625 0.105302 177.977 0.103476C175.489 0.100857 173.029 0.628172 170.762 1.65019C168.495 2.67221 166.472 4.1654 164.829 6.03C163.185 4.16614 161.163 2.67331 158.895 1.65098C156.628 0.628661 154.169 0.100325 151.681 0.101179C148.042 0.101179 144.665 1.20336 141.867 3.10692C140.16 1.20566 136.341 0.101179 134.149 0.101179V43.8372L136.341 43.7293C140.008 43.4882 142.658 40.9141 142.801 37.2815L142.918 35.0909V19.7889L143.027 17.6006C143.119 15.9497 143.349 14.4984 144.096 13.2057C144.868 11.8805 145.975 10.7806 147.306 10.0159C148.637 9.25113 150.145 8.84825 151.681 8.84746C153.218 8.84779 154.728 9.25148 156.059 10.018C157.391 10.7846 158.497 11.8871 159.266 13.2149ZM9.26283 43.7315L11.4553 43.8372H44.3187L44.2106 41.6558C43.9138 38.0599 41.3625 35.433 37.7484 35.1988L35.5559 35.0909H15.8401L42.1263 8.84516L42.0182 6.66606C41.8479 3.03344 39.1885 0.408872 35.5559 0.2091L33.3635 0.110364L0.5 0.101179L0.608126 2.28947C0.895696 5.8509 3.48382 8.53288 7.0681 8.73954L9.26283 8.84746H28.9786L2.69243 35.0932L2.80056 37.2815C3.01681 40.8865 5.62335 43.4973 9.26283 43.7293V43.7315ZM125.547 6.50303C127.582 8.53361 129.196 10.9444 130.297 13.5977C131.398 16.251 131.965 19.0949 131.965 21.9669C131.965 24.8389 131.398 27.6827 130.297 30.336C129.196 32.9894 127.582 35.4002 125.547 37.4307C121.436 41.5308 115.862 43.8338 110.05 43.8338C104.239 43.8338 98.6649 41.5308 94.5538 37.4307C85.998 28.8911 85.998 15.0426 94.5538 6.50303C96.5868 4.47312 99.0004 2.86278 101.657 1.76395C104.314 0.665121 107.161 0.0993303 110.037 0.0988822C112.917 0.0968863 115.769 0.66168 118.431 1.76096C121.092 2.86024 123.51 4.47243 125.547 6.50532V6.50303ZM119.347 12.6959C121.811 15.1575 123.196 18.495 123.196 21.9749C123.196 25.4548 121.811 28.7923 119.347 31.2539C116.881 33.7136 113.537 35.0954 110.05 35.0954C106.564 35.0954 103.22 33.7136 100.754 31.2539C98.2894 28.7923 96.9051 25.4548 96.9051 21.9749C96.9051 18.495 98.2894 15.1575 100.754 12.6959C103.22 10.2362 106.564 8.85448 110.05 8.85448C113.537 8.85448 116.881 10.2362 119.347 12.6959ZM64.0529 0.0988822C66.9287 0.0996318 69.7762 0.665784 72.4328 1.76501C75.0893 2.86423 77.5029 4.475 79.5357 6.50532C88.0938 15.0426 88.0938 28.8934 79.5357 37.4307C75.4246 41.5308 69.8508 43.8338 64.0391 43.8338C58.2275 43.8338 52.6537 41.5308 48.5426 37.4307C39.9868 28.8911 39.9868 15.0426 48.5426 6.50303C50.5756 4.47312 52.9893 2.86278 55.6458 1.76395C58.3023 0.665121 61.1497 0.0993303 64.0253 0.0988822H64.0529ZM73.3357 12.6913C75.8008 15.153 77.1855 18.491 77.1855 21.9715C77.1855 25.4519 75.8008 28.7899 73.3357 31.2516C70.8695 33.7114 67.5256 35.0931 64.0391 35.0931C60.5527 35.0931 57.2088 33.7114 54.7426 31.2516C52.2782 28.79 50.8939 25.4525 50.8939 21.9726C50.8939 18.4927 52.2782 15.1552 54.7426 12.6936C57.2088 10.2339 60.5527 8.85219 64.0391 8.85219C67.5256 8.85219 70.8695 10.2339 73.3357 12.6936V12.6913Z" fill="white"/>
</svg>
