<svg width="216" height="56" viewBox="0 0 216 56" fill="none" xmlns="http://www.w3.org/2000/svg">
<g clip-path="url(#clip0_6_351)">
<mask id="mask0_6_351" style="mask-type:luminance" maskUnits="userSpaceOnUse" x="0" y="0" width="216" height="56">
<path d="M0.5 0.129364H215.5V55.8066H0.5V0.129364Z" fill="white"/>
</mask>
<g mask="url(#mask0_6_351)">
<path d="M52.4878 38.2278V36.3863V33.843V21.8724V19.3292L54.4473 15.2512L64.2449 7.49003C65.5512 6.39383 67.5108 7.31466 67.5108 9.02475V46.1206C67.5108 47.8307 65.5077 48.7515 64.2014 47.6553L52.4878 38.2278Z" fill="#00AC47"/>
<path d="M20.0695 1.87546L4.25586 17.6891H20.0695V1.87546Z" fill="#EA4335"/>
<path d="M20.0695 17.6891H4.25586V38.2469H20.0695V17.6891Z" fill="#2684FC"/>
<path d="M4.25586 38.2469V48.7893C4.25586 51.6885 6.62791 54.0606 9.52711 54.0606H20.0695V38.2469H4.25586Z" fill="#0066DA"/>
<path d="M54.4641 7.08622C54.4641 4.22031 52.1424 1.87546 49.3048 1.87546H38.9864H20.0693V17.6891H39.4411V27.968L54.4641 27.4949V7.08622Z" fill="#FFBA00"/>
<path d="M39.4411 38.2469H20.0693V54.0606H38.9864H49.3048C52.1424 54.0606 54.4641 51.7191 54.4641 48.8574V27.968H39.4411V38.2469Z" fill="#00AC47"/>
<path d="M54.4644 15.3171V39.8283L39.4414 27.968L54.4644 15.3171Z" fill="#00832D"/>
<path d="M104.518 47.1057H99.8623V10.8734H104.518L117.118 32.9366H117.321L129.921 10.8734H134.576V47.1057H129.921V25.5991L130.123 19.5267H129.921L118.586 39.4139H115.853L104.518 19.5267H104.315L104.518 25.5991V47.1057Z" fill="white"/>
<path d="M152.191 47.9154C148.547 47.9154 145.545 46.6671 143.183 44.1707C140.822 41.6743 139.641 38.5199 139.641 34.7078C139.641 30.9294 140.788 27.7919 143.082 25.2955C145.376 22.7653 148.311 21.5002 151.887 21.5002C155.565 21.5002 158.482 22.6979 160.642 25.0931C162.834 27.4546 163.931 30.7775 163.931 35.062L163.88 35.5681H144.398C144.465 37.997 145.275 39.9537 146.827 41.4381C148.379 42.9224 150.234 43.6647 152.393 43.6647C155.362 43.6647 157.69 42.1803 159.377 39.2115L163.526 41.2357C162.413 43.3273 160.861 44.9635 158.871 46.1442C156.914 47.325 154.687 47.9154 152.191 47.9154ZM144.752 31.7222H158.972C158.837 30.0016 158.128 28.5847 156.846 27.4715C155.598 26.3244 153.911 25.7509 151.786 25.7509C150.031 25.7509 148.513 26.2907 147.232 27.3702C145.983 28.4498 145.157 29.9004 144.752 31.7222Z" fill="white"/>
<path d="M179.568 47.9154C175.925 47.9154 172.923 46.6671 170.561 44.1707C168.199 41.6743 167.019 38.5199 167.019 34.7078C167.019 30.9294 168.166 27.7919 170.46 25.2955C172.753 22.7653 175.688 21.5002 179.265 21.5002C182.942 21.5002 185.86 22.6979 188.019 25.0931C190.212 27.4546 191.308 30.7775 191.308 35.062L191.258 35.5681H171.775C171.843 37.997 172.652 39.9537 174.204 41.4381C175.756 42.9224 177.611 43.6647 179.771 43.6647C182.74 43.6647 185.067 42.1803 186.754 39.2115L190.903 41.2357C189.79 43.3273 188.238 44.9635 186.248 46.1442C184.291 47.325 182.064 47.9154 179.568 47.9154ZM172.13 31.7222H186.349C186.214 30.0016 185.506 28.5847 184.224 27.4715C182.975 26.3244 181.289 25.7509 179.163 25.7509C177.409 25.7509 175.891 26.2907 174.609 27.3702C173.361 28.4498 172.534 29.9004 172.13 31.7222Z" fill="white"/>
<path d="M204.642 47.5105C202.617 47.5105 200.931 46.8864 199.581 45.6382C198.265 44.3899 197.591 42.6526 197.557 40.426V26.5606H193.205V22.3099H197.557V14.7193H202.213V22.3099H208.285V26.5606H202.213V38.9079C202.213 40.561 202.533 41.6911 203.174 42.2983C203.815 42.8718 204.54 43.1586 205.35 43.1586C205.721 43.1586 206.075 43.1248 206.413 43.0574C206.783 42.9562 207.121 42.8381 207.425 42.7032L208.892 46.8527C207.678 47.2913 206.261 47.5105 204.642 47.5105Z" fill="white"/>
</g>
</g>
<defs>
<clipPath id="clip0_6_351">
<rect width="215" height="55.6773" fill="white" transform="translate(0.5 0.129364)"/>
</clipPath>
</defs>
</svg>
