<svg width="190" height="60" viewBox="0 0 190 60" fill="none" xmlns="http://www.w3.org/2000/svg">
<g clip-path="url(#clip0_6_374)">
<path d="M76.1631 45.9238V41.2701C76.7329 41.7449 77.3028 42.1248 78.0626 42.5047C78.8224 42.8846 79.5822 43.1695 80.437 43.4545C81.2917 43.7394 82.0515 43.9293 82.9063 44.0243C83.7611 44.1193 84.5209 44.2143 85.1857 44.2143C87.5601 44.2143 89.3646 43.7394 90.5993 42.8846C91.8339 42.0298 92.4038 40.7002 92.4038 38.9907C92.4038 38.0409 92.2138 37.2811 91.8339 36.6163C91.454 35.9515 90.8842 35.2866 90.2194 34.8118C89.5545 34.2419 88.6998 33.767 87.75 33.1972C86.8003 32.7223 85.7555 32.1525 84.7108 31.5826C83.5711 31.0128 82.4314 30.3479 81.4817 29.7781C80.437 29.2082 79.5822 28.5434 78.8224 27.7836C78.0626 27.0238 77.4927 26.264 77.0179 25.3143C76.543 24.3645 76.353 23.3198 76.353 22.0851C76.353 20.5655 76.7329 19.2359 77.3978 18.0962C78.0626 16.9565 78.9174 16.0067 80.0571 15.3419C81.1018 14.5821 82.3365 14.1072 83.7611 13.7273C85.1857 13.3474 86.6103 13.1575 88.0349 13.1575C91.3591 13.1575 93.7334 13.5374 95.253 14.3921V18.856C93.2586 17.5263 90.7892 16.7665 87.655 16.7665C86.8003 16.7665 85.9455 16.8615 85.0907 17.0514C84.2359 17.2414 83.4761 17.5263 82.8113 17.9062C82.1465 18.2861 81.5767 18.856 81.1968 19.5208C80.8169 20.1856 80.5319 20.9454 80.5319 21.8952C80.5319 22.7499 80.7219 23.5097 81.0068 24.0796C81.2917 24.7444 81.7666 25.3143 82.4314 25.7891C83.0962 26.264 83.856 26.8339 84.7108 27.3087C85.5656 27.7836 86.6103 28.3535 87.75 28.9233C88.9847 29.4932 90.1244 30.158 91.1691 30.8228C92.2138 31.4876 93.1636 32.2474 94.0184 33.0072C94.8731 33.767 95.443 34.7168 95.9179 35.6665C96.3927 36.6163 96.5827 37.756 96.5827 38.9907C96.5827 40.6052 96.2978 42.0299 95.6329 43.1695C94.9681 44.3092 94.1133 45.259 93.0686 45.9238C91.9289 46.6836 90.6942 47.1585 89.2696 47.4434C87.845 47.7283 86.3254 47.9183 84.7108 47.9183C84.141 47.9183 83.5711 47.9183 82.7164 47.8233C81.9566 47.7283 81.1018 47.6334 80.342 47.4434C79.5822 47.2535 78.7274 47.0635 78.0626 46.8736C77.1128 46.4937 76.543 46.2087 76.1631 45.9238Z" fill="white"/>
<path d="M119.567 47.2535H114.153L103.706 35.7615H103.611V47.2535H99.7168V11.7328H103.611V34.2419H103.706L113.678 23.2248H118.712L107.6 34.8118L119.567 47.2535Z" fill="white"/>
<path d="M142.076 23.2248L131.154 51.0525C129.159 55.9912 126.405 58.4605 122.891 58.4605C121.941 58.4605 121.086 58.3655 120.421 58.1756V54.7565C121.276 55.0414 122.036 55.1364 122.701 55.1364C124.6 55.1364 126.025 53.9967 127.07 51.7173L128.969 47.1585L119.662 23.2248H123.935L130.394 41.65C130.489 41.8399 130.679 42.5047 130.869 43.4545H130.964C131.059 43.0746 131.154 42.5047 131.439 41.65L138.182 23.1299H142.076V23.2248Z" fill="white"/>
<path d="M148.059 34.1469V37.471C148.059 39.4655 148.724 41.1751 149.959 42.5047C151.288 43.9293 152.903 44.5942 154.802 44.5942C157.082 44.5942 158.886 43.7394 160.216 41.9349C161.546 40.1303 162.211 37.661 162.211 34.5268C162.211 31.8675 161.641 29.7781 160.406 28.2585C159.171 26.7389 157.557 25.9791 155.467 25.9791C153.283 25.9791 151.478 26.7389 150.149 28.3534C148.724 29.7781 148.059 31.7725 148.059 34.1469ZM148.154 43.7394L148.059 58.2706H144.26V23.2248H148.059V27.4037H148.154C150.054 24.1745 152.808 22.6549 156.417 22.6549C159.456 22.6549 161.926 23.6997 163.635 25.8841C165.345 28.0685 166.199 30.9178 166.199 34.5268C166.199 38.5158 165.25 41.7449 163.255 44.1193C161.356 46.4937 158.696 47.7283 155.277 47.7283C152.238 47.8233 149.769 46.4937 148.154 43.7394Z" fill="white"/>
<path d="M185.384 33.0072C185.384 30.8228 184.814 29.0183 183.769 27.7836C182.725 26.5489 181.3 25.9791 179.401 25.9791C177.596 25.9791 176.077 26.6439 174.842 27.8786C173.607 29.2082 172.847 30.8228 172.467 33.0072H185.384ZM189.278 36.2364H172.467C172.562 38.8957 173.227 40.9851 174.652 42.4098C175.982 43.8344 177.881 44.5942 180.255 44.5942C182.915 44.5942 185.384 43.7394 187.663 41.9349V45.5439C185.574 47.0635 182.82 47.8233 179.306 47.8233C175.982 47.8233 173.322 46.7786 171.328 44.5942C169.428 42.4098 168.479 39.3706 168.479 35.3816C168.479 31.6776 169.523 28.6384 171.613 26.264C173.702 23.8896 176.361 22.7499 179.496 22.7499C182.63 22.7499 185.004 23.7947 186.714 25.7891C188.423 27.7836 189.278 30.6329 189.278 34.2419V36.2364Z" fill="white"/>
<path d="M30.0054 47.7283C20.413 47.7283 16.0441 42.8846 16.0441 39.2756C16.0441 37.471 17.4687 36.1414 19.3682 36.1414C23.4522 36.1414 22.4074 42.3148 30.1004 42.3148C33.9944 42.3148 36.2738 39.9404 36.2738 37.756C36.2738 36.4263 35.514 34.9067 32.9496 34.3369L24.4019 32.1524C17.5637 30.4429 16.329 26.5489 16.329 23.0348C16.329 15.7218 23.0723 13.0625 29.4356 13.0625C35.324 13.0625 42.3522 16.2916 42.3522 20.7554C42.3522 22.6549 40.7376 23.6997 38.9331 23.6997C35.419 23.6997 35.9888 18.761 28.9607 18.761C25.4466 18.761 23.6421 20.3755 23.6421 22.6549C23.6421 24.9343 26.3964 25.6941 28.7707 26.264L35.0391 27.6886C41.9723 29.2082 43.7768 33.2921 43.7768 37.1861C43.7768 43.0746 39.123 47.7283 30.0054 47.7283ZM56.5034 35.0017C56.7884 33.4821 56.8833 31.8675 56.8833 30.2529C56.8833 15.2469 44.8215 3.0901 29.9104 3.0901C28.2959 3.0901 26.7763 3.18508 25.2567 3.47C22.8823 2.14035 20.223 1.38055 17.2788 1.38055C8.44612 1.38055 1.22803 8.59865 1.22803 17.5263C1.22803 20.4705 1.98783 23.1298 3.31748 25.5042C3.03255 27.0238 2.93757 28.6384 2.93757 30.2529C2.93757 45.259 14.9994 57.4158 29.9104 57.4158C31.525 57.4158 33.0446 57.3208 34.5642 57.0359C36.9386 58.3655 39.5979 59.1253 42.5421 59.1253C51.3748 59.1253 58.5929 51.9072 58.5929 42.9796C58.5929 40.1303 57.8331 37.3761 56.5034 35.0017Z" fill="white"/>
</g>
<defs>
<clipPath id="clip0_6_374">
<rect width="189" height="58.8845" fill="white" transform="translate(0.5 0.525787)"/>
</clipPath>
</defs>
</svg>
