<svg width="233" height="76" viewBox="0 0 233 76" fill="none" xmlns="http://www.w3.org/2000/svg">
<path d="M38 75.468C58.7107 75.468 75.5 58.6787 75.5 37.968C75.5 17.2573 58.7107 0.468018 38 0.468018C17.2893 0.468018 0.5 17.2573 0.5 37.968C0.5 58.6787 17.2893 75.468 38 75.468Z" fill="white"/>
<path fill-rule="evenodd" clip-rule="evenodd" d="M17.4745 37.5722C28.4065 32.8093 35.6963 29.6692 39.3436 28.1523C49.7577 23.8207 51.9217 23.0682 53.3321 23.0433C53.6423 23.0379 54.336 23.1148 54.7852 23.4794C55.4517 24.0202 55.4555 25.1942 55.3816 25.9711C54.8172 31.9008 52.3753 46.2904 51.1329 52.9317C50.6072 55.7419 49.5721 56.6842 48.5702 56.7763C46.3925 56.9767 44.7389 55.3371 42.6296 53.9546C39.3292 51.791 37.4646 50.4442 34.2609 48.3331C30.5585 45.8933 32.9586 44.5524 35.0686 42.3608C35.6208 41.7873 45.2157 33.0599 45.4014 32.2682C45.4247 32.1692 45.4463 31.8 45.227 31.6052C45.0077 31.4104 44.6841 31.4769 44.4506 31.5299C44.1195 31.605 38.847 35.09 28.6329 41.9848C27.1363 43.0125 25.7807 43.5132 24.5662 43.487C23.2272 43.4581 20.6517 42.7299 18.737 42.1075C16.3886 41.3442 14.5221 40.9405 14.6847 39.6441C14.7693 38.9687 15.6992 38.2781 17.4745 37.5722Z" fill="url(#paint0_linear_94_2294)"/>
<path d="M104.275 46.8804H99.8828V25.9453H92.5V22.2197H111.641V25.9453H104.275V46.8804Z" fill="white"/>
<path d="M117.81 31.6875C115.417 31.6875 113.691 33.5161 113.521 36.0454H121.98C121.895 33.4819 120.254 31.6875 117.81 31.6875ZM121.997 41.4629H125.979C125.432 44.8809 122.253 47.2393 117.964 47.2393C112.529 47.2393 109.248 43.6675 109.248 37.8911C109.248 32.166 112.563 28.3892 117.793 28.3892C122.937 28.3892 126.15 31.9609 126.15 37.4639V38.8481H113.486V39.1045C113.486 42.0098 115.264 43.958 118.049 43.958C120.032 43.958 121.536 42.9668 121.997 41.4629Z" fill="white"/>
<path d="M129.021 46.8804V22.2197H133.276V46.8804H129.021Z" fill="white"/>
<path d="M144.709 31.6875C142.317 31.6875 140.591 33.5161 140.42 36.0454H148.879C148.794 33.4819 147.153 31.6875 144.709 31.6875ZM148.896 41.4629H152.878C152.332 44.8809 149.153 47.2393 144.863 47.2393C139.429 47.2393 136.147 43.6675 136.147 37.8911C136.147 32.166 139.463 28.3892 144.692 28.3892C149.836 28.3892 153.049 31.9609 153.049 37.4639V38.8481H140.386V39.1045C140.386 42.0098 142.163 43.958 144.949 43.958C146.931 43.958 148.435 42.9668 148.896 41.4629Z" fill="white"/>
<path d="M163.799 43.5137C166.516 43.5137 168.276 41.3091 168.276 37.7715C168.276 34.251 166.516 31.9609 163.799 31.9609C161.116 31.9609 159.407 34.2168 159.407 37.7715C159.407 41.3604 161.116 43.5137 163.799 43.5137ZM163.782 53.7163C159.304 53.7163 156.091 51.4263 155.664 48.2476H159.885C160.347 49.6318 161.902 50.5718 163.918 50.5718C166.687 50.5718 168.276 49.0166 168.276 46.7095V43.6504H168.174C167.234 45.5986 165.098 46.8975 162.5 46.8975C158.022 46.8975 155.049 43.394 155.049 37.7544C155.049 32.0293 157.954 28.4575 162.585 28.4575C165.166 28.4575 167.251 29.7905 168.293 31.8755H168.362V28.7651H172.532V46.5898C172.532 50.9136 169.062 53.7163 163.782 53.7163Z" fill="white"/>
<path d="M176.001 46.8804V28.7651H180.085V31.9268H180.171C180.786 29.7222 182.375 28.4575 184.512 28.4575C185.059 28.4575 185.537 28.5601 185.845 28.6284V32.4736C185.486 32.3369 184.836 32.2344 184.119 32.2344C181.709 32.2344 180.256 33.7896 180.256 36.3359V46.8804H176.001Z" fill="white"/>
<path d="M194.236 43.958C196.646 43.958 198.577 42.3516 198.577 40.1641V38.7798L194.39 39.0361C192.339 39.1729 191.16 40.0957 191.16 41.5312C191.16 43.0181 192.39 43.958 194.236 43.958ZM192.954 47.1709C189.451 47.1709 186.904 44.9663 186.904 41.7021C186.904 38.4893 189.382 36.5581 193.792 36.2847L198.577 36.0112V34.7124C198.577 32.8154 197.295 31.7217 195.193 31.7217C193.176 31.7217 191.895 32.6958 191.621 34.1997H187.673C187.861 30.8159 190.75 28.3892 195.364 28.3892C199.858 28.3892 202.781 30.7646 202.781 34.4048V46.8804H198.679V43.9922H198.594C197.551 45.9575 195.278 47.1709 192.954 47.1709Z" fill="white"/>
<path d="M206.216 46.8804V28.7651H210.3V31.9097H210.386C211.172 29.8076 213.086 28.4233 215.547 28.4233C218.11 28.4233 219.939 29.7393 220.605 32.0635H220.708C221.58 29.8247 223.733 28.4233 226.348 28.4233C229.919 28.4233 232.261 30.833 232.261 34.4561V46.8804H228.005V35.4985C228.005 33.2769 226.843 32.0122 224.758 32.0122C222.708 32.0122 221.306 33.5161 221.306 35.6865V46.8804H217.17V35.2764C217.17 33.2598 215.94 32.0122 213.958 32.0122C211.907 32.0122 210.471 33.6016 210.471 35.7891V46.8804H206.216Z" fill="white"/>
<defs>
<linearGradient id="paint0_linear_94_2294" x1="35.0441" y1="56.7931" x2="35.0441" y2="23.0431" gradientUnits="userSpaceOnUse">
<stop stop-color="#1D93D2"/>
<stop offset="1" stop-color="#38B0E3"/>
</linearGradient>
</defs>
</svg>
