<svg width="390" height="438" viewBox="0 0 390 438" fill="none" xmlns="http://www.w3.org/2000/svg">
<mask id="mask0_44_3771" style="mask-type:alpha" maskUnits="userSpaceOnUse" x="0" y="0" width="390" height="438">
<rect width="390" height="438" fill="#B89FFF"/>
</mask>
<g mask="url(#mask0_44_3771)">
<g opacity="0.1">
<path d="M-90.2256 373.734C-144.269 214.212 2.10961 180.546 82.0545 183.653C231.779 193.32 170.517 267.404 292.843 327.531C415.169 387.658 291.387 401.866 269.005 473.782C246.624 545.699 417.979 521.742 373.466 652.811C328.954 783.879 62.7799 770.956 166.209 606.226C269.638 441.495 -22.671 573.136 -90.2256 373.734Z" stroke="white" stroke-width="2"/>
<path d="M-37.2152 393.887C-78.7837 271.001 33.8163 245.053 95.3124 247.439C210.485 254.872 163.359 311.95 257.455 358.259C351.55 404.568 256.333 415.524 239.114 470.928C221.896 526.333 353.709 507.862 319.465 608.837C285.222 709.812 80.4727 699.88 160.037 572.968C239.602 446.056 14.7455 547.494 -37.2152 393.887Z" stroke="white" stroke-width="2"/>
<path d="M-139.308 354.922C-204.896 161.138 -27.2387 120.227 69.7884 123.994C251.505 135.724 177.152 225.728 325.614 298.76C474.077 371.792 323.845 389.063 296.68 476.43C269.514 563.797 477.485 534.679 423.458 693.907C369.431 853.134 46.3822 837.459 171.915 637.333C297.448 437.208 -57.3231 597.153 -139.308 354.922Z" stroke="white" stroke-width="2"/>
<path d="M-180.539 339.306C-255.832 117.154 -51.9035 70.2782 59.4727 74.609C268.063 88.0775 182.716 191.244 353.137 274.982C523.557 358.72 351.109 378.5 319.928 478.649C288.748 578.799 527.474 545.445 465.462 727.968C403.45 910.491 32.6266 892.482 176.718 663.084C320.809 433.687 -86.4225 616.996 -180.539 339.306Z" stroke="white" stroke-width="2"/>
<path d="M-239.433 316.629C-328.575 53.1329 -87.111 -2.50464 44.764 2.61366C291.745 18.5543 190.686 140.942 392.469 240.24C594.252 339.538 390.063 363.03 353.14 481.829C316.217 600.628 598.882 561.025 525.449 777.538C452.016 994.051 12.9429 972.752 183.564 700.624C354.185 428.496 -128.006 646 -239.433 316.629Z" stroke="white" stroke-width="2"/>
<path d="M-308.145 290.088C-413.44 -21.8346 -128.183 -87.7494 27.6073 -81.7164C319.378 -62.8943 199.986 82.0147 438.358 199.529C676.73 317.043 435.51 344.895 391.885 485.543C348.26 626.191 682.188 579.25 595.427 835.584C508.666 1091.92 -10.0322 1066.79 191.545 744.597C393.122 422.404 -176.526 679.992 -308.145 290.088Z" stroke="white" stroke-width="2"/>
</g>
</g>
</svg>
