<svg width="1920" height="276" viewBox="0 0 1920 276" fill="none" xmlns="http://www.w3.org/2000/svg">
<mask id="mask0_9_1841" style="mask-type:alpha" maskUnits="userSpaceOnUse" x="0" y="0" width="1920" height="276">
<rect y="0.468018" width="1920" height="275" fill="#B89FFF"/>
</mask>
<g mask="url(#mask0_9_1841)">
<g opacity="0.1">
<path d="M696.616 139.617C614.626 -132.417 861.638 -198.277 995.393 -197.203C1245.69 -188.561 1139.1 -57.5992 1340.79 39.4756C1542.49 136.55 1334.37 167.666 1293.03 292.809C1251.69 417.952 1540.02 367.488 1458.43 595.762C1376.85 824.035 931.654 816.016 1113.74 526.573C1295.82 237.13 799.103 479.66 696.616 139.617Z" stroke="white" stroke-width="2"/>
<path d="M784.339 171.512C721.285 -38.0497 911.299 -88.8004 1014.19 -87.9806C1206.72 -81.3374 1124.72 19.5574 1279.87 94.3292C1435.01 169.101 1274.92 193.083 1243.11 289.492C1211.3 385.9 1433.1 347.008 1370.33 522.867C1307.56 698.726 965.099 692.574 1105.18 469.586C1245.26 246.598 863.156 433.464 784.339 171.512Z" stroke="white" stroke-width="2"/>
<path d="M615.404 109.826C515.91 -220.64 815.707 -300.662 978.042 -299.364C1281.82 -288.88 1152.45 -129.78 1397.23 -11.8643C1642.02 106.052 1389.44 143.863 1339.25 295.891C1289.06 447.918 1639.01 386.598 1539.98 663.912C1440.95 941.226 900.626 931.51 1121.63 579.881C1342.64 228.252 739.77 522.908 615.404 109.826Z" stroke="white" stroke-width="2"/>
<path d="M547.169 85.1199C432.937 -293.716 777.062 -385.425 963.404 -383.926C1312.11 -371.884 1163.61 -189.51 1444.61 -54.3188C1725.61 80.8727 1435.67 124.198 1378.07 298.47C1320.48 472.742 1722.17 402.475 1608.52 720.365C1494.86 1038.26 874.634 1027.08 1128.3 624.004C1381.96 220.933 689.96 558.664 547.169 85.1199Z" stroke="white" stroke-width="2"/>
<path d="M449.724 49.191C314.507 -400.158 721.98 -508.978 942.619 -507.219C1355.5 -492.972 1179.66 -276.631 1512.36 -116.301C1845.06 44.0282 1501.75 95.4499 1433.54 302.172C1365.32 508.893 1840.96 425.502 1706.35 802.584C1571.74 1179.67 837.361 1166.47 1137.75 688.335C1438.15 210.199 618.746 610.878 449.724 49.191Z" stroke="white" stroke-width="2"/>
<path d="M336.044 7.12916C176.361 -524.816 657.744 -653.693 918.396 -651.638C1406.15 -634.824 1198.39 -378.687 1591.41 -188.922C1984.43 0.84232 1578.86 61.7609 1498.24 306.497C1417.63 551.233 1979.53 452.451 1820.47 898.877C1661.4 1345.3 793.84 1329.77 1148.77 763.694C1503.7 197.614 535.648 672.061 336.044 7.12916Z" stroke="white" stroke-width="2"/>
</g>
</g>
</svg>
